{
.appVersion = "1342";
DisplayStrings = (
"/space/nbspace"
);
copyright = "Copyright 2021 The Zen-Loop Project Authors (https://github.com/googlefonts/zen-loop)";
customParameters = (
{
name = glyphOrder;
value = (
NULL,
CR,
space,
exclam,
quotedbl,
numbersign,
dollar,
percent,
ampersand,
quotesingle,
parenleft,
parenright,
asterisk,
plus,
comma,
hyphen,
period,
slash,
zero,
one,
two,
three,
four,
five,
six,
seven,
eight,
nine,
colon,
semicolon,
less,
equal,
greater,
question,
at,
A,
B,
C,
D,
E,
F,
G,
H,
I,
J,
K,
L,
M,
N,
O,
P,
Q,
R,
S,
T,
U,
V,
W,
X,
Y,
Z,
bracketleft,
backslash,
bracketright,
asciicircum,
underscore,
grave,
a,
b,
c,
d,
e,
f,
g,
h,
i,
j,
k,
l,
m,
n,
o,
p,
q,
r,
s,
t,
u,
v,
w,
x,
y,
z,
braceleft,
bar,
braceright,
asciitilde,
cent,
bullet,
registered,
copyright,
trademark,
plusminus,
yen,
ellipsis,
nbspace,
endash,
emdash,
quotedblleft,
quotedblright,
quoteleft,
quoteright,
divide
);
},
{
name = license;
value = "This Font Software is licensed under the SIL Open Font License, Version 1.1. This license is available with a FAQ at: https://scripts.sil.org/OFL";
},
{
name = licenseURL;
value = "https://scripts.sil.org/OFL";
},
{
name = fsType;
value = (
);
},
{
name = "Use Typo Metrics";
value = 1;
}
);
date = "2021-02-15 04:08:58 +0000";
designer = "Yoshimichi Ohira";
designerURL = "https://www.zenfont.jp/";
disablesNiceNames = 1;
familyName = "Zen Loop";
fontMaster = (
{
alignmentZones = (
"{690, 5}",
"{477, 5}",
"{0, -5}",
"{-187, -5}"
);
ascender = 713;
capHeight = 690;
custom = Italic;
customParameters = (
{
name = TTFZones;
value = (
{
name = fig;
position = 667;
size = 13;
},
{
name = "T: 456";
position = 456;
size = 25;
},
{
name = base;
position = -12;
size = -13;
},
{
name = dsc;
position = -195;
size = -5;
}
);
},
{
name = underlineThickness;
value = 20;
},
{
name = underlinePosition;
value = -133;
},
{
name = typoAscender;
value = 820;
},
{
name = typoDescender;
value = 250;
},
{
name = typoLineGap;
value = 0;
},
{
name = hheaAscender;

glyphs = (
{
glyphname = exclam;
lastChange = "2020-10-02 15:15:07 +0000";
layers = (
{
background = {
paths = (
{
closed = 1;
nodes = (
"201 680 LINE SMOOTH",
"203 686 OFFCURVE",
"198 690 OFFCURVE",
"192 690 CURVE SMOOTH",
"186 690 OFFCURVE",
"182 686 OFFCURVE",
"180 680 CURVE SMOOTH",
"49 193 LINE SMOOTH",
"47 187 OFFCURVE",
"50 183 OFFCURVE",
"56 183 CURVE SMOOTH",
"63 183 OFFCURVE",
"68 187 OFFCURVE",
"70 193 CURVE SMOOTH"
);
},
{
closed = 1;
nodes = (
"42 89 LINE SMOOTH",
"44 95 OFFCURVE",
"40 99 OFFCURVE",
"34 99 CURVE SMOOTH",
"28 99 OFFCURVE",
"23 95 OFFCURVE",
"21 89 CURVE SMOOTH",
"0 10 LINE SMOOTH",
"-2 4 OFFCURVE",
"1 0 OFFCURVE",
"7 0 CURVE SMOOTH",
"14 0 OFFCURVE",
"19 4 OFFCURVE",
"21 10 CURVE SMOOTH"
);
}
);
};
components = (
{
name = period;
transform = "{1, 0, 0, 1, -20, 0}";
}
);
layerId = "8AECA43D-4735-4071-BB51-E4BAE59DF091";
paths = (
{
closed = 1;
nodes = (
"203 686 OFFCURVE",
"197 690 OFFCURVE",
"191 690 CURVE SMOOTH",
"184 690 OFFCURVE",
"182 687 OFFCURVE",
"180 680 CURVE SMOOTH",
"49 195 LINE SMOOTH",
"47 187 OFFCURVE",
"53 183 OFFCURVE",
"59 183 CURVE SMOOTH",
"66 183 OFFCURVE",
"68 186 OFFCURVE",
"70 193 CURVE SMOOTH",
"201 678 LINE SMOOTH"
);
}
);
width = 143;
},
{
associatedMasterId = "8AECA43D-4735-4071-BB51-E4BAE59DF091";
layerId = "89D73CC5-3299-4470-8F30-80A36F8244F7";
name = "Aug 21 20, 13:45";
paths = (
{
closed = 1;
nodes = (
"130 191 LINE",
"128 186 OFFCURVE",
"122 182 OFFCURVE",
"117 184 CURVE SMOOTH",
"111 185 OFFCURVE",
"108 191 OFFCURVE",
"109 197 CURVE SMOOTH",
"239 682 LINE",
"241 687 OFFCURVE",
"246 691 OFFCURVE",
"252 689 CURVE SMOOTH",
"258 688 OFFCURVE",
"261 682 OFFCURVE",
"259 676 CURVE SMOOTH"
);
},
{
closed = 1;
nodes = (
"80 7 LINE SMOOTH",
"79 2 OFFCURVE",
"73 -2 OFFCURVE",
"67 0 CURVE SMOOTH",
"62 1 OFFCURVE",
"59 7 OFFCURVE",
"60 13 CURVE SMOOTH",
"82 93 LINE SMOOTH",
"83 99 OFFCURVE",
"89 102 OFFCURVE",
"94 101 CURVE SMOOTH",
"100 99 OFFCURVE",
"103 93 OFFCURVE",
"102 88 CURVE SMOOTH"
);
}
);
width = 219;
}
);
leftKerningGroup = H;
leftMetricsKey = H;
rightKerningGroup = H;
rightMetricsKey = H;
unicode = 0021;
},
{
glyphname = quotedbl;
lastChange = "2020-10-02 15:14:38 +0000";
layers = (
{
background = {
paths = (
{
closed = 1;
nodes = (
"254 509 LINE SMOOTH",
"252 503 OFFCURVE",
"247 500 OFFCURVE",
"241 501 CURVE SMOOTH",
"235 503 OFFCURVE",
"232 509 OFFCURVE",
"234 514 CURVE",
"279 682 LINE SMOOTH",
"280 687 OFFCURVE",
"286 691 OFFCURVE",
"291 689 CURVE SMOOTH",
"297 688 OFFCURVE",
"300 682 OFFCURVE",
"299 676 CURVE SMOOTH"
);
},
{
closed = 1;
nodes = (
"180 509 LINE SMOOTH",
"179 503 OFFCURVE",
"173 500 OFFCURVE",
"167 501 CURVE SMOOTH",
"162 503 OFFCURVE",
"158 509 OFFCURVE",
"160 514 CURVE",
"205 682 LINE SMOOTH",
"206 687 OFFCURVE",
"212 691 OFFCURVE",
"218 689 CURVE SMOOTH",
"223 688 OFFCURVE",
"227 682 OFFCURVE",
"225 676 CURVE SMOOTH"
);
}
);
};
components = (
{
name = quotesingle;
},
{
name = quotesingle;
transform = "{1, 0, 0, 1, 74, 0}";
}
);
layerId = "8AECA43D-4735-4071-BB51-E4BAE59DF091";
width = 196;
}
);
leftKerningGroup = quoteleft;
leftMetricsKey = quotesingle;
rightKerningGroup = quoteleft;
rightMetricsKey = quotesingle;
unicode = 0022;
},
{
glyphname = numbersign;
lastChange = "2020-10-10 11:32:09 +0000";
layers = (
{
background = {
paths = (
{
closed = 1;
nodes = (
"468 456 OFFCURVE",
"473 462 OFFCURVE",
"473 469 CURVE SMOOTH",
"473 474 OFFCURVE",
"470 477 OFFCURVE",
"465 477 CURVE SMOOTH",
"114 477 LINE SMOOTH",
"107 477 OFFCURVE",
"102 471 OFFCURVE",
"102 464 CURVE SMOOTH",
"102 459 OFFCURVE",
"106 456 OFFCURVE",
"110 456 CURVE SMOOTH",
"461 456 LINE SMOOTH"
);
},
{
closed = 1;
nodes = (
"290 686 OFFCURVE",
"286 690 OFFCURVE",
"279 690 CURVE SMOOTH",
"273 690 OFFCURVE",
"269 686 OFFCURVE",
"267 680 CURVE SMOOTH",
"31 11 LINE SMOOTH",
"29 6 OFFCURVE",
"31 0 OFFCURVE",
"39 0 CURVE SMOOTH",
"45 0 OFFCURVE",
"50 4 OFFCURVE",
"52 10 CURVE SMOOTH",
"288 679 LINE SMOOTH"
);
},
{
closed = 1;
nodes = (
"460 686 OFFCURVE",
"456 690 OFFCURVE",
"449 690 CURVE SMOOTH",
"443 690 OFFCURVE",
"439 686 OFFCURVE",
"437 680 CURVE SMOOTH",
"201 11 LINE SMOOTH",
"199 5 OFFCURVE",
"202 0 OFFCURVE",
"209 0 CURVE SMOOTH",
"216 0 OFFCURVE",
"220 4 OFFCURVE",
"222 10 CURVE SMOOTH",
"458 679 LINE SMOOTH"
);
},
{
closed = 1;
nodes = (
"382 212 OFFCURVE",
"387 218 OFFCURVE",
"387 225 CURVE SMOOTH",
"387 230 OFFCURVE",
"384 233 OFFCURVE",
"379 233 CURVE SMOOTH",
"28 233 LINE SMOOTH",
"21 233 OFFCURVE",
"16 227 OFFCURVE",
"16 220 CURVE SMOOTH",
"16 215 OFFCURVE",
"20 212 OFFCURVE",
"24 212 CURVE SMOOTH",
"375 212 LINE SMOOTH"
);
}
);
};
layerId = "8AECA43D-4735-4071-BB51-E4BAE59DF091";
paths = (
{
closed = 1;
nodes = (
"291 686 OFFCURVE",
"284 690 OFFCURVE",
"278 690 CURVE SMOOTH",
"271 690 OFFCURVE",
"269 687 OFFCURVE",
"267 680 CURVE SMOOTH",
"31 12 LINE SMOOTH",
"28 5 OFFCURVE",
"34 0 OFFCURVE",
"40 0 CURVE SMOOTH",
"47 0 OFFCURVE",
"50 3 OFFCURVE",
"52 10 CURVE SMOOTH",
"288 678 LINE SMOOTH"
);
},
{
closed = 1;
nodes = (
"461 686 OFFCURVE",
"454 690 OFFCURVE",
"448 690 CURVE SMOOTH",
"441 690 OFFCURVE",
"439 687 OFFCURVE",
"437 680 CURVE SMOOTH",
"201 12 LINE SMOOTH",
"198 5 OFFCURVE",
"204 0 OFFCURVE",
"210 0 CURVE SMOOTH",
"217 0 OFFCURVE",
"220 3 OFFCURVE",
"222 10 CURVE SMOOTH",
"458 678 LINE SMOOTH"
);
},
{
closed = 1;
nodes = (
"387 229 OFFCURVE",
"383 233 OFFCURVE",
"378 233 CURVE SMOOTH",
"28 233 LINE SMOOTH",
"21 233 OFFCURVE",
"16 228 OFFCURVE",
"16 221 CURVE SMOOTH",
"16 216 OFFCURVE",
"20 212 OFFCURVE",
"25 212 CURVE SMOOTH",
"375 212 LINE SMOOTH",
"382 212 OFFCURVE",
"387 217 OFFCURVE",
"387 224 CURVE SMOOTH"
);
},
{
closed = 1;
nodes = (
"473 473 OFFCURVE",
"469 477 OFFCURVE",
"464 477 CURVE SMOOTH",
"114 477 LINE SMOOTH",
"107 477 OFFCURVE",
"102 472 OFFCURVE",
"102 465 CURVE SMOOTH",
"102 460 OFFCURVE",
"106 456 OFFCURVE",
"111 456 CURVE SMOOTH",
"461 456 LINE SMOOTH",
"468 456 OFFCURVE",
"473 461 OFFCURVE",
"473 468 CURVE SMOOTH"
);
}
);
width = 432;
},
{
associatedMasterId = "8AECA43D-4735-4071-BB51-E4BAE59DF091";
layerId = "6AA9761B-312A-421F-8B34-6FEFF38C3C70";
name = "Aug 21 20, 13:54";
paths = (
{
closed = 1;
nodes = (
"490 461 OFFCURVE",
"485 456 OFFCURVE",
"480 456 CURVE SMOOTH",
"398 456 LINE",
"325 233 LINE",
"400 233 LINE SMOOTH",
"406 233 OFFCURVE",
"411 229 OFFCURVE",
"411 223 CURVE SMOOTH",
"411 217 OFFCURVE",
"406 212 OFFCURVE",
"400 212 CURVE SMOOTH",
"318 212 LINE",
"252 7 LINE SMOOTH",
"250 1 OFFCURVE",
"244 -2 OFFCURVE",
"238 0 CURVE SMOOTH",
"233 2 OFFCURVE",
"230 8 OFFCURVE",
"232 13 CURVE SMOOTH",
"296 212 LINE",
"148 212 LINE",
"81 7 LINE SMOOTH",
"79 1 OFFCURVE",
"73 -2 OFFCURVE",
"68 0 CURVE SMOOTH",
"62 2 OFFCURVE",
"59 8 OFFCURVE",
"61 13 CURVE SMOOTH",
"126 212 LINE",
"50 212 LINE SMOOTH",
"45 212 OFFCURVE",
"40 217 OFFCURVE",
"40 223 CURVE SMOOTH",
"40 229 OFFCURVE",
"45 233 OFFCURVE",
"50 233 CURVE SMOOTH",
"132 233 LINE",
"205 456 LINE",
"130 456 LINE SMOOTH",
"124 456 OFFCURVE",
"119 461 OFFCURVE",
"119 467 CURVE SMOOTH",
"119 473 OFFCURVE",
"124 477 OFFCURVE",
"130 477 CURVE SMOOTH",
"212 477 LINE",
"278 683 LINE SMOOTH",
"280 688 OFFCURVE",
"286 691 OFFCURVE",
"292 689 CURVE SMOOTH",
"297 688 OFFCURVE",
"300 682 OFFCURVE",
"298 676 CURVE SMOOTH",
"234 477 LINE",
"382 477 LINE",
"449 683 LINE SMOOTH",
"451 688 OFFCURVE",
"457 691 OFFCURVE",
"462 689 CURVE SMOOTH",
"468 688 OFFCURVE",
"471 682 OFFCURVE",
"469 676 CURVE SMOOTH",
"405 477 LINE",
"480 477 LINE SMOOTH",
"485 477 OFFCURVE",
"490 473 OFFCURVE",
"490 467 CURVE SMOOTH"
);
},
{
closed = 1;
nodes = (
"227 456 LINE",
"154 233 LINE",
"303 233 LINE",
"376 456 LINE"
);
}
);
width = 440;
}
);
rightMetricsKey = "=|";
unicode = 0023;
},
{
glyphname = dollar;
lastChange = "2020-10-09 14:46:17 +0000";
layers = (
{
background = {
paths = (
{
closed = 1;
nodes = (
"331 773 OFFCURVE",
"326 777 OFFCURVE",
"320 777 CURVE SMOOTH",
"314 777 OFFCURVE",
"310 773 OFFCURVE",
"308 767 CURVE SMOOTH",
"80 -83 LINE SMOOTH",
"78 -89 OFFCURVE",
"81 -93 OFFCURVE",
"87 -93 CURVE SMOOTH",
"94 -93 OFFCURVE",
"99 -89 OFFCURVE",
"101 -83 CURVE SMOOTH",
"329 767 LINE SMOOTH"
);
},
{
closed = 1;
nodes = (
"396 641 OFFCURVE",
"362 675 OFFCURVE",
"301 675 CURVE SMOOTH",
"204 675 OFFCURVE",
"117 585 OFFCURVE",
"117 484 CURVE SMOOTH",
"117 426 OFFCURVE",
"154 394 OFFCURVE",
"196 352 CURVE SMOOTH",
"211 337 LINE SMOOTH",
"257 291 OFFCURVE",
"295 262 OFFCURVE",
"295 210 CURVE SMOOTH",
"295 121 OFFCURVE",
"214 41 OFFCURVE",
"123 41 CURVE SMOOTH",
"55 41 OFFCURVE",
"24 81 OFFCURVE",
"24 164 CURVE SMOOTH",
"24 168 OFFCURVE",
"22 172 OFFCURVE",
"15 172 CURVE SMOOTH",
"5 172 OFFCURVE",
"1 165 OFFCURVE",
"1 142 CURVE SMOOTH",
"1 71 OFFCURVE",
"48 20 OFFCURVE",
"117 20 CURVE SMOOTH",
"223 20 OFFCURVE",
"318 113 OFFCURVE",
"318 215 CURVE SMOOTH",
"318 274 OFFCURVE",
"275 308 OFFCURVE",
"227 356 CURVE SMOOTH",
"216 367 LINE SMOOTH",
"174 409 OFFCURVE",
"140 438 OFFCURVE",
"140 490 CURVE SMOOTH",
"140 577 OFFCURVE",
"214 654 OFFCURVE",
"296 654 CURVE SMOOTH",
"349 654 OFFCURVE",
"376 625 OFFCURVE",
"379 576 CURVE SMOOTH",
"380 568 OFFCURVE",
"383 567 OFFCURVE",
"387 567 CURVE SMOOTH",
"396 567 OFFCURVE",
"401 574 OFFCURVE",
"400 586 CURVE SMOOTH"
);
}
);
};
layerId = "8AECA43D-4735-4071-BB51-E4BAE59DF091";
paths = (
{
closed = 1;
nodes = (
"331 773 OFFCURVE",
"325 777 OFFCURVE",
"319 777 CURVE SMOOTH",
"312 777 OFFCURVE",
"310 774 OFFCURVE",
"308 767 CURVE SMOOTH",
"80 -81 LINE SMOOTH",
"78 -89 OFFCURVE",
"84 -93 OFFCURVE",
"90 -93 CURVE SMOOTH",
"97 -93 OFFCURVE",
"99 -90 OFFCURVE",
"101 -83 CURVE SMOOTH",
"329 765 LINE SMOOTH"
);
},
{
closed = 1;
nodes = (
"399 641 OFFCURVE",
"353 675 OFFCURVE",
"285 675 CURVE SMOOTH",
"184 675 OFFCURVE",
"108 603 OFFCURVE",
"108 510 CURVE SMOOTH",
"108 438 OFFCURVE",
"147 401 OFFCURVE",
"199 349 CURVE SMOOTH",
"218 330 LINE SMOOTH",
"265 283 OFFCURVE",
"297 251 OFFCURVE",
"297 190 CURVE SMOOTH",
"297 100 OFFCURVE",
"229 41 OFFCURVE",
"130 41 CURVE SMOOTH",
"56 41 OFFCURVE",
"15 81 OFFCURVE",
"15 161 CURVE SMOOTH",
"15 168 OFFCURVE",
"12 172 OFFCURVE",
"5 172 CURVE SMOOTH",
"-4 172 OFFCURVE",
"-6 165 OFFCURVE",
"-6 152 CURVE SMOOTH",
"-6 71 OFFCURVE",
"45 20 OFFCURVE",
"130 20 CURVE SMOOTH",
"237 20 OFFCURVE",
"319 90 OFFCURVE",
"319 190 CURVE SMOOTH",
"319 256 OFFCURVE",
"287 291 OFFCURVE",
"236 342 CURVE SMOOTH",
"218 360 LINE SMOOTH",
"167 411 OFFCURVE",
"130 445 OFFCURVE",
"130 511 CURVE SMOOTH",
"130 593 OFFCURVE",
"197 654 OFFCURVE",
"285 654 CURVE SMOOTH",
"345 654 OFFCURVE",
"378 625 OFFCURVE",
"381 577 CURVE SMOOTH",
"382 569 OFFCURVE",
"386 567 OFFCURVE",
"391 567 CURVE SMOOTH",
"400 567 OFFCURVE",
"402 573 OFFCURVE",
"402 579 CURVE SMOOTH"
);
}
);
width = 373;
},
{
associatedMasterId = "8AECA43D-4735-4071-BB51-E4BAE59DF091";
layerId = "4641F34E-26EA-4FC0-83E6-67DEC48CF103";
name = "Aug 21 20, 14:11";
paths = (
{
closed = 1;
nodes = (
"441 590 OFFCURVE",
"437 584 OFFCURVE",
"431 583 CURVE SMOOTH",
"425 582 OFFCURVE",
"420 586 OFFCURVE",
"419 592 CURVE SMOOTH",
"412 632 OFFCURVE",
"376 660 OFFCURVE",
"343 667 CURVE",
"258 351 LINE",
"314 269 OFFCURVE",
"334 200 OFFCURVE",
"322 134 CURVE SMOOTH",
"304 39 OFFCURVE",
"230 -1 OFFCURVE",
"164 0 CURVE",
"143 -80 LINE",
"141 -85 OFFCURVE",
"135 -88 OFFCURVE",
"130 -87 CURVE SMOOTH",
"124 -85 OFFCURVE",
"122 -74 OFFCURVE",
"122 -74 CURVE",
"143 1 LINE",
"73 11 OFFCURVE",
"30 65 OFFCURVE",
"30 142 CURVE SMOOTH",
"30 148 OFFCURVE",
"35 152 OFFCURVE",
"40 152 CURVE SMOOTH",
"46 152 OFFCURVE",
"51 148 OFFCURVE",
"51 142 CURVE SMOOTH",
"51 74 OFFCURVE",
"87 29 OFFCURVE",
"148 22 CURVE",
"235 348 LINE",
"192 410 OFFCURVE",
"152 469 OFFCURVE",
"175 564 CURVE SMOOTH",
"198 658 OFFCURVE",
"270 690 OFFCURVE",
"327 689 CURVE",
"348 768 LINE SMOOTH",
"350 774 OFFCURVE",
"355 777 OFFCURVE",
"361 775 CURVE SMOOTH",
"367 774 OFFCURVE",
"370 768 OFFCURVE",
"368 763 CURVE",
"348 687 LINE",
"389 678 OFFCURVE",
"431 645 OFFCURVE",
"440 595 CURVE SMOOTH"
);
},
{
closed = 1;
nodes = (
"271 667 OFFCURVE",
"214 638 OFFCURVE",
"195 559 CURVE SMOOTH",
"176 480 OFFCURVE",
"205 429 OFFCURVE",
"243 374 CURVE",
"321 668 LINE"
);
},
{
closed = 1;
nodes = (
"312 194 OFFCURVE",
"296 254 OFFCURVE",
"251 324 CURVE",
"170 21 LINE",
"226 23 OFFCURVE",
"286 58 OFFCURVE",
"301 138 CURVE SMOOTH"
);
}
);
width = 390;
}
);
leftKerningGroup = S;
leftMetricsKey = S;
rightKerningGroup = S;
rightMetricsKey = S;
unicode = 0024;
},
{
glyphname = percent;
lastChange = "2020-10-02 15:14:38 +0000";
layers = (
{
background = {
paths = (
{
closed = 1;
nodes = (
"507 684 OFFCURVE",
"501 690 OFFCURVE",
"494 690 CURVE SMOOTH",
"488 690 OFFCURVE",
"486 686 OFFCURVE",
"482 680 CURVE SMOOTH",
"25 15 LINE SMOOTH",
"19 6 OFFCURVE",
"25 0 OFFCURVE",
"32 0 CURVE SMOOTH",
"38 0 OFFCURVE",
"40 4 OFFCURVE",
"44 10 CURVE SMOOTH",
"501 675 LINE SMOOTH"
);
},
{
closed = 1;
nodes = (
"260 368 OFFCURVE",
"321 510 OFFCURVE",
"321 612 CURVE SMOOTH",
"321 666 OFFCURVE",
"298 695 OFFCURVE",
"258 695 CURVE SMOOTH",
"169 695 OFFCURVE",
"108 553 OFFCURVE",
"108 453 CURVE SMOOTH",
"108 397 OFFCURVE",
"131 368 OFFCURVE",
"170 368 CURVE SMOOTH"
);
},
{
closed = 1;
nodes = (
"143 389 OFFCURVE",
"129 413 OFFCURVE",
"129 453 CURVE SMOOTH",
"129 546 OFFCURVE",
"185 674 OFFCURVE",
"256 674 CURVE SMOOTH",
"287 674 OFFCURVE",
"300 650 OFFCURVE",
"300 610 CURVE SMOOTH",
"300 518 OFFCURVE",
"244 389 OFFCURVE",
"172 389 CURVE SMOOTH"
);
},
{
closed = 1;
nodes = (
"357 -5 OFFCURVE",
"418 137 OFFCURVE",
"418 239 CURVE SMOOTH",
"418 293 OFFCURVE",
"395 322 OFFCURVE",
"355 322 CURVE SMOOTH",
"266 322 OFFCURVE",
"205 180 OFFCURVE",
"205 80 CURVE SMOOTH",
"205 24 OFFCURVE",
"228 -5 OFFCURVE",
"267 -5 CURVE SMOOTH"
);
},
{
closed = 1;
nodes = (
"240 16 OFFCURVE",
"226 40 OFFCURVE",
"226 80 CURVE SMOOTH",
"226 173 OFFCURVE",
"282 301 OFFCURVE",
"353 301 CURVE SMOOTH",
"384 301 OFFCURVE",
"397 277 OFFCURVE",
"397 237 CURVE SMOOTH",
"397 145 OFFCURVE",
"341 16 OFFCURVE",
"269 16 CURVE SMOOTH"
);
}
);
};
layerId = "8AECA43D-4735-4071-BB51-E4BAE59DF091";
paths = (
{
closed = 1;
nodes = (
"507 684 OFFCURVE",
"501 690 OFFCURVE",
"494 690 CURVE SMOOTH",
"487 690 OFFCURVE",
"484 686 OFFCURVE",
"480 680 CURVE SMOOTH",
"25 15 LINE SMOOTH",
"19 6 OFFCURVE",
"25 0 OFFCURVE",
"32 0 CURVE SMOOTH",
"38 0 OFFCURVE",
"42 4 OFFCURVE",
"46 10 CURVE SMOOTH",
"501 675 LINE SMOOTH"
);
},
{
closed = 1;
nodes = (
"260 368 OFFCURVE",
"321 510 OFFCURVE",
"321 612 CURVE SMOOTH",
"321 666 OFFCURVE",
"298 695 OFFCURVE",
"258 695 CURVE SMOOTH",
"169 695 OFFCURVE",
"108 553 OFFCURVE",
"108 453 CURVE SMOOTH",
"108 397 OFFCURVE",
"131 368 OFFCURVE",
"170 368 CURVE SMOOTH"
);
},
{
closed = 1;
nodes = (
"143 389 OFFCURVE",
"129 413 OFFCURVE",
"129 453 CURVE SMOOTH",
"129 546 OFFCURVE",
"185 674 OFFCURVE",
"256 674 CURVE SMOOTH",
"287 674 OFFCURVE",
"300 650 OFFCURVE",
"300 610 CURVE SMOOTH",
"300 518 OFFCURVE",
"244 389 OFFCURVE",
"172 389 CURVE SMOOTH"
);
},
{
closed = 1;
nodes = (
"357 -5 OFFCURVE",
"418 137 OFFCURVE",
"418 239 CURVE SMOOTH",
"418 293 OFFCURVE",
"395 322 OFFCURVE",
"355 322 CURVE SMOOTH",
"266 322 OFFCURVE",
"205 180 OFFCURVE",
"205 80 CURVE SMOOTH",
"205 24 OFFCURVE",
"228 -5 OFFCURVE",
"267 -5 CURVE SMOOTH"
);
},
{
closed = 1;
nodes = (
"240 16 OFFCURVE",
"226 40 OFFCURVE",
"226 80 CURVE SMOOTH",
"226 173 OFFCURVE",
"282 301 OFFCURVE",
"353 301 CURVE SMOOTH",
"384 301 OFFCURVE",
"397 277 OFFCURVE",
"397 237 CURVE SMOOTH",
"397 145 OFFCURVE",
"341 16 OFFCURVE",
"269 16 CURVE SMOOTH"
);
}
);
width = 469;
},
{
associatedMasterId = "8AECA43D-4735-4071-BB51-E4BAE59DF091";
layerId = "8AE7A849-148B-48AF-AAC1-F746285ADE7E";
name = "Aug 21 20, 14:13";
paths = (
{
closed = 1;
nodes = (
"292 429 OFFCURVE",
"237 363 OFFCURVE",
"182 363 CURVE SMOOTH",
"164 363 OFFCURVE",
"148 371 OFFCURVE",
"136 386 CURVE SMOOTH",
"113 414 OFFCURVE",
"109 466 OFFCURVE",
"124 529 CURVE SMOOTH",
"147 623 OFFCURVE",
"201 689 OFFCURVE",
"255 689 CURVE SMOOTH",
"274 689 OFFCURVE",
"290 681 OFFCURVE",
"302 666 CURVE SMOOTH",
"325 638 OFFCURVE",
"329 586 OFFCURVE",
"314 524 CURVE SMOOTH"
);
},
{
closed = 1;
nodes = (
"103 -11 LINE SMOOTH",
"100 -16 OFFCURVE",
"94 -17 OFFCURVE",
"89 -15 CURVE SMOOTH",
"84 -12 OFFCURVE",
"82 -5 OFFCURVE",
"85 0 CURVE SMOOTH",
"480 699 LINE SMOOTH",
"483 704 OFFCURVE",
"489 706 OFFCURVE",
"494 703 CURVE SMOOTH",
"499 700 OFFCURVE",
"501 694 OFFCURVE",
"498 689 CURVE SMOOTH"
);
},
{
closed = 1;
nodes = (
"438 65 OFFCURVE",
"384 -1 OFFCURVE",
"329 -1 CURVE SMOOTH",
"310 -1 OFFCURVE",
"294 7 OFFCURVE",
"282 22 CURVE SMOOTH",
"260 50 OFFCURVE",
"256 103 OFFCURVE",
"271 165 CURVE SMOOTH",
"293 260 OFFCURVE",
"347 326 OFFCURVE",
"402 326 CURVE SMOOTH",
"421 326 OFFCURVE",
"437 318 OFFCURVE",
"449 303 CURVE SMOOTH",
"471 274 OFFCURVE",
"476 222 OFFCURVE",
"461 160 CURVE SMOOTH"
);
},
{
closed = 1;
nodes = (
"307 583 OFFCURVE",
"304 630 OFFCURVE",
"285 653 CURVE SMOOTH",
"278 663 OFFCURVE",
"267 668 OFFCURVE",
"255 668 CURVE SMOOTH",
"217 668 OFFCURVE",
"167 619 OFFCURVE",
"144 524 CURVE SMOOTH",
"131 468 OFFCURVE",
"134 422 OFFCURVE",
"152 399 CURVE SMOOTH",
"160 389 OFFCURVE",
"170 384 OFFCURVE",
"182 384 CURVE SMOOTH",
"219 384 OFFCURVE",
"271 435 OFFCURVE",
"294 529 CURVE SMOOTH"
);
},
{
closed = 1;
nodes = (
"454 220 OFFCURVE",
"450 266 OFFCURVE",
"432 290 CURVE SMOOTH",
"424 300 OFFCURVE",
"414 305 OFFCURVE",
"402 305 CURVE SMOOTH",
"364 305 OFFCURVE",
"314 255 OFFCURVE",
"291 160 CURVE SMOOTH",
"278 105 OFFCURVE",
"281 58 OFFCURVE",
"299 35 CURVE SMOOTH",
"307 25 OFFCURVE",
"317 20 OFFCURVE",
"329 20 CURVE SMOOTH",
"366 20 OFFCURVE",
"418 71 OFFCURVE",
"440 165 CURVE"
);
}
);
width = 493;
}
);
leftKerningGroup = percent;
rightKerningGroup = percent;
rightMetricsKey = "=|";
unicode = 0025;
},
{
glyphname = ampersand;
lastChange = "2020-10-02 15:30:27 +0000";
layers = (
{
background = {
paths = (
{
closed = 1;
nodes = (
"488 275 OFFCURVE",
"482 272 OFFCURVE",
"477 273 CURVE SMOOTH",
"471 275 OFFCURVE",
"468 281 OFFCURVE",
"469 286 CURVE SMOOTH",
"472 294 OFFCURVE",
"471 301 OFFCURVE",
"467 307 CURVE SMOOTH",
"463 312 OFFCURVE",
"456 315 OFFCURVE",
"448 315 CURVE SMOOTH",
"411 315 OFFCURVE",
"373 255 OFFCURVE",
"333 191 CURVE SMOOTH",
"324 176 OFFCURVE",
"314 160 OFFCURVE",
"304 145 CURVE",
"309 135 OFFCURVE",
"314 125 OFFCURVE",
"319 116 CURVE SMOOTH",
"349 64 OFFCURVE",
"385 31 OFFCURVE",
"425 20 CURVE SMOOTH",
"430 19 OFFCURVE",
"434 13 OFFCURVE",
"432 8 CURVE SMOOTH",
"431 2 OFFCURVE",
"425 -1 OFFCURVE",
"419 0 CURVE SMOOTH",
"374 12 OFFCURVE",
"333 49 OFFCURVE",
"301 105 CURVE",
"298 112 OFFCURVE",
"294 118 OFFCURVE",
"291 125 CURVE",
"245 58 OFFCURVE",
"191 0 OFFCURVE",
"119 0 CURVE SMOOTH",
"80 0 OFFCURVE",
"50 12 OFFCURVE",
"32 35 CURVE SMOOTH",
"12 61 OFFCURVE",
"9 99 OFFCURVE",
"21 144 CURVE SMOOTH",
"49 244 OFFCURVE",
"141 315 OFFCURVE",
"230 384 CURVE SMOOTH",
"236 389 LINE",
"237 449 OFFCURVE",
"245 509 OFFCURVE",
"261 566 CURVE SMOOTH",
"287 658 OFFCURVE",
"352 702 OFFCURVE",
"397 689 CURVE SMOOTH",
"425 681 OFFCURVE",
"451 648 OFFCURVE",
"432 580 CURVE SMOOTH",
"410 501 OFFCURVE",
"337 441 OFFCURVE",
"257 379 CURVE",
"258 304 OFFCURVE",
"270 230 OFFCURVE",
"295 168 CURVE",
"302 180 OFFCURVE",
"309 191 OFFCURVE",
"316 202 CURVE SMOOTH",
"360 274 OFFCURVE",
"399 336 OFFCURVE",
"448 336 CURVE SMOOTH",
"463 336 OFFCURVE",
"475 330 OFFCURVE",
"483 319 CURVE SMOOTH",
"491 309 OFFCURVE",
"494 295 OFFCURVE",
"490 281 CURVE SMOOTH"
);
},
{
closed = 1;
nodes = (
"424 630 OFFCURVE",
"416 662 OFFCURVE",
"391 669 CURVE SMOOTH",
"360 678 OFFCURVE",
"305 645 OFFCURVE",
"281 560 CURVE SMOOTH",
"267 511 OFFCURVE",
"259 458 OFFCURVE",
"258 406 CURVE",
"329 462 OFFCURVE",
"393 517 OFFCURVE",
"412 586 CURVE SMOOTH"
);
},
{
closed = 1;
nodes = (
"254 210 OFFCURVE",
"239 285 OFFCURVE",
"237 363 CURVE",
"152 297 OFFCURVE",
"67 229 OFFCURVE",
"42 138 CURVE SMOOTH",
"31 100 OFFCURVE",
"33 69 OFFCURVE",
"49 48 CURVE SMOOTH",
"63 30 OFFCURVE",
"86 21 OFFCURVE",
"119 21 CURVE SMOOTH",
"185 21 OFFCURVE",
"236 80 OFFCURVE",
"281 147 CURVE"
);
}
);
};
layerId = "8AECA43D-4735-4071-BB51-E4BAE59DF091";
paths = (
{
closed = 1;
nodes = (
"235 216 OFFCURVE",
"235 399 CURVE SMOOTH",
"235 552 OFFCURVE",
"287 674 OFFCURVE",
"353 674 CURVE SMOOTH",
"379 674 OFFCURVE",
"392 652 OFFCURVE",
"392 615 CURVE SMOOTH",
"392 529 OFFCURVE",
"317 438 OFFCURVE",
"228 385 CURVE SMOOTH",
"145 336 OFFCURVE",
"13 241 OFFCURVE",
"13 111 CURVE SMOOTH",
"13 47 OFFCURVE",
"47 -5 OFFCURVE",
"117 -5 CURVE SMOOTH",
"208 -5 OFFCURVE",
"273 76 OFFCURVE",
"335 201 CURVE SMOOTH",
"367 266 OFFCURVE",
"399 328 OFFCURVE",
"443 328 CURVE SMOOTH",
"461 328 OFFCURVE",
"470 316 OFFCURVE",
"470 298 CURVE SMOOTH",
"470 289 OFFCURVE",
"472 285 OFFCURVE",
"480 285 CURVE SMOOTH",
"488 285 OFFCURVE",
"491 290 OFFCURVE",
"491 302 CURVE SMOOTH",
"491 330 OFFCURVE",
"474 349 OFFCURVE",
"445 349 CURVE SMOOTH",
"389 349 OFFCURVE",
"354 284 OFFCURVE",
"316 208 CURVE SMOOTH",
"252 81 OFFCURVE",
"195 16 OFFCURVE",
"120 16 CURVE SMOOTH",
"58 16 OFFCURVE",
"35 58 OFFCURVE",
"35 113 CURVE SMOOTH",
"35 232 OFFCURVE",
"157 318 OFFCURVE",
"241 369 CURVE SMOOTH",
"325 420 OFFCURVE",
"414 518 OFFCURVE",
"414 618 CURVE SMOOTH",
"414 671 OFFCURVE",
"388 695 OFFCURVE",
"355 695 CURVE SMOOTH",
"275 695 OFFCURVE",
"214 567 OFFCURVE",
"214 395 CURVE SMOOTH",
"214 207 OFFCURVE",
"286 0 OFFCURVE",
"420 0 CURVE SMOOTH",
"429 0 OFFCURVE",
"434 3 OFFCURVE",
"434 11 CURVE SMOOTH",
"434 17 OFFCURVE",
"431 20 OFFCURVE",
"424 20 CURVE SMOOTH",
"301 20 OFFCURVE"
);
}
);
width = 526;
},
{
associatedMasterId = "8AECA43D-4735-4071-BB51-E4BAE59DF091";
layerId = "BEA1BA30-65A9-4BE7-A8F4-B13340B109A0";
name = "Aug 21 20, 14:25";
paths = (
{
closed = 1;
nodes = (
"504 275 OFFCURVE",
"498 272 OFFCURVE",
"493 273 CURVE SMOOTH",
"487 275 OFFCURVE",
"484 281 OFFCURVE",
"485 286 CURVE SMOOTH",
"488 294 OFFCURVE",
"487 301 OFFCURVE",
"483 307 CURVE SMOOTH",
"479 312 OFFCURVE",
"472 315 OFFCURVE",
"464 315 CURVE SMOOTH",
"427 315 OFFCURVE",
"389 255 OFFCURVE",
"349 191 CURVE SMOOTH",
"340 176 OFFCURVE",
"330 160 OFFCURVE",
"320 145 CURVE",
"325 135 OFFCURVE",
"330 125 OFFCURVE",
"335 116 CURVE SMOOTH",
"365 64 OFFCURVE",
"401 31 OFFCURVE",
"441 20 CURVE SMOOTH",
"446 19 OFFCURVE",
"450 13 OFFCURVE",
"448 8 CURVE SMOOTH",
"447 2 OFFCURVE",
"441 -1 OFFCURVE",
"435 0 CURVE SMOOTH",
"390 12 OFFCURVE",
"349 49 OFFCURVE",
"317 105 CURVE",
"314 112 OFFCURVE",
"310 118 OFFCURVE",
"307 125 CURVE",
"261 58 OFFCURVE",
"207 0 OFFCURVE",
"135 0 CURVE SMOOTH",
"96 0 OFFCURVE",
"66 12 OFFCURVE",
"48 35 CURVE SMOOTH",
"28 61 OFFCURVE",
"25 99 OFFCURVE",
"37 144 CURVE SMOOTH",
"65 244 OFFCURVE",
"157 315 OFFCURVE",
"246 384 CURVE SMOOTH",
"252 389 LINE",
"253 449 OFFCURVE",
"261 509 OFFCURVE",
"277 566 CURVE SMOOTH",
"303 658 OFFCURVE",
"368 702 OFFCURVE",
"413 689 CURVE SMOOTH",
"441 681 OFFCURVE",
"467 648 OFFCURVE",
"448 580 CURVE SMOOTH",
"426 501 OFFCURVE",
"353 441 OFFCURVE",
"273 379 CURVE",
"274 304 OFFCURVE",
"286 230 OFFCURVE",
"311 168 CURVE",
"318 180 OFFCURVE",
"325 191 OFFCURVE",
"332 202 CURVE SMOOTH",
"376 274 OFFCURVE",
"415 336 OFFCURVE",
"464 336 CURVE SMOOTH",
"479 336 OFFCURVE",
"491 330 OFFCURVE",
"499 319 CURVE SMOOTH",
"507 309 OFFCURVE",
"510 295 OFFCURVE",
"506 281 CURVE SMOOTH"
);
},
{
closed = 1;
nodes = (
"440 630 OFFCURVE",
"432 662 OFFCURVE",
"407 669 CURVE SMOOTH",
"376 678 OFFCURVE",
"321 645 OFFCURVE",
"297 560 CURVE SMOOTH",
"283 511 OFFCURVE",
"275 458 OFFCURVE",
"274 406 CURVE",
"345 462 OFFCURVE",
"409 517 OFFCURVE",
"428 586 CURVE SMOOTH"
);
},
{
closed = 1;
nodes = (
"270 210 OFFCURVE",
"255 285 OFFCURVE",
"253 363 CURVE",
"168 297 OFFCURVE",
"83 229 OFFCURVE",
"58 138 CURVE SMOOTH",
"47 100 OFFCURVE",
"49 69 OFFCURVE",
"65 48 CURVE SMOOTH",
"79 30 OFFCURVE",
"102 21 OFFCURVE",
"135 21 CURVE SMOOTH",
"201 21 OFFCURVE",
"252 80 OFFCURVE",
"297 147 CURVE"
);
}
);
width = 496;
}
);
leftKerningGroup = ampersand;
rightKerningGroup = ampersand;
unicode = 0026;
},
{
glyphname = quotesingle;
lastChange = "2020-10-02 15:14:38 +0000";
layers = (
{
background = {
paths = (
{
closed = 1;
nodes = (
"192 685 OFFCURVE",
"189 690 OFFCURVE",
"182 690 CURVE SMOOTH",
"176 690 OFFCURVE",
"171 685 OFFCURVE",
"169 679 CURVE SMOOTH",
"124 512 LINE SMOOTH",
"122 506 OFFCURVE",
"126 501 OFFCURVE",
"131 501 CURVE SMOOTH",
"138 501 OFFCURVE",
"143 506 OFFCURVE",
"145 512 CURVE SMOOTH",
"190 679 LINE SMOOTH"
);
}
);
};
layerId = "8AECA43D-4735-4071-BB51-E4BAE59DF091";
paths = (
{
closed = 1;
nodes = (
"192 686 OFFCURVE",
"186 690 OFFCURVE",
"180 690 CURVE SMOOTH",
"173 690 OFFCURVE",
"171 687 OFFCURVE",
"169 680 CURVE SMOOTH",
"124 513 LINE SMOOTH",
"122 505 OFFCURVE",
"128 501 OFFCURVE",
"134 501 CURVE SMOOTH",
"141 501 OFFCURVE",
"143 504 OFFCURVE",
"145 511 CURVE SMOOTH",
"190 678 LINE SMOOTH"
);
}
);
width = 122;
}
);
leftKerningGroup = quoteleft;
rightKerningGroup = quoteleft;
rightMetricsKey = "=|";
unicode = 0027;
},
{
glyphname = parenleft;
lastChange = "2020-10-02 15:14:38 +0000";
layers = (
{
background = {
paths = (
{
closed = 1;
nodes = (
"93 371 OFFCURVE",
"218 600 OFFCURVE",
"334 729 CURVE SMOOTH",
"340 736 OFFCURVE",
"338 748 OFFCURVE",
"328 748 CURVE SMOOTH",
"324 748 OFFCURVE",
"321 746 OFFCURVE",
"318 743 CURVE SMOOTH",
"200 612 OFFCURVE",
"71 373 OFFCURVE",
"71 141 CURVE SMOOTH",
"71 71 OFFCURVE",
"83 -2 OFFCURVE",
"103 -58 CURVE SMOOTH",
"104 -61 OFFCURVE",
"107 -64 OFFCURVE",
"113 -64 CURVE SMOOTH",
"122 -64 OFFCURVE",
"125 -55 OFFCURVE",
"122 -48 CURVE SMOOTH",
"102 8 OFFCURVE",
"93 74 OFFCURVE",
"93 148 CURVE SMOOTH"
);
}
);
};
layerId = "8AECA43D-4735-4071-BB51-E4BAE59DF091";
paths = (
{
closed = 1;
nodes = (
"92 388 OFFCURVE",
"224 606 OFFCURVE",
"334 729 CURVE SMOOTH",
"340 736 OFFCURVE",
"338 748 OFFCURVE",
"328 748 CURVE SMOOTH",
"324 748 OFFCURVE",
"321 746 OFFCURVE",
"318 743 CURVE SMOOTH",
"201 613 OFFCURVE",
"71 386 OFFCURVE",
"71 151 CURVE SMOOTH",
"71 77 OFFCURVE",
"83 -2 OFFCURVE",
"103 -58 CURVE SMOOTH",
"104 -61 OFFCURVE",
"107 -64 OFFCURVE",
"113 -64 CURVE SMOOTH",
"122 -64 OFFCURVE",
"125 -55 OFFCURVE",
"122 -48 CURVE SMOOTH",
"101 11 OFFCURVE",
"92 88 OFFCURVE",
"92 151 CURVE SMOOTH"
);
}
);
width = 234;
}
);
leftKerningGroup = parenleft;
rightKerningGroup = parenleft;
unicode = 0028;
},
{
glyphname = asterisk;
lastChange = "2020-10-02 15:14:38 +0000";
layers = (
{
background = {
paths = (
{
closed = 1;
nodes = (
"237 572 LINE SMOOTH",
"235 566 OFFCURVE",
"240 561 OFFCURVE",
"245 561 CURVE SMOOTH",
"251 561 OFFCURVE",
"256 566 OFFCURVE",
"258 572 CURVE SMOOTH",
"285 679 LINE SMOOTH",
"287 685 OFFCURVE",
"283 690 OFFCURVE",
"278 690 CURVE SMOOTH",
"271 690 OFFCURVE",
"266 685 OFFCURVE",
"264 679 CURVE SMOOTH"
);
},
{
closed = 1;
nodes = (
"236 558 LINE SMOOTH",
"241 556 OFFCURVE",
"247 558 OFFCURVE",
"251 564 CURVE SMOOTH",
"255 571 OFFCURVE",
"252 573 OFFCURVE",
"247 575 CURVE SMOOTH",
"155 609 LINE SMOOTH",
"148 612 OFFCURVE",
"137 609 OFFCURVE",
"137 599 CURVE SMOOTH",
"137 595 OFFCURVE",
"140 592 OFFCURVE",
"143 591 CURVE SMOOTH"
);
},
{
closed = 1;
nodes = (
"362 590 OFFCURVE",
"371 596 OFFCURVE",
"371 605 CURVE SMOOTH",
"371 609 OFFCURVE",
"368 614 OFFCURVE",
"358 611 CURVE SMOOTH",
"248 575 LINE SMOOTH",
"241 573 OFFCURVE",
"237 568 OFFCURVE",
"237 563 CURVE SMOOTH",
"237 556 OFFCURVE",
"242 552 OFFCURVE",
"249 554 CURVE SMOOTH",
"359 589 LINE SMOOTH"
);
},
{
closed = 1;
nodes = (
"251 557 LINE SMOOTH",
"255 561 OFFCURVE",
"256 569 OFFCURVE",
"251 573 CURVE SMOOTH",
"247 577 OFFCURVE",
"242 575 OFFCURVE",
"235 569 CURVE SMOOTH",
"149 484 LINE SMOOTH",
"140 475 OFFCURVE",
"143 466 OFFCURVE",
"151 466 CURVE SMOOTH",
"155 466 OFFCURVE",
"162 467 OFFCURVE",
"166 471 CURVE SMOOTH"
);
},
{
closed = 1;
nodes = (
"281 468 OFFCURVE",
"280 466 OFFCURVE",
"284 466 CURVE SMOOTH",
"292 466 OFFCURVE",
"300 476 OFFCURVE",
"296 484 CURVE SMOOTH",
"256 569 LINE SMOOTH",
"253 575 OFFCURVE",
"249 577 OFFCURVE",
"242 573 CURVE SMOOTH",
"233 567 OFFCURVE",
"237 563 OFFCURVE",
"239 558 CURVE SMOOTH",
"279 472 LINE SMOOTH"
);
}
);
};
layerId = "8AECA43D-4735-4071-BB51-E4BAE59DF091";
paths = (
{
closed = 1;
nodes = (
"137 595 OFFCURVE",
"140 592 OFFCURVE",
"145 590 CURVE SMOOTH",
"227 561 LINE",
"149 484 LINE SMOOTH",
"140 475 OFFCURVE",
"146 466 OFFCURVE",
"154 466 CURVE SMOOTH",
"158 466 OFFCURVE",
"161 467 OFFCURVE",
"165 471 CURVE SMOOTH",
"243 549 LINE",
"279 472 LINE SMOOTH",
"281 468 OFFCURVE",
"283 466 OFFCURVE",
"288 466 CURVE SMOOTH",
"298 466 OFFCURVE",
"300 476 OFFCURVE",
"296 484 CURVE SMOOTH",
"261 558 LINE",
"359 590 LINE SMOOTH",
"367 593 OFFCURVE",
"371 596 OFFCURVE",
"371 603 CURVE SMOOTH",
"371 609 OFFCURVE",
"367 614 OFFCURVE",
"355 610 CURVE SMOOTH",
"260 579 LINE",
"285 679 LINE SMOOTH",
"287 686 OFFCURVE",
"282 690 OFFCURVE",
"276 690 CURVE SMOOTH",
"270 690 OFFCURVE",
"266 687 OFFCURVE",
"264 679 CURVE SMOOTH",
"239 578 LINE",
"155 609 LINE SMOOTH",
"146 612 OFFCURVE",
"137 610 OFFCURVE",
"137 600 CURVE SMOOTH"
);
}
);
width = 314;
},
{
associatedMasterId = "8AECA43D-4735-4071-BB51-E4BAE59DF091";
layerId = "0F4C8FEF-7A2D-482E-940C-D5D69E69BD7D";
name = "Aug 21 20, 14:37";
paths = (
{
closed = 1;
nodes = (
"201 594 OFFCURVE",
"204 592 OFFCURVE",
"207 591 CURVE SMOOTH",
"290 561 LINE",
"213 484 LINE SMOOTH",
"204 475 OFFCURVE",
"207 466 OFFCURVE",
"215 466 CURVE SMOOTH",
"219 466 OFFCURVE",
"224 468 OFFCURVE",
"228 472 CURVE SMOOTH",
"304 549 LINE",
"339 472 LINE SMOOTH",
"341 468 OFFCURVE",
"344 466 OFFCURVE",
"348 466 CURVE SMOOTH",
"356 466 OFFCURVE",
"364 476 OFFCURVE",
"360 484 CURVE SMOOTH",
"323 561 LINE",
"423 591 LINE SMOOTH",
"426 592 OFFCURVE",
"435 596 OFFCURVE",
"435 605 CURVE SMOOTH",
"435 609 OFFCURVE",
"432 614 OFFCURVE",
"422 611 CURVE SMOOTH",
"323 580 LINE",
"349 679 LINE SMOOTH",
"351 685 OFFCURVE",
"347 690 OFFCURVE",
"341 690 CURVE SMOOTH",
"335 690 OFFCURVE",
"330 685 OFFCURVE",
"328 679 CURVE SMOOTH",
"302 580 LINE",
"219 611 LINE SMOOTH",
"212 614 OFFCURVE",
"201 609 OFFCURVE",
"201 599 CURVE SMOOTH"
);
}
);
width = 263;
}
);
leftKerningGroup = quoteleft;
rightKerningGroup = quoteleft;
rightMetricsKey = "=|";
unicode = 002A;
},
{
glyphname = plus;
lastChange = "2020-10-02 15:14:38 +0000";
layers = (
{
background = {
paths = (
{
closed = 1;
nodes = (
"363 473 OFFCURVE",
"358 477 OFFCURVE",
"352 477 CURVE SMOOTH",
"346 477 OFFCURVE",
"342 473 OFFCURVE",
"340 467 CURVE SMOOTH",
"217 10 LINE SMOOTH",
"215 4 OFFCURVE",
"220 0 OFFCURVE",
"225 0 CURVE SMOOTH",
"232 0 OFFCURVE",
"236 4 OFFCURVE",
"238 10 CURVE SMOOTH",
"361 467 LINE SMOOTH"
);
},
{
closed = 1;
nodes = (
"522 228 OFFCURVE",
"528 235 OFFCURVE",
"528 242 CURVE SMOOTH",
"528 247 OFFCURVE",
"524 249 OFFCURVE",
"520 249 CURVE SMOOTH",
"63 249 LINE SMOOTH",
"56 249 OFFCURVE",
"50 242 OFFCURVE",
"50 235 CURVE SMOOTH",
"50 230 OFFCURVE",
"54 228 OFFCURVE",
"58 228 CURVE SMOOTH",
"515 228 LINE SMOOTH"
);
}
);
};
layerId = "8AECA43D-4735-4071-BB51-E4BAE59DF091";
paths = (
{
closed = 1;
nodes = (
"363 473 OFFCURVE",
"357 477 OFFCURVE",
"351 477 CURVE SMOOTH",
"344 477 OFFCURVE",
"342 474 OFFCURVE",
"340 467 CURVE SMOOTH",
"217 12 LINE SMOOTH",
"215 4 OFFCURVE",
"221 0 OFFCURVE",
"227 0 CURVE SMOOTH",
"234 0 OFFCURVE",
"236 3 OFFCURVE",
"238 10 CURVE SMOOTH",
"361 465 LINE SMOOTH"
);
},
{
closed = 1;
nodes = (
"528 245 OFFCURVE",
"524 249 OFFCURVE",
"519 249 CURVE SMOOTH",
"62 249 LINE SMOOTH",
"55 249 OFFCURVE",
"50 244 OFFCURVE",
"50 237 CURVE SMOOTH",
"50 232 OFFCURVE",
"54 228 OFFCURVE",
"59 228 CURVE SMOOTH",
"516 228 LINE SMOOTH",
"523 228 OFFCURVE",
"528 233 OFFCURVE",
"528 240 CURVE SMOOTH"
);
}
);
width = 578;
}
);
leftKerningGroup = hyphen;
rightKerningGroup = hyphen;
rightMetricsKey = "=|";
unicode = 002B;
},
{
glyphname = hyphen;
lastChange = "2020-10-02 15:14:38 +0000";
layers = (
{
background = {
paths = (
{
closed = 1;
nodes = (
"54 283 OFFCURVE",
"57 279 OFFCURVE",
"62 279 CURVE SMOOTH",
"249 279 LINE SMOOTH",
"256 279 OFFCURVE",
"261 284 OFFCURVE",
"261 291 CURVE SMOOTH",
"261 296 OFFCURVE",
"257 300 OFFCURVE",
"253 300 CURVE SMOOTH",
"65 300 LINE SMOOTH",
"58 300 OFFCURVE",
"54 294 OFFCURVE",
"54 287 CURVE SMOOTH"
);
}
);
};
layerId = "8AECA43D-4735-4071-BB51-E4BAE59DF091";
paths = (
{
closed = 1;
nodes = (
"261 296 OFFCURVE",
"257 300 OFFCURVE",
"252 300 CURVE SMOOTH",
"66 300 LINE SMOOTH",
"59 300 OFFCURVE",
"54 295 OFFCURVE",
"54 288 CURVE SMOOTH",
"54 283 OFFCURVE",
"58 279 OFFCURVE",
"63 279 CURVE SMOOTH",
"249 279 LINE SMOOTH",
"256 279 OFFCURVE",
"261 284 OFFCURVE",
"261 291 CURVE SMOOTH"
);
}
);
width = 287;
},
{
associatedMasterId = "8AECA43D-4735-4071-BB51-E4BAE59DF091";
layerId = "825091BD-65CC-41D1-BAD2-891E9E80BC97";
name = "Aug 15 20, 12:37";
paths = (
{
closed = 1;
nodes = (
"246 232 OFFCURVE",
"242 228 OFFCURVE",
"236 228 CURVE SMOOTH",
"50 228 LINE SMOOTH",
"45 228 OFFCURVE",
"40 232 OFFCURVE",
"40 238 CURVE SMOOTH",
"40 244 OFFCURVE",
"45 249 OFFCURVE",
"50 249 CURVE SMOOTH",
"236 249 LINE SMOOTH",
"242 249 OFFCURVE",
"246 244 OFFCURVE",
"246 238 CURVE SMOOTH"
);
}
);
width = 256;
}
);
leftKerningGroup = hyphen;
rightKerningGroup = hyphen;
rightMetricsKey = "=|";
unicode = 002D;
},
{
glyphname = period;
lastChange = "2020-10-02 15:14:38 +0000";
layers = (
{
background = {
paths = (
{
closed = 1;
nodes = (
"39 5 OFFCURVE",
"32 0 OFFCURVE",
"26 0 CURVE SMOOTH",
"20 0 OFFCURVE",
"18 5 OFFCURVE",
"19 10 CURVE SMOOTH",
"41 91 LINE SMOOTH",
"43 97 OFFCURVE",
"46 101 OFFCURVE",
"53 101 CURVE SMOOTH",
"59 101 OFFCURVE",
"64 97 OFFCURVE",
"62 91 CURVE SMOOTH",
"40 10 LINE SMOOTH"
);
}
);
};
layerId = "8AECA43D-4735-4071-BB51-E4BAE59DF091";
paths = (
{
closed = 1;
nodes = (
"64 97 OFFCURVE",
"58 101 OFFCURVE",
"52 101 CURVE SMOOTH",
"45 101 OFFCURVE",
"43 98 OFFCURVE",
"41 91 CURVE SMOOTH",
"19 12 LINE SMOOTH",
"17 4 OFFCURVE",
"23 0 OFFCURVE",
"29 0 CURVE SMOOTH",
"36 0 OFFCURVE",
"38 3 OFFCURVE",
"40 10 CURVE SMOOTH",
"62 89 LINE SMOOTH"
);
}
);
width = 182;
}
);
leftKerningGroup = period;
rightKerningGroup = period;
rightMetricsKey = "=|";
unicode = 002E;
},
{
glyphname = slash;
lastChange = "2020-10-09 14:51:36 +0000";
layers = (
{
background = {
paths = (
{
closed = 1;
nodes = (
"-72 -51 LINE SMOOTH",
"-77 -60 OFFCURVE",
"-70 -65 OFFCURVE",
"-63 -65 CURVE SMOOTH",
"-59 -65 OFFCURVE",
"-55 -63 OFFCURVE",
"-52 -57 CURVE SMOOTH",
"348 735 LINE SMOOTH",
"352 744 OFFCURVE",
"345 749 OFFCURVE",
"339 749 CURVE SMOOTH",
"335 749 OFFCURVE",
"331 747 OFFCURVE",
"328 741 CURVE SMOOTH"
);
}
);
};
layerId = "8AECA43D-4735-4071-BB51-E4BAE59DF091";
paths = (
{
closed = 1;
nodes = (
"-72 -51 LINE SMOOTH",
"-77 -60 OFFCURVE",
"-70 -65 OFFCURVE",
"-63 -65 CURVE SMOOTH",
"-58 -65 OFFCURVE",
"-54 -63 OFFCURVE",
"-51 -57 CURVE SMOOTH",
"398 735 LINE SMOOTH",
"403 744 OFFCURVE",
"395 749 OFFCURVE",
"389 749 CURVE SMOOTH",
"384 749 OFFCURVE",
"380 747 OFFCURVE",
"377 741 CURVE SMOOTH"
);
}
);
width = 270;
}
);
leftKerningGroup = slash;
rightKerningGroup = slash;
rightMetricsKey = "=|";
unicode = 002F;
},
{
color = 4;
glyphname = zero;
lastChange = "2020-10-02 15:14:38 +0000";
layers = (
{
background = {
paths = (
{
closed = 1;
nodes = (
"189 695 OFFCURVE",
"41 378 OFFCURVE",
"41 153 CURVE SMOOTH",
"41 46 OFFCURVE",
"75 -5 OFFCURVE",
"128 -5 CURVE SMOOTH",
"260 -5 OFFCURVE",
"405 312 OFFCURVE",
"405 537 CURVE SMOOTH",
"405 645 OFFCURVE",
"371 695 OFFCURVE",
"315 695 CURVE SMOOTH"
);
},
{
closed = 1;
nodes = (
"363 674 OFFCURVE",
"382 622 OFFCURVE",
"382 537 CURVE SMOOTH",
"382 315 OFFCURVE",
"243 16 OFFCURVE",
"129 16 CURVE SMOOTH",
"86 16 OFFCURVE",
"63 65 OFFCURVE",
"63 153 CURVE SMOOTH",
"63 374 OFFCURVE",
"204 674 OFFCURVE",
"311 674 CURVE SMOOTH"
);
}
);
};
layerId = "8AECA43D-4735-4071-BB51-E4BAE59DF091";
paths = (
{
closed = 1;
nodes = (
"260 -5 OFFCURVE",
"405 312 OFFCURVE",
"405 537 CURVE SMOOTH",
"405 644 OFFCURVE",
"371 695 OFFCURVE",
"318 695 CURVE SMOOTH",
"186 695 OFFCURVE",
"41 378 OFFCURVE",
"41 153 CURVE SMOOTH",
"41 45 OFFCURVE",
"75 -5 OFFCURVE",
"127 -5 CURVE SMOOTH"
);
},
{
closed = 1;
nodes = (
"86 16 OFFCURVE",
"64 68 OFFCURVE",
"64 153 CURVE SMOOTH",
"64 375 OFFCURVE",
"203 674 OFFCURVE",
"317 674 CURVE SMOOTH",
"360 674 OFFCURVE",
"383 625 OFFCURVE",
"383 537 CURVE SMOOTH",
"383 316 OFFCURVE",
"242 16 OFFCURVE",
"130 16 CURVE SMOOTH"
);
}
);
width = 388;
},
{
associatedMasterId = "8AECA43D-4735-4071-BB51-E4BAE59DF091";
layerId = "127B1AE5-0CE7-455F-9272-7847454E293C";
name = "Aug 21 20, 12:58";
paths = (
{
closed = 1;
nodes = (
"430 598 OFFCURVE",
"429 492 OFFCURVE",
"387 336 CURVE SMOOTH",
"330 123 OFFCURVE",
"242 -1 OFFCURVE",
"151 -1 CURVE SMOOTH",
"126 -1 OFFCURVE",
"104 10 OFFCURVE",
"89 30 CURVE SMOOTH",
"50 81 OFFCURVE",
"50 186 OFFCURVE",
"92 342 CURVE SMOOTH",
"149 555 OFFCURVE",
"237 679 OFFCURVE",
"328 679 CURVE SMOOTH",
"354 679 OFFCURVE",
"375 669 OFFCURVE",
"391 649 CURVE SMOOTH"
);
},
{
closed = 1;
nodes = (
"363 651 OFFCURVE",
"348 658 OFFCURVE",
"328 658 CURVE SMOOTH",
"248 658 OFFCURVE",
"166 537 OFFCURVE",
"112 336 CURVE SMOOTH",
"73 189 OFFCURVE",
"71 87 OFFCURVE",
"105 42 CURVE SMOOTH",
"117 27 OFFCURVE",
"132 20 OFFCURVE",
"151 20 CURVE SMOOTH",
"231 20 OFFCURVE",
"313 141 OFFCURVE",
"367 342 CURVE SMOOTH",
"406 489 OFFCURVE",
"408 591 OFFCURVE",
"374 636 CURVE SMOOTH"
);
}
);
width = 379;
}
);
leftKerningGroup = zero;
rightKerningGroup = zero;
rightMetricsKey = "=|";
unicode = 0030;
},
{
color = 4;
glyphname = one;
lastChange = "2020-10-02 15:14:38 +0000";
layers = (
{
background = {
paths = (
{
closed = 1;
nodes = (
"222 0 OFFCURVE",
"228 7 OFFCURVE",
"228 14 CURVE SMOOTH",
"228 19 OFFCURVE",
"224 21 OFFCURVE",
"220 21 CURVE SMOOTH",
"-23 21 LINE SMOOTH",
"-30 21 OFFCURVE",
"-36 14 OFFCURVE",
"-36 7 CURVE SMOOTH",
"-36 2 OFFCURVE",
"-32 0 OFFCURVE",
"-28 0 CURVE SMOOTH",
"215 0 LINE SMOOTH"
);
},
{
closed = 1;
nodes = (
"152 645 LINE SMOOTH",
"146 643 OFFCURVE",
"142 636 OFFCURVE",
"142 632 CURVE SMOOTH",
"142 626 OFFCURVE",
"147 622 OFFCURVE",
"154 625 CURVE SMOOTH",
"267 667 LINE",
"265 680 LINE",
"85 10 LINE SMOOTH",
"83 4 OFFCURVE",
"88 0 OFFCURVE",
"93 0 CURVE SMOOTH",
"101 0 OFFCURVE",
"104 4 OFFCURVE",
"106 10 CURVE SMOOTH",
"286 680 LINE SMOOTH",
"288 686 OFFCURVE",
"283 690 OFFCURVE",
"280 690 CURVE SMOOTH",
"276 690 OFFCURVE",
"271 688 OFFCURVE",
"260 684 CURVE SMOOTH"
);
}
);
};
layerId = "8AECA43D-4735-4071-BB51-E4BAE59DF091";
paths = (
{
closed = 1;
nodes = (
"228 17 OFFCURVE",
"224 21 OFFCURVE",
"219 21 CURVE SMOOTH",
"-24 21 LINE SMOOTH",
"-31 21 OFFCURVE",
"-36 16 OFFCURVE",
"-36 9 CURVE SMOOTH",
"-36 4 OFFCURVE",
"-32 0 OFFCURVE",
"-27 0 CURVE SMOOTH",
"216 0 LINE SMOOTH",
"223 0 OFFCURVE",
"228 5 OFFCURVE",
"228 12 CURVE SMOOTH"
);
},
{
closed = 1;
nodes = (
"83 4 OFFCURVE",
"89 0 OFFCURVE",
"95 0 CURVE SMOOTH",
"102 0 OFFCURVE",
"104 3 OFFCURVE",
"106 10 CURVE SMOOTH",
"286 678 LINE SMOOTH",
"288 686 OFFCURVE",
"285 690 OFFCURVE",
"278 690 CURVE SMOOTH",
"275 690 OFFCURVE",
"271 689 OFFCURVE",
"259 685 CURVE SMOOTH",
"148 645 LINE SMOOTH",
"142 643 OFFCURVE",
"140 639 OFFCURVE",
"140 634 CURVE SMOOTH",
"140 629 OFFCURVE",
"145 622 OFFCURVE",
"154 625 CURVE SMOOTH",
"272 669 LINE",
"263 673 LINE",
"85 12 LINE SMOOTH"
);
}
);
width = 304;
},
{
associatedMasterId = "8AECA43D-4735-4071-BB51-E4BAE59DF091";
layerId = "0E7F3BC2-00E1-44C0-99AC-611C9EEEB666";
name = "Aug 21 20, 13:01";
paths = (
{
closed = 1;
nodes = (
"146 32 LINE",
"254 32 LINE SMOOTH",
"260 32 OFFCURVE",
"265 27 OFFCURVE",
"265 21 CURVE SMOOTH",
"265 16 OFFCURVE",
"260 11 OFFCURVE",
"254 11 CURVE SMOOTH",
"10 11 LINE SMOOTH",
"5 11 OFFCURVE",
"0 16 OFFCURVE",
"0 21 CURVE SMOOTH",
"0 27 OFFCURVE",
"10 32 OFFCURVE",
"10 32 CURVE",
"124 32 LINE",
"290 653 LINE",
"189 625 LINE SMOOTH",
"184 623 OFFCURVE",
"178 626 OFFCURVE",
"176 632 CURVE SMOOTH",
"175 637 OFFCURVE",
"178 643 OFFCURVE",
"184 645 CURVE SMOOTH",
"302 678 LINE SMOOTH",
"306 679 OFFCURVE",
"310 678 OFFCURVE",
"312 676 CURVE SMOOTH",
"315 673 OFFCURVE",
"316 669 OFFCURVE",
"315 665 CURVE SMOOTH"
);
}
);
width = 315;
}
);
leftKerningGroup = one;
rightKerningGroup = one;
unicode = 0031;
},
{
color = 4;
glyphname = two;
lastChange = "2020-10-02 15:28:27 +0000";
layers = (
{
background = {
paths = (
{
closed = 1;
nodes = (
"-40 3 OFFCURVE",
"-36 0 OFFCURVE",
"-31 0 CURVE SMOOTH",
"247 0 LINE SMOOTH",
"254 0 OFFCURVE",
"259 5 OFFCURVE",
"259 12 CURVE SMOOTH",
"259 17 OFFCURVE",
"255 21 OFFCURVE",
"250 21 CURVE SMOOTH",
"-28 21 LINE",
"-21 10 LINE",
"2 95 OFFCURVE",
"89 187 OFFCURVE",
"184 262 CURVE SMOOTH",
"231 299 LINE SMOOTH",
"344 388 OFFCURVE",
"382 485 OFFCURVE",
"382 584 CURVE SMOOTH",
"382 654 OFFCURVE",
"338 695 OFFCURVE",
"278 695 CURVE SMOOTH",
"219 695 OFFCURVE",
"166 655 OFFCURVE",
"132 598 CURVE",
"152 589 LINE",
"182 641 OFFCURVE",
"226 674 OFFCURVE",
"278 674 CURVE SMOOTH",
"326 674 OFFCURVE",
"361 644 OFFCURVE",
"361 583 CURVE SMOOTH",
"361 490 OFFCURVE",
"323 393 OFFCURVE",
"212 309 CURVE SMOOTH",
"171 278 LINE SMOOTH",
"37 177 OFFCURVE",
"-40 57 OFFCURVE",
"-40 8 CURVE SMOOTH"
);
}
);
};
layerId = "8AECA43D-4735-4071-BB51-E4BAE59DF091";
paths = (
{
closed = 1;
nodes = (
"180 641 OFFCURVE",
"220 674 OFFCURVE",
"276 674 CURVE SMOOTH",
"320 674 OFFCURVE",
"361 654 OFFCURVE",
"361 573 CURVE SMOOTH",
"361 500 OFFCURVE",
"323 393 OFFCURVE",
"212 309 CURVE SMOOTH",
"171 278 LINE SMOOTH",
"37 177 OFFCURVE",
"-40 57 OFFCURVE",
"-40 8 CURVE SMOOTH",
"-40 3 OFFCURVE",
"-36 0 OFFCURVE",
"-31 0 CURVE SMOOTH",
"247 0 LINE SMOOTH",
"254 0 OFFCURVE",
"259 5 OFFCURVE",
"259 12 CURVE SMOOTH",
"259 17 OFFCURVE",
"255 21 OFFCURVE",
"250 21 CURVE SMOOTH",
"-28 21 LINE",
"-21 10 LINE",
"2 95 OFFCURVE",
"89 187 OFFCURVE",
"184 262 CURVE SMOOTH",
"231 299 LINE SMOOTH",
"344 388 OFFCURVE",
"382 495 OFFCURVE",
"382 574 CURVE SMOOTH",
"382 664 OFFCURVE",
"332 695 OFFCURVE",
"276 695 CURVE SMOOTH",
"213 695 OFFCURVE",
"164 655 OFFCURVE",
"132 598 CURVE SMOOTH",
"128 591 OFFCURVE",
"135 583 OFFCURVE",
"142 583 CURVE SMOOTH",
"147 583 OFFCURVE",
"150 586 OFFCURVE",
"152 589 CURVE SMOOTH"
);
}
);
width = 345;
},
{
associatedMasterId = "8AECA43D-4735-4071-BB51-E4BAE59DF091";
layerId = "C794F68C-1434-4990-8142-0E0C28384424";
name = "Aug 21 20, 13:07";
paths = (
{
closed = 1;
nodes = (
"377 425 OFFCURVE",
"269 313 OFFCURVE",
"223 270 CURVE SMOOTH",
"139 190 OFFCURVE",
"50 92 OFFCURVE",
"25 32 CURVE",
"257 32 LINE SMOOTH",
"263 32 OFFCURVE",
"268 27 OFFCURVE",
"268 21 CURVE SMOOTH",
"268 16 OFFCURVE",
"263 11 OFFCURVE",
"257 11 CURVE SMOOTH",
"10 11 LINE SMOOTH",
"7 11 OFFCURVE",
"4 12 OFFCURVE",
"2 15 CURVE SMOOTH",
"0 18 OFFCURVE",
"-1 21 OFFCURVE",
"0 24 CURVE SMOOTH",
"21 101 OFFCURVE",
"164 242 OFFCURVE",
"209 285 CURVE SMOOTH",
"243 318 OFFCURVE",
"358 433 OFFCURVE",
"383 529 CURVE",
"395 571 OFFCURVE",
"391 609 OFFCURVE",
"373 632 CURVE SMOOTH",
"360 648 OFFCURVE",
"341 657 OFFCURVE",
"316 657 CURVE SMOOTH",
"265 657 OFFCURVE",
"206 621 OFFCURVE",
"178 573 CURVE SMOOTH",
"175 568 OFFCURVE",
"169 566 OFFCURVE",
"164 569 CURVE SMOOTH",
"159 572 OFFCURVE",
"160 583 OFFCURVE",
"160 583 CURVE",
"191 638 OFFCURVE",
"257 678 OFFCURVE",
"316 678 CURVE SMOOTH",
"347 678 OFFCURVE",
"373 667 OFFCURVE",
"390 645 CURVE SMOOTH",
"412 616 OFFCURVE",
"417 572 OFFCURVE",
"404 524 CURVE SMOOTH"
);
}
);
width = 341;
}
);
leftKerningGroup = two;
rightKerningGroup = two;
unicode = 0032;
},
{
color = 4;
glyphname = three;
lastChange = "2020-10-02 15:28:28 +0000";
layers = (
{
layerId = "8AECA43D-4735-4071-BB51-E4BAE59DF091";
paths = (
{
closed = 1;
nodes = (
"374 464 OFFCURVE",
"264 348 OFFCURVE",
"157 348 CURVE SMOOTH",
"145 348 OFFCURVE",
"138 350 OFFCURVE",
"138 355 CURVE SMOOTH",
"138 372 OFFCURVE",
"168 393 OFFCURVE",
"205 393 CURVE SMOOTH",
"280 393 OFFCURVE",
"319 339 OFFCURVE",
"319 259 CURVE SMOOTH",
"319 123 OFFCURVE",
"228 16 OFFCURVE",
"112 16 CURVE SMOOTH",
"63 16 OFFCURVE",
"24 38 OFFCURVE",
"8 72 CURVE SMOOTH",
"6 76 OFFCURVE",
"3 80 OFFCURVE",
"-3 80 CURVE SMOOTH",
"-12 80 OFFCURVE",
"-17 71 OFFCURVE",
"-14 64 CURVE SMOOTH",
"2 23 OFFCURVE",
"53 -5 OFFCURVE",
"112 -5 CURVE SMOOTH",
"240 -5 OFFCURVE",
"341 112 OFFCURVE",
"341 258 CURVE SMOOTH",
"341 347 OFFCURVE",
"292 414 OFFCURVE",
"207 414 CURVE SMOOTH",
"155 414 OFFCURVE",
"116 383 OFFCURVE",
"116 354 CURVE SMOOTH",
"116 336 OFFCURVE",
"131 327 OFFCURVE",
"158 327 CURVE SMOOTH",
"273 327 OFFCURVE",
"396 450 OFFCURVE",
"396 584 CURVE SMOOTH",
"396 642 OFFCURVE",
"369 695 OFFCURVE",
"304 695 CURVE SMOOTH",
"244 695 OFFCURVE",
"197 654 OFFCURVE",
"163 597 CURVE SMOOTH",
"159 590 OFFCURVE",
"165 584 OFFCURVE",
"171 584 CURVE SMOOTH",
"176 584 OFFCURVE",
"180 586 OFFCURVE",
"183 591 CURVE SMOOTH",
"213 638 OFFCURVE",
"254 674 OFFCURVE",
"303 674 CURVE SMOOTH",
"357 674 OFFCURVE",
"374 633 OFFCURVE",
"374 584 CURVE SMOOTH"
);
}
);
width = 387;
},
{
associatedMasterId = "8AECA43D-4735-4071-BB51-E4BAE59DF091";
layerId = "5735084C-5A53-4F36-BEE3-A43C28022B31";
name = "Aug 21 20, 13:12";
paths = (
{
closed = 1;
nodes = (
"390 506 OFFCURVE",
"367 443 OFFCURVE",
"301 385 CURVE",
"309 379 OFFCURVE",
"316 371 OFFCURVE",
"323 362 CURVE SMOOTH",
"351 323 OFFCURVE",
"356 263 OFFCURVE",
"337 193 CURVE SMOOTH",
"323 140 OFFCURVE",
"301 100 OFFCURVE",
"265 63 CURVE SMOOTH",
"225 22 OFFCURVE",
"175 0 OFFCURVE",
"127 0 CURVE SMOOTH",
"66 0 OFFCURVE",
"18 27 OFFCURVE",
"0 71 CURVE SMOOTH",
"-2 76 OFFCURVE",
"0 82 OFFCURVE",
"6 84 CURVE SMOOTH",
"11 87 OFFCURVE",
"17 84 OFFCURVE",
"19 79 CURVE SMOOTH",
"34 43 OFFCURVE",
"75 20 OFFCURVE",
"127 20 CURVE SMOOTH",
"220 20 OFFCURVE",
"292 106 OFFCURVE",
"317 199 CURVE SMOOTH",
"334 261 OFFCURVE",
"330 316 OFFCURVE",
"305 350 CURVE",
"300 359 OFFCURVE",
"293 365 OFFCURVE",
"285 371 CURVE",
"278 365 OFFCURVE",
"270 360 OFFCURVE",
"262 355 CURVE SMOOTH",
"221 326 OFFCURVE",
"160 311 OFFCURVE",
"138 324 CURVE",
"131 327 OFFCURVE",
"128 334 OFFCURVE",
"128 341 CURVE SMOOTH",
"128 351 OFFCURVE",
"135 363 OFFCURVE",
"146 373 CURVE SMOOTH",
"167 391 OFFCURVE",
"205 409 OFFCURVE",
"242 407 CURVE",
"257 405 OFFCURVE",
"270 402 OFFCURVE",
"282 396 CURVE",
"347 452 OFFCURVE",
"370 513 OFFCURVE",
"377 539 CURVE SMOOTH",
"388 581 OFFCURVE",
"385 614 OFFCURVE",
"370 634 CURVE SMOOTH",
"358 650 OFFCURVE",
"338 658 OFFCURVE",
"311 658 CURVE SMOOTH",
"267 658 OFFCURVE",
"221 620 OFFCURVE",
"198 584 CURVE SMOOTH",
"195 580 OFFCURVE",
"188 578 OFFCURVE",
"183 581 CURVE SMOOTH",
"178 585 OFFCURVE",
"177 591 OFFCURVE",
"180 596 CURVE SMOOTH",
"207 637 OFFCURVE",
"258 679 OFFCURVE",
"311 679 CURVE SMOOTH",
"344 679 OFFCURVE",
"370 668 OFFCURVE",
"386 647 CURVE SMOOTH",
"406 621 OFFCURVE",
"410 582 OFFCURVE",
"397 534 CURVE SMOOTH"
);
},
{
closed = 1;
nodes = (
"256 384 OFFCURVE",
"249 385 OFFCURVE",
"241 386 CURVE SMOOTH",
"211 388 OFFCURVE",
"178 373 OFFCURVE",
"160 358 CURVE",
"150 348 OFFCURVE",
"151 339 OFFCURVE",
"165 340 CURVE SMOOTH",
"186 342 OFFCURVE",
"221 352 OFFCURVE",
"251 372 CURVE SMOOTH",
"255 375 OFFCURVE",
"259 378 OFFCURVE",
"264 381 CURVE"
);
}
);
width = 365;
}
);
leftKerningGroup = three;
rightKerningGroup = three;
unicode = 0033;
},
{
color = 4;
glyphname = four;
lastChange = "2020-10-02 15:28:39 +0000";
layers = (
{
background = {
components = (
{
alignment = -1;
name = idotless;
transform = "{1, 0, 0, 1, 193, 0}";
}
);
paths = (
{
closed = 1;
nodes = (
"382 676 LINE SMOOTH",
"388 684 OFFCURVE",
"382 690 OFFCURVE",
"375 690 CURVE SMOOTH",
"372 690 OFFCURVE",
"369 688 OFFCURVE",
"366 684 CURVE SMOOTH",
"24 205 LINE SMOOTH",
"19 198 OFFCURVE",
"16 193 OFFCURVE",
"16 188 CURVE SMOOTH",
"16 183 OFFCURVE",
"20 181 OFFCURVE",
"24 181 CURVE SMOOTH",
"328 181 LINE SMOOTH",
"335 181 OFFCURVE",
"341 188 OFFCURVE",
"341 195 CURVE SMOOTH",
"341 200 OFFCURVE",
"337 202 OFFCURVE",
"333 202 CURVE SMOOTH",
"29 202 LINE",
"38 193 LINE"
);
}
);
};
components = (
{
alignment = -1;
name = idotless;
transform = "{1, 0, 0, 1, 193, 0}";
}
);
layerId = "8AECA43D-4735-4071-BB51-E4BAE59DF091";
paths = (
{
closed = 1;
nodes = (
"17 185 OFFCURVE",
"21 181 OFFCURVE",
"26 181 CURVE SMOOTH",
"329 181 LINE SMOOTH",
"336 181 OFFCURVE",
"341 186 OFFCURVE",
"341 193 CURVE SMOOTH",
"341 198 OFFCURVE",
"337 202 OFFCURVE",
"332 202 CURVE SMOOTH",
"29 202 LINE",
"41 191 LINE",
"383 671 LINE SMOOTH",
"390 681 OFFCURVE",
"385 690 OFFCURVE",
"376 690 CURVE SMOOTH",
"372 690 OFFCURVE",
"369 688 OFFCURVE",
"366 684 CURVE SMOOTH",
"23 202 LINE SMOOTH",
"19 197 OFFCURVE",
"17 194 OFFCURVE",
"17 190 CURVE SMOOTH"
);
}
);
width = 384;
},
{
associatedMasterId = "8AECA43D-4735-4071-BB51-E4BAE59DF091";
layerId = "A4822638-23F8-4951-ACAF-FB5A4FBAD721";
name = "Aug 21 20, 13:17";
paths = (
{
closed = 1;
nodes = (
"60 202 LINE",
"257 202 LINE",
"329 468 LINE SMOOTH",
"330 474 OFFCURVE",
"336 477 OFFCURVE",
"342 476 CURVE SMOOTH",
"347 474 OFFCURVE",
"349 463 OFFCURVE",
"349 463 CURVE",
"279 202 LINE",
"344 202 LINE SMOOTH",
"350 202 OFFCURVE",
"354 197 OFFCURVE",
"354 192 CURVE SMOOTH",
"354 186 OFFCURVE",
"344 181 OFFCURVE",
"344 181 CURVE",
"274 181 LINE",
"227 7 LINE SMOOTH",
"225 1 OFFCURVE",
"220 -2 OFFCURVE",
"214 -1 CURVE SMOOTH",
"208 1 OFFCURVE",
"205 6 OFFCURVE",
"206 12 CURVE SMOOTH",
"252 181 LINE",
"39 181 LINE SMOOTH",
"35 181 OFFCURVE",
"32 183 OFFCURVE",
"30 187 CURVE SMOOTH",
"28 190 OFFCURVE",
"28 194 OFFCURVE",
"31 198 CURVE SMOOTH",
"393 707 LINE SMOOTH",
"397 712 OFFCURVE",
"403 713 OFFCURVE",
"408 710 CURVE SMOOTH",
"413 706 OFFCURVE",
"414 700 OFFCURVE",
"410 695 CURVE SMOOTH"
);
}
);
width = 360;
}
);
leftKerningGroup = four;
rightKerningGroup = four;
unicode = 0034;
},
{
color = 4;
glyphname = five;
lastChange = "2020-10-09 14:54:39 +0000";
layers = (
{
layerId = "8AECA43D-4735-4071-BB51-E4BAE59DF091";
paths = (
{
closed = 1;
nodes = (
"231 690 OFFCURVE",
"226 687 OFFCURVE",
"224 680 CURVE SMOOTH",
"144 381 LINE",
"127 317 OFFCURVE",
"102 284 OFFCURVE",
"85 284 CURVE SMOOTH",
"80 284 OFFCURVE",
"76 287 OFFCURVE",
"76 297 CURVE SMOOTH",
"76 341 OFFCURVE",
"138 393 OFFCURVE",
"211 393 CURVE SMOOTH",
"279 393 OFFCURVE",
"317 349 OFFCURVE",
"317 268 CURVE SMOOTH",
"317 135 OFFCURVE",
"225 16 OFFCURVE",
"111 16 CURVE SMOOTH",
"62 16 OFFCURVE",
"23 38 OFFCURVE",
"7 72 CURVE SMOOTH",
"5 76 OFFCURVE",
"3 80 OFFCURVE",
"-3 80 CURVE SMOOTH",
"-14 80 OFFCURVE",
"-16 71 OFFCURVE",
"-13 64 CURVE SMOOTH",
"3 23 OFFCURVE",
"52 -5 OFFCURVE",
"111 -5 CURVE SMOOTH",
"239 -5 OFFCURVE",
"340 121 OFFCURVE",
"340 268 CURVE SMOOTH",
"340 358 OFFCURVE",
"291 414 OFFCURVE",
"214 414 CURVE SMOOTH",
"128 414 OFFCURVE",
"54 348 OFFCURVE",
"54 291 CURVE SMOOTH",
"54 273 OFFCURVE",
"64 262 OFFCURVE",
"81 262 CURVE SMOOTH",
"114 262 OFFCURVE",
"145 302 OFFCURVE",
"166 381 CURVE",
"246 680 LINE",
"231 669 LINE",
"368 669 LINE SMOOTH",
"408 669 OFFCURVE",
"436 683 OFFCURVE",
"456 714 CURVE SMOOTH",
"462 723 OFFCURVE",
"458 730 OFFCURVE",
"450 730 CURVE SMOOTH",
"445 730 OFFCURVE",
"443 727 OFFCURVE",
"441 724 CURVE SMOOTH",
"419 692 OFFCURVE",
"395 690 OFFCURVE",
"376 690 CURVE SMOOTH",
"237 690 LINE SMOOTH"
);
}
);
width = 378;
},
{
associatedMasterId = "8AECA43D-4735-4071-BB51-E4BAE59DF091";
layerId = "A98DDA7B-CE8F-4120-AEFC-F6845334CA72";
name = "Aug 21 20, 13:21";
paths = (
{
closed = 1;
nodes = (
"447 648 OFFCURVE",
"428 631 OFFCURVE",
"386 631 CURVE SMOOTH",
"254 631 LINE",
"251 617 OFFCURVE",
"199 424 OFFCURVE",
"190 391 CURVE",
"209 398 OFFCURVE",
"229 402 OFFCURVE",
"250 402 CURVE SMOOTH",
"286 402 OFFCURVE",
"314 390 OFFCURVE",
"333 366 CURVE SMOOTH",
"360 330 OFFCURVE",
"364 271 OFFCURVE",
"343 195 CURVE SMOOTH",
"312 78 OFFCURVE",
"228 0 OFFCURVE",
"135 0 CURVE SMOOTH",
"75 0 OFFCURVE",
"42 34 OFFCURVE",
"30 49 CURVE SMOOTH",
"26 53 OFFCURVE",
"27 60 OFFCURVE",
"32 64 CURVE SMOOTH",
"36 67 OFFCURVE",
"43 66 OFFCURVE",
"46 62 CURVE SMOOTH",
"56 49 OFFCURVE",
"85 21 OFFCURVE",
"135 21 CURVE SMOOTH",
"219 21 OFFCURVE",
"294 93 OFFCURVE",
"323 200 CURVE SMOOTH",
"342 269 OFFCURVE",
"339 323 OFFCURVE",
"316 353 CURVE SMOOTH",
"302 372 OFFCURVE",
"280 381 OFFCURVE",
"250 381 CURVE SMOOTH",
"227 381 OFFCURVE",
"204 375 OFFCURVE",
"183 365 CURVE",
"164 298 OFFCURVE",
"134 265 OFFCURVE",
"112 255 CURVE SMOOTH",
"99 250 OFFCURVE",
"90 252 OFFCURVE",
"84 255 CURVE SMOOTH",
"79 258 OFFCURVE",
"68 267 OFFCURVE",
"73 287 CURVE SMOOTH",
"80 314 OFFCURVE",
"116 355 OFFCURVE",
"165 380 CURVE",
"236 644 LINE SMOOTH",
"237 649 OFFCURVE",
"242 652 OFFCURVE",
"246 652 CURVE SMOOTH",
"386 652 LINE SMOOTH",
"420 652 OFFCURVE",
"434 665 OFFCURVE",
"453 687 CURVE SMOOTH",
"457 691 OFFCURVE",
"463 692 OFFCURVE",
"468 688 CURVE SMOOTH",
"472 684 OFFCURVE",
"472 678 OFFCURVE",
"469 673 CURVE"
);
},
{
closed = 1;
nodes = (
"123 328 OFFCURVE",
"98 300 OFFCURVE",
"94 282 CURVE",
"91 274 OFFCURVE",
"96 271 OFFCURVE",
"103 275 CURVE",
"119 281 OFFCURVE",
"140 307 OFFCURVE",
"156 350 CURVE"
);
}
);
width = 379;
}
);
leftKerningGroup = five;
rightKerningGroup = five;
unicode = 0035;
},
{
color = 4;
glyphname = six;
lastChange = "2020-10-02 15:14:38 +0000";
layers = (
{
layerId = "8AECA43D-4735-4071-BB51-E4BAE59DF091";
paths = (
{
closed = 1;
nodes = (
"242 -5 OFFCURVE",
"340 128 OFFCURVE",
"340 261 CURVE SMOOTH",
"340 327 OFFCURVE",
"311 381 OFFCURVE",
"245 381 CURVE SMOOTH",
"205 381 OFFCURVE",
"163 361 OFFCURVE",
"125 323 CURVE SMOOTH",
"119 316 OFFCURVE",
"122 306 OFFCURVE",
"132 306 CURVE SMOOTH",
"135 306 OFFCURVE",
"138 307 OFFCURVE",
"141 310 CURVE SMOOTH",
"171 340 OFFCURVE",
"210 360 OFFCURVE",
"244 360 CURVE SMOOTH",
"298 360 OFFCURVE",
"318 314 OFFCURVE",
"318 259 CURVE SMOOTH",
"318 142 OFFCURVE",
"232 16 OFFCURVE",
"141 16 CURVE SMOOTH",
"82 16 OFFCURVE",
"52 66 OFFCURVE",
"52 135 CURVE SMOOTH",
"52 334 OFFCURVE",
"193 555 OFFCURVE",
"366 668 CURVE SMOOTH",
"370 671 OFFCURVE",
"374 674 OFFCURVE",
"374 681 CURVE SMOOTH",
"374 687 OFFCURVE",
"370 690 OFFCURVE",
"365 690 CURVE SMOOTH",
"361 690 OFFCURVE",
"359 689 OFFCURVE",
"355 686 CURVE SMOOTH",
"169 555 OFFCURVE",
"30 341 OFFCURVE",
"30 135 CURVE SMOOTH",
"30 57 OFFCURVE",
"66 -5 OFFCURVE",
"135 -5 CURVE SMOOTH"
);
}
);
width = 374;
},
{
associatedMasterId = "8AECA43D-4735-4071-BB51-E4BAE59DF091";
layerId = "60243924-A7C6-4D5C-9068-09A7F5FCF5ED";
name = "Aug 21 20, 13:26";
paths = (
{
closed = 1;
nodes = (
"434 718 OFFCURVE",
"427 708 OFFCURVE",
"427 708 CURVE",
"419 704 OFFCURVE",
"235 599 OFFCURVE",
"122 303 CURVE SMOOTH",
"77 185 OFFCURVE",
"69 92 OFFCURVE",
"99 48 CURVE SMOOTH",
"112 30 OFFCURVE",
"130 20 OFFCURVE",
"155 20 CURVE SMOOTH",
"256 20 OFFCURVE",
"309 125 OFFCURVE",
"331 188 CURVE SMOOTH",
"351 243 OFFCURVE",
"352 300 OFFCURVE",
"334 331 CURVE SMOOTH",
"325 346 OFFCURVE",
"312 356 OFFCURVE",
"294 359 CURVE SMOOTH",
"256 366 OFFCURVE",
"170 311 OFFCURVE",
"170 311 CURVE",
"166 307 OFFCURVE",
"159 307 OFFCURVE",
"155 311 CURVE SMOOTH",
"151 315 OFFCURVE",
"156 326 OFFCURVE",
"156 326 CURVE",
"198 367 OFFCURVE",
"252 388 OFFCURVE",
"298 379 CURVE SMOOTH",
"322 375 OFFCURVE",
"340 362 OFFCURVE",
"352 341 CURVE SMOOTH",
"378 297 OFFCURVE",
"368 229 OFFCURVE",
"351 181 CURVE SMOOTH",
"309 64 OFFCURVE",
"239 -1 OFFCURVE",
"155 -1 CURVE SMOOTH",
"123 -1 OFFCURVE",
"98 12 OFFCURVE",
"82 36 CURVE SMOOTH",
"47 87 OFFCURVE",
"54 185 OFFCURVE",
"102 311 CURVE SMOOTH",
"195 553 OFFCURVE",
"344 686 OFFCURVE",
"417 727 CURVE SMOOTH",
"422 730 OFFCURVE",
"428 728 OFFCURVE",
"431 723 CURVE SMOOTH"
);
}
);
width = 391;
}
);
leftKerningGroup = six;
leftMetricsKey = zero;
rightKerningGroup = six;
unicode = 0036;
},
{
color = 4;
glyphname = seven;
lastChange = "2020-10-02 15:14:38 +0000";
layers = (
{
background = {
paths = (
{
closed = 1;
nodes = (
"-16 13 LINE SMOOTH",
"-20 6 OFFCURVE",
"-16 0 OFFCURVE",
"-9 0 CURVE SMOOTH",
"-1 0 OFFCURVE",
"2 3 OFFCURVE",
"5 8 CURVE SMOOTH",
"406 681 LINE SMOOTH",
"409 685 OFFCURVE",
"405 690 OFFCURVE",
"398 690 CURVE SMOOTH",
"155 690 LINE SMOOTH",
"148 690 OFFCURVE",
"143 685 OFFCURVE",
"143 678 CURVE SMOOTH",
"143 673 OFFCURVE",
"147 669 OFFCURVE",
"152 669 CURVE SMOOTH",
"385 669 LINE",
"382 680 LINE"
);
}
);
};
layerId = "8AECA43D-4735-4071-BB51-E4BAE59DF091";
paths = (
{
closed = 1;
nodes = (
"-16 13 LINE SMOOTH",
"-20 6 OFFCURVE",
"-16 0 OFFCURVE",
"-9 0 CURVE SMOOTH",
"-1 0 OFFCURVE",
"2 3 OFFCURVE",
"5 8 CURVE SMOOTH",
"403 676 LINE SMOOTH",
"408 684 OFFCURVE",
"404 690 OFFCURVE",
"397 690 CURVE SMOOTH",
"155 690 LINE SMOOTH",
"148 690 OFFCURVE",
"143 685 OFFCURVE",
"143 678 CURVE SMOOTH",
"143 673 OFFCURVE",
"147 669 OFFCURVE",
"152 669 CURVE SMOOTH",
"385 669 LINE",
"382 680 LINE"
);
}
);
width = 322;
},
{
associatedMasterId = "8AECA43D-4735-4071-BB51-E4BAE59DF091";
layerId = "163E6500-E5D0-4F32-B345-02E5A664F73D";
name = "Aug 21 20, 13:36";
paths = (
{
closed = 1;
nodes = (
"89 5 LINE SMOOTH",
"86 0 OFFCURVE",
"80 -2 OFFCURVE",
"75 1 CURVE SMOOTH",
"69 3 OFFCURVE",
"67 10 OFFCURVE",
"70 15 CURVE SMOOTH",
"379 619 LINE",
"146 619 LINE SMOOTH",
"140 619 OFFCURVE",
"135 624 OFFCURVE",
"135 630 CURVE SMOOTH",
"135 635 OFFCURVE",
"140 640 OFFCURVE",
"146 640 CURVE SMOOTH",
"396 640 LINE SMOOTH",
"400 640 OFFCURVE",
"403 638 OFFCURVE",
"405 635 CURVE SMOOTH",
"407 632 OFFCURVE",
"407 628 OFFCURVE",
"405 625 CURVE SMOOTH"
);
}
);
width = 335;
}
);
leftKerningGroup = seven;
rightKerningGroup = seven;
unicode = 0037;
},
{
color = 4;
glyphname = eight;
lastChange = "2020-10-02 15:14:38 +0000";
layers = (
{
background = {
paths = (
{
closed = 1;
nodes = (
"346 411 OFFCURVE",
"418 503 OFFCURVE",
"418 593 CURVE SMOOTH",
"418 656 OFFCURVE",
"378 695 OFFCURVE",
"315 695 CURVE SMOOTH",
"219 695 OFFCURVE",
"132 600 OFFCURVE",
"132 498 CURVE SMOOTH",
"132 444 OFFCURVE",
"158 393 OFFCURVE",
"216 357 CURVE SMOOTH",
"270 323 OFFCURVE",
"306 273 OFFCURVE",
"306 212 CURVE SMOOTH",
"306 112 OFFCURVE",
"221 16 OFFCURVE",
"134 16 CURVE SMOOTH",
"76 16 OFFCURVE",
"40 55 OFFCURVE",
"40 116 CURVE SMOOTH",
"40 208 OFFCURVE",
"112 299 OFFCURVE",
"233 357 CURVE SMOOTH"
);
},
{
closed = 1;
nodes = (
"88 306 OFFCURVE",
"17 208 OFFCURVE",
"17 110 CURVE SMOOTH",
"17 40 OFFCURVE",
"60 -5 OFFCURVE",
"128 -5 CURVE SMOOTH",
"230 -5 OFFCURVE",
"329 104 OFFCURVE",
"329 218 CURVE SMOOTH",
"329 282 OFFCURVE",
"294 332 OFFCURVE",
"243 366 CURVE SMOOTH",
"185 404 OFFCURVE",
"155 450 OFFCURVE",
"155 504 CURVE SMOOTH",
"155 592 OFFCURVE",
"229 674 OFFCURVE",
"309 674 CURVE SMOOTH",
"361 674 OFFCURVE",
"395 641 OFFCURVE",
"395 587 CURVE SMOOTH",
"395 504 OFFCURVE",
"329 422 OFFCURVE",
"212 366 CURVE SMOOTH"
);
}
);
};
layerId = "8AECA43D-4735-4071-BB51-E4BAE59DF091";
paths = (
{
closed = 1;
nodes = (
"348 408 OFFCURVE",
"418 485 OFFCURVE",
"418 574 CURVE SMOOTH",
"418 641 OFFCURVE",
"377 695 OFFCURVE",
"301 695 CURVE SMOOTH",
"208 695 OFFCURVE",
"132 616 OFFCURVE",
"132 519 CURVE SMOOTH",
"132 459 OFFCURVE",
"165 399 OFFCURVE",
"219 357 CURVE SMOOTH",
"278 310 OFFCURVE",
"307 252 OFFCURVE",
"307 194 CURVE SMOOTH",
"307 97 OFFCURVE",
"228 16 OFFCURVE",
"140 16 CURVE SMOOTH",
"77 16 OFFCURVE",
"39 59 OFFCURVE",
"39 126 CURVE SMOOTH",
"39 212 OFFCURVE",
"102 299 OFFCURVE",
"234 357 CURVE SMOOTH"
);
},
{
closed = 1;
nodes = (
"80 309 OFFCURVE",
"17 215 OFFCURVE",
"17 125 CURVE SMOOTH",
"17 49 OFFCURVE",
"65 -5 OFFCURVE",
"140 -5 CURVE SMOOTH",
"239 -5 OFFCURVE",
"329 86 OFFCURVE",
"329 194 CURVE SMOOTH",
"329 255 OFFCURVE",
"299 316 OFFCURVE",
"240 366 CURVE SMOOTH",
"182 416 OFFCURVE",
"154 466 OFFCURVE",
"154 519 CURVE SMOOTH",
"154 602 OFFCURVE",
"219 674 OFFCURVE",
"301 674 CURVE SMOOTH",
"363 674 OFFCURVE",
"396 633 OFFCURVE",
"396 575 CURVE SMOOTH",
"396 493 OFFCURVE",
"330 421 OFFCURVE",
"212 368 CURVE SMOOTH"
);
}
);
width = 388;
},
{
associatedMasterId = "8AECA43D-4735-4071-BB51-E4BAE59DF091";
layerId = "235AB3EE-745B-4B51-A069-39D6D9C41C21";
name = "Aug 21 20, 13:39";
paths = (
{
closed = 1;
nodes = (
"394 440 OFFCURVE",
"338 378 OFFCURVE",
"259 345 CURVE",
"325 303 OFFCURVE",
"354 239 OFFCURVE",
"332 155 CURVE SMOOTH",
"304 52 OFFCURVE",
"214 0 OFFCURVE",
"144 0 CURVE SMOOTH",
"106 0 OFFCURVE",
"73 15 OFFCURVE",
"53 42 CURVE SMOOTH",
"36 63 OFFCURVE",
"20 102 OFFCURVE",
"37 164 CURVE SMOOTH",
"59 246 OFFCURVE",
"127 313 OFFCURVE",
"213 349 CURVE",
"157 385 OFFCURVE",
"139 444 OFFCURVE",
"161 526 CURVE SMOOTH",
"188 626 OFFCURVE",
"265 678 OFFCURVE",
"327 678 CURVE SMOOTH",
"358 678 OFFCURVE",
"384 666 OFFCURVE",
"402 643 CURVE SMOOTH",
"424 614 OFFCURVE",
"429 571 OFFCURVE",
"416 521 CURVE SMOOTH"
);
},
{
closed = 1;
nodes = (
"407 570 OFFCURVE",
"403 607 OFFCURVE",
"385 631 CURVE SMOOTH",
"372 648 OFFCURVE",
"351 657 OFFCURVE",
"327 657 CURVE SMOOTH",
"274 657 OFFCURVE",
"205 610 OFFCURVE",
"181 521 CURVE SMOOTH",
"160 440 OFFCURVE",
"177 387 OFFCURVE",
"237 357 CURVE",
"295 377 OFFCURVE",
"368 425 OFFCURVE",
"396 526 CURVE"
);
},
{
closed = 1;
nodes = (
"332 238 OFFCURVE",
"300 304 OFFCURVE",
"235 337 CURVE",
"148 306 OFFCURVE",
"79 239 OFFCURVE",
"57 158 CURVE SMOOTH",
"46 116 OFFCURVE",
"50 80 OFFCURVE",
"69 54 CURVE",
"86 33 OFFCURVE",
"113 21 OFFCURVE",
"144 21 CURVE SMOOTH",
"206 21 OFFCURVE",
"286 68 OFFCURVE",
"311 161 CURVE SMOOTH"
);
}
);
width = 373;
}
);
leftKerningGroup = eight;
leftMetricsKey = zero;
rightKerningGroup = eight;
rightMetricsKey = zero;
unicode = 0038;
},
{
glyphname = less;
lastChange = "2020-08-21 13:27:15 +0000";
layers = (
{
background = {
paths = (
{
closed = 1;
nodes = (
"379 64 CURVE SMOOTH",
"69 243 LINE",
"68 230 LINE",
"472 410 LINE SMOOTH",
"477 412 OFFCURVE",
"482 419 OFFCURVE",
"482 424 CURVE SMOOTH",
"482 429 OFFCURVE",
"477 434 OFFCURVE",
"469 431 CURVE SMOOTH",
"59 248 LINE SMOOTH",
"53 245 OFFCURVE",
"50 242 OFFCURVE",
"50 237 CURVE SMOOTH",
"50 234 OFFCURVE",
"51 231 OFFCURVE",
"54 229 CURVE SMOOTH",
"359 51 LINE SMOOTH",
"364 48 OFFCURVE",
"370 46 OFFCURVE",
"373 46 CURVE SMOOTH",
"383 46 OFFCURVE",
"388 59 OFFCURVE"
);
}
);
};
layerId = "8AECA43D-4735-4071-BB51-E4BAE59DF091";
paths = (
{
closed = 1;
nodes = (
"383 57 CURVE SMOOTH",
"383 60 OFFCURVE",
"382 62 OFFCURVE",
"379 64 CURVE SMOOTH",
"69 243 LINE",
"68 230 LINE",
"472 410 LINE SMOOTH",
"477 412 OFFCURVE",
"482 416 OFFCURVE",
"482 423 CURVE SMOOTH",
"482 429 OFFCURVE",
"477 434 OFFCURVE",
"469 431 CURVE SMOOTH",
"59 248 LINE SMOOTH",
"53 245 OFFCURVE",
"50 242 OFFCURVE",
"50 237 CURVE SMOOTH",
"50 234 OFFCURVE",
"51 231 OFFCURVE",
"56 228 CURVE SMOOTH",
"363 49 LINE SMOOTH",
"374 42 OFFCURVE",
"383 49 OFFCURVE"
);
}
);
width = 483;
},
{
associatedMasterId = "8AECA43D-4735-4071-BB51-E4BAE59DF091";
layerId = "7E6383F1-2FA8-4E81-8AB9-C9F6706448F6";
name = "Aug 21 20, 15:21";
paths = (
{
closed = 1;
nodes = (
"428 46 OFFCURVE",
"422 44 OFFCURVE",
"417 47 CURVE SMOOTH",
"56 229 LINE SMOOTH",
"52 231 OFFCURVE",
"50 235 OFFCURVE",
"50 239 CURVE SMOOTH",
"50 243 OFFCURVE",
"52 246 OFFCURVE",
"56 248 CURVE SMOOTH",
"417 431 LINE SMOOTH",
"422 433 OFFCURVE",
"428 431 OFFCURVE",
"431 426 CURVE SMOOTH",
"434 421 OFFCURVE",
"432 415 OFFCURVE",
"426 412 CURVE SMOOTH",
"84 239 LINE",
"426 66 LINE SMOOTH",
"432 63 OFFCURVE",
"434 57 OFFCURVE",
"431 52 CURVE SMOOTH"
);
}
);
width = 491;
}
);
leftMetricsKey = plus;
rightMetricsKey = plus;
unicode = 003C;
},
{
glyphname = equal;
lastChange = "2020-10-02 15:14:38 +0000";
layers = (
{
background = {
paths = (
{
closed = 1;
nodes = (
"542 307 OFFCURVE",
"547 311 OFFCURVE",
"549 318 CURVE SMOOTH",
"551 324 OFFCURVE",
"548 328 OFFCURVE",
"542 328 CURVE SMOOTH",
"85 328 LINE SMOOTH",
"79 328 OFFCURVE",
"74 324 OFFCURVE",
"72 318 CURVE SMOOTH",
"70 311 OFFCURVE",
"73 307 OFFCURVE",
"79 307 CURVE SMOOTH",
"536 307 LINE SMOOTH"
);
},
{
closed = 1;
nodes = (
"500 150 OFFCURVE",
"505 154 OFFCURVE",
"507 161 CURVE SMOOTH",
"509 167 OFFCURVE",
"506 171 OFFCURVE",
"500 171 CURVE SMOOTH",
"43 171 LINE SMOOTH",
"37 171 OFFCURVE",
"32 167 OFFCURVE",
"30 161 CURVE SMOOTH",
"28 154 OFFCURVE",
"31 150 OFFCURVE",
"37 150 CURVE SMOOTH",
"494 150 LINE SMOOTH"
);
}
);
};
layerId = "8AECA43D-4735-4071-BB51-E4BAE59DF091";
paths = (
{
closed = 1;
nodes = (
"549 324 OFFCURVE",
"545 328 OFFCURVE",
"540 328 CURVE SMOOTH",
"83 328 LINE SMOOTH",
"76 328 OFFCURVE",
"71 323 OFFCURVE",
"71 316 CURVE SMOOTH",
"71 311 OFFCURVE",
"75 307 OFFCURVE",
"80 307 CURVE SMOOTH",
"537 307 LINE SMOOTH",
"544 307 OFFCURVE",
"549 312 OFFCURVE",
"549 319 CURVE SMOOTH"
);
},
{
closed = 1;
nodes = (
"508 167 OFFCURVE",
"504 171 OFFCURVE",
"499 171 CURVE SMOOTH",
"42 171 LINE SMOOTH",
"35 171 OFFCURVE",
"30 166 OFFCURVE",
"30 159 CURVE SMOOTH",
"30 154 OFFCURVE",
"34 150 OFFCURVE",
"39 150 CURVE SMOOTH",
"496 150 LINE SMOOTH",
"503 150 OFFCURVE",
"508 155 OFFCURVE",
"508 162 CURVE SMOOTH"
);
}
);
width = 579;
}
);
leftKerningGroup = hyphen;
leftMetricsKey = plus;
rightKerningGroup = hyphen;
rightMetricsKey = plus;
unicode = 003D;
},
{
glyphname = greater;
lastChange = "2020-08-21 13:28:02 +0000";
layers = (
{
background = {
paths = (
{
closed = 1;
nodes = (
"492 235 OFFCURVE",
"490 231 OFFCURVE",
"486 229 CURVE SMOOTH",
"125 47 LINE SMOOTH",
"120 44 OFFCURVE",
"114 46 OFFCURVE",
"111 52 CURVE SMOOTH",
"108 57 OFFCURVE",
"110 63 OFFCURVE",
"116 66 CURVE SMOOTH",
"458 239 LINE",
"116 412 LINE SMOOTH",
"110 415 OFFCURVE",
"108 421 OFFCURVE",
"111 426 CURVE SMOOTH",
"114 431 OFFCURVE",
"120 433 OFFCURVE",
"125 431 CURVE SMOOTH",
"486 248 LINE SMOOTH",
"490 246 OFFCURVE",
"492 243 OFFCURVE",
"492 239 CURVE SMOOTH"
);
}
);
};
components = (
{
name = less;
transform = "{-1, 0, 0, -1, 483, 478}";
}
);
layerId = "8AECA43D-4735-4071-BB51-E4BAE59DF091";
width = 483;
}
);
leftMetricsKey = "=|less";
rightMetricsKey = "=|less";
unicode = 003E;
},
{
glyphname = question;
lastChange = "2020-10-10 10:08:47 +0000";
layers = (
{
background = {
paths = (
{
closed = 1;
nodes = (
"338 654 OFFCURVE",
"306 690 OFFCURVE",
"252 690 CURVE SMOOTH",
"198 690 OFFCURVE",
"154 656 OFFCURVE",
"128 610 CURVE SMOOTH",
"124 603 OFFCURVE",
"128 596 OFFCURVE",
"137 596 CURVE SMOOTH",
"143 596 OFFCURVE",
"146 599 OFFCURVE",
"148 603 CURVE SMOOTH",
"170 641 OFFCURVE",
"204 669 OFFCURVE",
"249 669 CURVE SMOOTH",
"294 669 OFFCURVE",
"316 642 OFFCURVE",
"316 597 CURVE SMOOTH",
"316 555 OFFCURVE",
"298 496 OFFCURVE",
"222 423 CURVE SMOOTH",
"171 374 LINE SMOOTH",
"143 347 OFFCURVE",
"100 296 OFFCURVE",
"100 245 CURVE SMOOTH",
"100 228 OFFCURVE",
"104 208 OFFCURVE",
"113 190 CURVE SMOOTH",
"116 184 OFFCURVE",
"120 183 OFFCURVE",
"124 183 CURVE SMOOTH",
"134 183 OFFCURVE",
"136 192 OFFCURVE",
"132 200 CURVE SMOOTH",
"125 216 OFFCURVE",
"121 231 OFFCURVE",
"121 246 CURVE SMOOTH",
"121 294 OFFCURVE",
"165 340 OFFCURVE",
"186 361 CURVE SMOOTH",
"241 414 LINE SMOOTH",
"318 488 OFFCURVE",
"338 556 OFFCURVE",
"338 600 CURVE SMOOTH"
);
}
);
};
components = (
{
name = period;
transform = "{1, 0, 0, 1, 44, 0}";
}
);
layerId = "8AECA43D-4735-4071-BB51-E4BAE59DF091";
paths = (
{
closed = 1;
nodes = (
"341 659 OFFCURVE",
"309 695 OFFCURVE",
"255 695 CURVE SMOOTH",
"201 695 OFFCURVE",
"157 661 OFFCURVE",
"131 615 CURVE SMOOTH",
"127 608 OFFCURVE",
"131 601 OFFCURVE",
"140 601 CURVE SMOOTH",
"146 601 OFFCURVE",
"149 604 OFFCURVE",
"151 608 CURVE SMOOTH",
"173 646 OFFCURVE",
"207 674 OFFCURVE",
"252 674 CURVE SMOOTH",
"297 674 OFFCURVE",
"319 647 OFFCURVE",
"319 602 CURVE SMOOTH",
"319 560 OFFCURVE",
"301 501 OFFCURVE",
"225 428 CURVE SMOOTH",
"174 379 LINE SMOOTH",
"146 352 OFFCURVE",
"103 301 OFFCURVE",
"103 250 CURVE SMOOTH",
"103 233 OFFCURVE",
"107 213 OFFCURVE",
"116 195 CURVE SMOOTH",
"119 189 OFFCURVE",
"123 188 OFFCURVE",
"127 188 CURVE SMOOTH",
"137 188 OFFCURVE",
"139 197 OFFCURVE",
"135 205 CURVE SMOOTH",
"128 221 OFFCURVE",
"124 236 OFFCURVE",
"124 251 CURVE SMOOTH",
"124 299 OFFCURVE",
"168 345 OFFCURVE",
"189 366 CURVE SMOOTH",
"244 419 LINE SMOOTH",
"321 493 OFFCURVE",
"341 561 OFFCURVE",
"341 605 CURVE SMOOTH"
);
}
);
width = 304;
}
);
leftKerningGroup = question;
rightKerningGroup = question;
unicode = 003F;
},
{
glyphname = at;
lastChange = "2020-10-02 15:14:38 +0000";
layers = (
{
background = {
paths = (
{
closed = 1;
nodes = (
"408 117 CURVE SMOOTH",
"443 117 OFFCURVE",
"490 174 OFFCURVE",
"528 262 CURVE SMOOTH",
"531 268 OFFCURVE",
"526 276 OFFCURVE",
"519 276 CURVE SMOOTH",
"513 276 OFFCURVE",
"510 273 OFFCURVE",
"507 266 CURVE SMOOTH",
"479 199 OFFCURVE",
"432 138 OFFCURVE",
"409 138 CURVE SMOOTH",
"397 138 OFFCURVE",
"390 152 OFFCURVE",
"390 178 CURVE SMOOTH",
"390 256 OFFCURVE",
"424 360 OFFCURVE",
"451 360 CURVE SMOOTH",
"454 360 OFFCURVE",
"457 358 OFFCURVE",
"457 352 CURVE SMOOTH",
"457 280 OFFCURVE",
"364 133 OFFCURVE",
"306 133 CURVE SMOOTH",
"285 133 OFFCURVE",
"276 155 OFFCURVE",
"276 195 CURVE SMOOTH",
"276 337 OFFCURVE",
"390 578 OFFCURVE",
"458 578 CURVE SMOOTH",
"481 578 OFFCURVE",
"493 550 OFFCURVE",
"493 503 CURVE SMOOTH",
"493 487 OFFCURVE",
"492 470 OFFCURVE",
"489 451 CURVE SMOOTH",
"488 444 OFFCURVE",
"492 439 OFFCURVE",
"499 439 CURVE SMOOTH",
"504 439 OFFCURVE",
"508 443 OFFCURVE",
"509 448 CURVE SMOOTH",
"513 469 OFFCURVE",
"514 487 OFFCURVE",
"514 504 CURVE SMOOTH",
"514 564 OFFCURVE",
"494 599 OFFCURVE",
"461 599 CURVE SMOOTH",
"376 599 OFFCURVE",
"256 359 OFFCURVE",
"256 191 CURVE SMOOTH",
"256 140 OFFCURVE",
"275 112 OFFCURVE",
"306 112 CURVE SMOOTH",
"378 112 OFFCURVE",
"478 270 OFFCURVE",
"478 351 CURVE SMOOTH",
"478 371 OFFCURVE",
"468 381 OFFCURVE",
"454 381 CURVE SMOOTH",
"411 381 OFFCURVE",
"370 282 OFFCURVE",
"370 186 CURVE SMOOTH",
"370 141 OFFCURVE",
"383 117 OFFCURVE"
);
}
);
};
layerId = "8AECA43D-4735-4071-BB51-E4BAE59DF091";
paths = (
{
closed = 1;
nodes = (
"431 138 OFFCURVE",
"397 169 OFFCURVE",
"397 236 CURVE SMOOTH",
"397 295 OFFCURVE",
"426 364 OFFCURVE",
"450 364 CURVE SMOOTH",
"458 364 OFFCURVE",
"460 358 OFFCURVE",
"460 348 CURVE SMOOTH",
"460 271 OFFCURVE",
"362 133 OFFCURVE",
"308 133 CURVE SMOOTH",
"284 133 OFFCURVE",
"272 156 OFFCURVE",
"272 202 CURVE SMOOTH",
"272 344 OFFCURVE",
"391 581 OFFCURVE",
"463 581 CURVE SMOOTH",
"495 581 OFFCURVE",
"506 531 OFFCURVE",
"491 457 CURVE SMOOTH",
"490 450 OFFCURVE",
"493 444 OFFCURVE",
"501 444 CURVE SMOOTH",
"507 444 OFFCURVE",
"511 447 OFFCURVE",
"512 452 CURVE SMOOTH",
"530 542 OFFCURVE",
"510 602 OFFCURVE",
"465 602 CURVE SMOOTH",
"377 602 OFFCURVE",
"251 364 OFFCURVE",
"251 203 CURVE SMOOTH",
"251 145 OFFCURVE",
"271 112 OFFCURVE",
"306 112 CURVE SMOOTH",
"374 112 OFFCURVE",
"481 258 OFFCURVE",
"481 346 CURVE SMOOTH",
"481 373 OFFCURVE",
"470 385 OFFCURVE",
"453 385 CURVE SMOOTH",
"414 385 OFFCURVE",
"376 310 OFFCURVE",
"376 235 CURVE SMOOTH",
"376 158 OFFCURVE",
"421 117 OFFCURVE",
"493 117 CURVE SMOOTH",
"634 117 OFFCURVE",
"754 264 OFFCURVE",
"754 431 CURVE SMOOTH",
"754 596 OFFCURVE",
"631 690 OFFCURVE",
"456 690 CURVE SMOOTH",
"242 690 OFFCURVE",
"67 506 OFFCURVE",
"67 283 CURVE SMOOTH",
"67 103 OFFCURVE",
"189 0 OFFCURVE",
"369 0 CURVE SMOOTH",
"464 0 OFFCURVE",
"559 30 OFFCURVE",
"635 88 CURVE SMOOTH",
"645 96 OFFCURVE",
"641 107 OFFCURVE",
"632 107 CURVE SMOOTH",
"629 107 OFFCURVE",
"626 106 OFFCURVE",
"624 104 CURVE SMOOTH",
"553 49 OFFCURVE",
"463 21 OFFCURVE",
"373 21 CURVE SMOOTH",
"204 21 OFFCURVE",
"89 116 OFFCURVE",
"89 287 CURVE SMOOTH",
"89 497 OFFCURVE",
"251 669 OFFCURVE",
"456 669 CURVE SMOOTH",
"619 669 OFFCURVE",
"732 586 OFFCURVE",
"732 426 CURVE SMOOTH",
"732 273 OFFCURVE",
"622 138 OFFCURVE",
"495 138 CURVE SMOOTH"
);
}
);
width = 755;
},
{
associatedMasterId = "8AECA43D-4735-4071-BB51-E4BAE59DF091";
layerId = "07FD0F4B-EAEF-4A4D-A9B4-1677905C9B71";
name = "Aug 21 20, 15:32";
paths = (
{
closed = 1;
nodes = (
"702 147 OFFCURVE",
"581 91 OFFCURVE",
"482 112 CURVE SMOOTH",
"457 118 OFFCURVE",
"437 131 OFFCURVE",
"423 152 CURVE",
"389 111 OFFCURVE",
"352 94 OFFCURVE",
"318 106 CURVE",
"306 109 OFFCURVE",
"297 118 OFFCURVE",
"290 132 CURVE SMOOTH",
"268 179 OFFCURVE",
"281 280 OFFCURVE",
"322 384 CURVE SMOOTH",
"377 523 OFFCURVE",
"453 608 OFFCURVE",
"507 590 CURVE SMOOTH",
"544 578 OFFCURVE",
"556 521 OFFCURVE",
"540 442 CURVE",
"538 437 OFFCURVE",
"533 433 OFFCURVE",
"527 434 CURVE SMOOTH",
"522 435 OFFCURVE",
"518 441 OFFCURVE",
"519 447 CURVE SMOOTH",
"535 522 OFFCURVE",
"521 563 OFFCURVE",
"500 570 CURVE SMOOTH",
"464 582 OFFCURVE",
"395 513 OFFCURVE",
"341 376 CURVE SMOOTH",
"303 279 OFFCURVE",
"290 182 OFFCURVE",
"309 141 CURVE SMOOTH",
"313 133 OFFCURVE",
"318 128 OFFCURVE",
"324 125 CURVE",
"347 118 OFFCURVE",
"379 129 OFFCURVE",
"413 172 CURVE",
"399 206 OFFCURVE",
"400 251 OFFCURVE",
"417 300 CURVE SMOOTH",
"436 358 OFFCURVE",
"460 382 OFFCURVE",
"488 373 CURVE SMOOTH",
"496 371 OFFCURVE",
"502 366 OFFCURVE",
"505 358 CURVE SMOOTH",
"516 335 OFFCURVE",
"502 294 OFFCURVE",
"493 272 CURVE SMOOTH",
"475 230 OFFCURVE",
"457 196 OFFCURVE",
"437 169 CURVE",
"438 168 LINE",
"448 149 OFFCURVE",
"465 137 OFFCURVE",
"487 133 CURVE",
"576 113 OFFCURVE",
"685 166 OFFCURVE",
"724 303 CURVE SMOOTH",
"749 393 OFFCURVE",
"733 486 OFFCURVE",
"681 557 CURVE SMOOTH",
"630 626 OFFCURVE",
"552 666 OFFCURVE",
"461 669 CURVE SMOOTH",
"366 672 OFFCURVE",
"278 638 OFFCURVE",
"212 574 CURVE SMOOTH",
"147 511 OFFCURVE",
"111 426 OFFCURVE",
"111 334 CURVE SMOOTH",
"111 248 OFFCURVE",
"140 172 OFFCURVE",
"196 116 CURVE SMOOTH",
"259 54 OFFCURVE",
"348 21 OFFCURVE",
"455 21 CURVE SMOOTH",
"536 21 OFFCURVE",
"625 53 OFFCURVE",
"682 104 CURVE SMOOTH",
"686 108 OFFCURVE",
"693 107 OFFCURVE",
"697 103 CURVE SMOOTH",
"701 99 OFFCURVE",
"700 92 OFFCURVE",
"696 88 CURVE SMOOTH",
"635 34 OFFCURVE",
"541 0 OFFCURVE",
"455 0 CURVE SMOOTH",
"342 0 OFFCURVE",
"248 35 OFFCURVE",
"181 101 CURVE SMOOTH",
"122 161 OFFCURVE",
"90 242 OFFCURVE",
"90 334 CURVE SMOOTH",
"90 432 OFFCURVE",
"128 522 OFFCURVE",
"197 589 CURVE SMOOTH",
"267 657 OFFCURVE",
"361 693 OFFCURVE",
"462 690 CURVE SMOOTH",
"559 687 OFFCURVE",
"643 644 OFFCURVE",
"698 569 CURVE SMOOTH",
"754 493 OFFCURVE",
"771 394 OFFCURVE",
"744 298 CURVE SMOOTH"
);
},
{
closed = 1;
nodes = (
"485 352 OFFCURVE",
"483 353 OFFCURVE",
"482 353 CURVE",
"467 358 OFFCURVE",
"451 336 OFFCURVE",
"437 294 CURVE SMOOTH",
"424 256 OFFCURVE",
"421 221 OFFCURVE",
"428 193 CURVE",
"443 215 OFFCURVE",
"458 244 OFFCURVE",
"473 280 CURVE SMOOTH",
"486 311 OFFCURVE",
"491 338 OFFCURVE",
"486 349 CURVE SMOOTH"
);
}
);
width = 757;
}
);
leftKerningGroup = O;
leftMetricsKey = O;
rightKerningGroup = O;
rightMetricsKey = O;
unicode = 0040;
},
{
color = 4;
glyphname = A;
lastChange = "2020-10-10 11:24:21 +0000";
layers = (
{
anchors = (
{
name = bottom;
position = "{143, 0}";
},
{
name = ogonek;
position = "{311, 10}";
},
{
name = top;
position = "{328, 690}";
}
);
background = {
paths = (
{
closed = 1;
nodes = (
"-31 0 OFFCURVE",
"-27 3 OFFCURVE",
"-24 8 CURVE SMOOTH",
"332 673 LINE",
"315 673 LINE",
"316 8 LINE SMOOTH",
"316 3 OFFCURVE",
"320 0 OFFCURVE",
"325 0 CURVE SMOOTH",
"335 0 OFFCURVE",
"337 7 OFFCURVE",
"337 13 CURVE SMOOTH",
"335 682 LINE SMOOTH",
"335 687 OFFCURVE",
"332 690 OFFCURVE",
"326 690 CURVE SMOOTH",
"320 690 OFFCURVE",
"317 687 OFFCURVE",
"314 682 CURVE SMOOTH",
"-45 13 LINE SMOOTH",
"-48 7 OFFCURVE",
"-46 0 OFFCURVE",
"-38 0 CURVE SMOOTH"
);
},
{
closed = 1;
nodes = (
"329 290 LINE",
"110 290 LINE",
"100 269 LINE",
"330 269 LINE"
);
}
);
};
layerId = "8AECA43D-4735-4071-BB51-E4BAE59DF091";
paths = (
{
closed = 1;
nodes = (
"-31 0 OFFCURVE",
"-27 3 OFFCURVE",
"-24 8 CURVE SMOOTH",
"332 673 LINE",
"315 673 LINE",
"316 8 LINE SMOOTH",
"316 3 OFFCURVE",
"320 0 OFFCURVE",
"325 0 CURVE SMOOTH",
"335 0 OFFCURVE",
"337 7 OFFCURVE",
"337 13 CURVE SMOOTH",
"335 682 LINE SMOOTH",
"335 687 OFFCURVE",
"332 690 OFFCURVE",
"326 690 CURVE SMOOTH",
"320 690 OFFCURVE",
"317 687 OFFCURVE",
"314 682 CURVE SMOOTH",
"-45 13 LINE SMOOTH",
"-48 7 OFFCURVE",
"-44 0 OFFCURVE",
"-36 0 CURVE SMOOTH"
);
},
{
closed = 1;
nodes = (
"329 290 LINE",
"110 290 LINE",
"100 269 LINE",
"330 269 LINE"
);
}
);
width = 413;
},
{
associatedMasterId = "8AECA43D-4735-4071-BB51-E4BAE59DF091";
layerId = "D19928CA-1DA2-4730-807A-63C536787262";
name = "Aug 15 20, 12:21";
paths = (
{
closed = 1;
nodes = (
"353 4 OFFCURVE",
"349 -1 OFFCURVE",
"343 -1 CURVE SMOOTH",
"337 -1 OFFCURVE",
"332 4 OFFCURVE",
"332 10 CURVE",
"331 269 LINE",
"132 269 LINE",
"-10 5 LINE SMOOTH",
"-12 0 OFFCURVE",
"-19 -2 OFFCURVE",
"-24 1 CURVE SMOOTH",
"-29 3 OFFCURVE",
"-28 15 OFFCURVE",
"-28 15 CURVE",
"-25 21 OFFCURVE",
"295 615 OFFCURVE",
"332 684 CURVE SMOOTH",
"334 688 OFFCURVE",
"339 690 OFFCURVE",
"343 689 CURVE SMOOTH",
"348 688 OFFCURVE",
"351 684 OFFCURVE",
"351 679 CURVE SMOOTH",
"351 611 OFFCURVE",
"353 16 OFFCURVE",
"353 10 CURVE SMOOTH"
);
},
{
closed = 1;
nodes = (
"331 421 OFFCURVE",
"330 564 OFFCURVE",
"330 637 CURVE",
"144 290 LINE",
"331 290 LINE"
);
}
);
width = 421;
}
);
leftKerningGroup = A;
rightKerningGroup = A;
rightMetricsKey = "=|";
unicode = 0041;
},
{
color = 4;
glyphname = B;
lastChange = "2020-10-02 15:14:38 +0000";
layers = (
{
anchors = (
{
name = bottom;
position = "{128, 0}";
},
{
name = top;
position = "{313, 690}";
}
);
background = {
paths = (
{
closed = 1;
nodes = (
"93 0 LINE SMOOTH",
"219 0 OFFCURVE",
"327 128 OFFCURVE",
"327 277 CURVE SMOOTH",
"327 359 OFFCURVE",
"284 414 OFFCURVE",
"208 414 CURVE SMOOTH",
"174 414 OFFCURVE",
"154 399 OFFCURVE",
"154 376 CURVE SMOOTH",
"154 348 OFFCURVE",
"185 322 OFFCURVE",
"233 322 CURVE SMOOTH",
"320 322 OFFCURVE",
"395 441 OFFCURVE",
"395 575 CURVE SMOOTH",
"395 650 OFFCURVE",
"359 690 OFFCURVE",
"290 690 CURVE SMOOTH",
"190 690 LINE",
"187 669 LINE",
"284 669 LINE SMOOTH",
"343 669 OFFCURVE",
"372 635 OFFCURVE",
"372 571 CURVE SMOOTH",
"372 452 OFFCURVE",
"308 342 OFFCURVE",
"239 342 CURVE SMOOTH",
"202 342 OFFCURVE",
"175 363 OFFCURVE",
"175 379 CURVE SMOOTH",
"175 389 OFFCURVE",
"186 394 OFFCURVE",
"204 394 CURVE SMOOTH",
"266 394 OFFCURVE",
"305 345 OFFCURVE",
"305 270 CURVE SMOOTH",
"305 136 OFFCURVE",
"209 21 OFFCURVE",
"99 21 CURVE SMOOTH",
"14 21 LINE",
"8 0 LINE"
);
}
);
};
components = (
{
name = _v_stem_UC;
}
);
layerId = "8AECA43D-4735-4071-BB51-E4BAE59DF091";
paths = (
{
closed = 1;
nodes = (
"93 0 LINE SMOOTH",
"219 0 OFFCURVE",
"327 104 OFFCURVE",
"327 247 CURVE SMOOTH",
"327 346 OFFCURVE",
"284 414 OFFCURVE",
"208 414 CURVE SMOOTH",
"174 414 OFFCURVE",
"154 401 OFFCURVE",
"154 378 CURVE SMOOTH",
"154 350 OFFCURVE",
"185 322 OFFCURVE",
"230 322 CURVE SMOOTH",
"320 322 OFFCURVE",
"395 421 OFFCURVE",
"395 555 CURVE SMOOTH",
"395 630 OFFCURVE",
"359 690 OFFCURVE",
"290 690 CURVE SMOOTH",
"190 690 LINE",
"187 669 LINE",
"284 669 LINE SMOOTH",
"343 669 OFFCURVE",
"372 615 OFFCURVE",
"372 551 CURVE SMOOTH",
"372 433 OFFCURVE",
"308 343 OFFCURVE",
"231 343 CURVE SMOOTH",
"198 343 OFFCURVE",
"175 361 OFFCURVE",
"175 379 CURVE SMOOTH",
"175 389 OFFCURVE",
"186 394 OFFCURVE",
"204 394 CURVE SMOOTH",
"270 394 OFFCURVE",
"305 339 OFFCURVE",
"305 250 CURVE SMOOTH",
"305 116 OFFCURVE",
"209 21 OFFCURVE",
"99 21 CURVE SMOOTH",
"14 21 LINE",
"8 0 LINE"
);
}
);
width = 384;
},
{
associatedMasterId = "8AECA43D-4735-4071-BB51-E4BAE59DF091";
layerId = "814D82B7-9552-43D6-B8B5-0231E40D0E03";
name = "Aug 15 20, 12:22";
paths = (
{
closed = 1;
nodes = (
"384 501 OFFCURVE",
"370 389 OFFCURVE",
"310 342 CURVE",
"338 286 OFFCURVE",
"326 203 OFFCURVE",
"298 138 CURVE SMOOTH",
"264 59 OFFCURVE",
"208 11 OFFCURVE",
"154 11 CURVE SMOOTH",
"10 11 LINE SMOOTH",
"7 11 OFFCURVE",
"4 12 OFFCURVE",
"2 15 CURVE SMOOTH",
"0 17 OFFCURVE",
"-1 21 OFFCURVE",
"0 24 CURVE SMOOTH",
"173 671 LINE",
"175 675 OFFCURVE",
"179 679 OFFCURVE",
"183 679 CURVE SMOOTH",
"290 679 LINE SMOOTH",
"297 679 OFFCURVE",
"304 677 OFFCURVE",
"311 675 CURVE SMOOTH",
"344 663 OFFCURVE",
"368 621 OFFCURVE",
"376 559 CURVE SMOOTH"
);
},
{
closed = 1;
nodes = (
"280 350 OFFCURVE",
"278 351 OFFCURVE",
"277 352 CURVE",
"251 381 OFFCURVE",
"203 397 OFFCURVE",
"180 392 CURVE SMOOTH",
"175 391 OFFCURVE",
"172 389 OFFCURVE",
"171 386 CURVE SMOOTH",
"170 383 OFFCURVE",
"172 379 OFFCURVE",
"179 371 CURVE SMOOTH",
"197 354 OFFCURVE",
"238 335 OFFCURVE",
"270 344 CURVE SMOOTH",
"274 345 OFFCURVE",
"277 347 OFFCURVE",
"281 348 CURVE"
);
},
{
closed = 1;
nodes = (
"348 609 OFFCURVE",
"329 646 OFFCURVE",
"304 655 CURVE SMOOTH",
"300 657 OFFCURVE",
"295 658 OFFCURVE",
"290 658 CURVE SMOOTH",
"192 658 LINE",
"24 32 LINE",
"154 32 LINE SMOOTH",
"209 32 OFFCURVE",
"255 91 OFFCURVE",
"279 146 CURVE SMOOTH",
"304 204 OFFCURVE",
"316 281 OFFCURVE",
"292 330 CURVE",
"287 328 OFFCURVE",
"281 326 OFFCURVE",
"276 324 CURVE SMOOTH",
"238 313 OFFCURVE",
"189 332 OFFCURVE",
"164 357 CURVE SMOOTH",
"149 372 OFFCURVE",
"149 384 OFFCURVE",
"151 392 CURVE SMOOTH",
"154 402 OFFCURVE",
"163 409 OFFCURVE",
"175 412 CURVE SMOOTH",
"205 419 OFFCURVE",
"260 402 OFFCURVE",
"293 366 CURVE SMOOTH",
"295 364 OFFCURVE",
"297 362 OFFCURVE",
"299 359 CURVE",
"352 403 OFFCURVE",
"362 510 OFFCURVE",
"355 556 CURVE SMOOTH"
);
}
);
width = 378;
}
);
leftKerningGroup = H;
leftMetricsKey = H;
rightKerningGroup = B;
unicode = 0042;
},
{
color = 4;
glyphname = C;
lastChange = "2020-10-10 11:26:31 +0000";
layers = (
{
anchors = (
{
name = bottom;
position = "{157, 0}";
},
{
name = top;
position = "{308, 690}";
}
);
background = {
paths = (
{
closed = 1;
nodes = (
"70 400 OFFCURVE",
"219 674 OFFCURVE",
"350 674 CURVE SMOOTH",
"381 674 OFFCURVE",
"410 664 OFFCURVE",
"428 644 CURVE SMOOTH",
"431 641 OFFCURVE",
"434 640 OFFCURVE",
"436 640 CURVE SMOOTH",
"442 640 OFFCURVE",
"450 647 OFFCURVE",
"450 654 CURVE SMOOTH",
"450 656 OFFCURVE",
"449 658 OFFCURVE",
"447 660 CURVE SMOOTH",
"426 683 OFFCURVE",
"391 695 OFFCURVE",
"355 695 CURVE SMOOTH",
"208 695 OFFCURVE",
"47 415 OFFCURVE",
"47 157 CURVE SMOOTH",
"47 52 OFFCURVE",
"88 -5 OFFCURVE",
"168 -5 CURVE SMOOTH",
"204 -5 OFFCURVE",
"245 7 OFFCURVE",
"278 30 CURVE SMOOTH",
"283 33 OFFCURVE",
"286 37 OFFCURVE",
"286 42 CURVE SMOOTH",
"286 46 OFFCURVE",
"283 50 OFFCURVE",
"278 50 CURVE SMOOTH",
"275 50 OFFCURVE",
"273 49 OFFCURVE",
"270 47 CURVE SMOOTH",
"239 26 OFFCURVE",
"204 16 OFFCURVE",
"173 16 CURVE SMOOTH",
"105 16 OFFCURVE",
"70 68 OFFCURVE",
"70 163 CURVE SMOOTH"
);
}
);
};
layerId = "8AECA43D-4735-4071-BB51-E4BAE59DF091";
paths = (
{
closed = 1;
nodes = (
"70 420 OFFCURVE",
"219 674 OFFCURVE",
"355 674 CURVE SMOOTH",
"381 674 OFFCURVE",
"410 664 OFFCURVE",
"428 644 CURVE SMOOTH",
"431 641 OFFCURVE",
"434 640 OFFCURVE",
"437 640 CURVE SMOOTH",
"443 640 OFFCURVE",
"450 646 OFFCURVE",
"450 653 CURVE SMOOTH",
"450 655 OFFCURVE",
"449 658 OFFCURVE",
"447 660 CURVE SMOOTH",
"426 683 OFFCURVE",
"388 695 OFFCURVE",
"357 695 CURVE SMOOTH",
"205 695 OFFCURVE",
"48 435 OFFCURVE",
"48 177 CURVE SMOOTH",
"48 72 OFFCURVE",
"88 -5 OFFCURVE",
"174 -5 CURVE SMOOTH",
"206 -5 OFFCURVE",
"247 7 OFFCURVE",
"278 30 CURVE SMOOTH",
"283 33 OFFCURVE",
"286 37 OFFCURVE",
"286 42 CURVE SMOOTH",
"286 46 OFFCURVE",
"283 50 OFFCURVE",
"278 50 CURVE SMOOTH",
"275 50 OFFCURVE",
"273 49 OFFCURVE",
"270 47 CURVE SMOOTH",
"241 26 OFFCURVE",
"203 16 OFFCURVE",
"176 16 CURVE SMOOTH",
"102 16 OFFCURVE",
"70 88 OFFCURVE",
"70 183 CURVE SMOOTH"
);
}
);
width = 374;
},
{
associatedMasterId = "8AECA43D-4735-4071-BB51-E4BAE59DF091";
layerId = "6D331E23-A414-4361-9144-2660708BFDE0";
name = "Aug 15 20, 12:27";
paths = (
{
closed = 1;
nodes = (
"458 640 OFFCURVE",
"447 642 OFFCURVE",
"447 642 CURVE",
"438 648 OFFCURVE",
"407 668 OFFCURVE",
"364 668 CURVE SMOOTH",
"262 668 OFFCURVE",
"171 548 OFFCURVE",
"116 343 CURVE SMOOTH",
"80 205 OFFCURVE",
"80 102 OFFCURVE",
"118 53 CURVE SMOOTH",
"134 32 OFFCURVE",
"157 21 OFFCURVE",
"187 21 CURVE SMOOTH",
"217 21 OFFCURVE",
"286 48 OFFCURVE",
"286 48 CURVE",
"291 50 OFFCURVE",
"297 48 OFFCURVE",
"300 43 CURVE SMOOTH",
"303 38 OFFCURVE",
"296 29 OFFCURVE",
"296 29 CURVE",
"260 11 OFFCURVE",
"220 0 OFFCURVE",
"187 0 CURVE SMOOTH",
"150 0 OFFCURVE",
"122 13 OFFCURVE",
"101 40 CURVE SMOOTH",
"59 95 OFFCURVE",
"57 202 OFFCURVE",
"96 348 CURVE SMOOTH",
"154 563 OFFCURVE",
"252 689 OFFCURVE",
"364 689 CURVE SMOOTH",
"398 689 OFFCURVE",
"433 678 OFFCURVE",
"459 659 CURVE SMOOTH",
"464 656 OFFCURVE",
"465 649 OFFCURVE",
"461 644 CURVE SMOOTH"
);
}
);
width = 371;
}
);
leftKerningGroup = O;
leftMetricsKey = O;
rightKerningGroup = C;
unicode = 0043;
},
{
color = 4;
glyphname = D;
lastChange = "2020-10-02 15:14:38 +0000";
layers = (
{
anchors = (
{
name = bottom;
position = "{142, 0}";
},
{
name = center;
position = "{235, 345}";
},
{
name = top;
position = "{327, 690}";
}
);
components = (
{
name = _v_stem_UC;
}
);
layerId = "8AECA43D-4735-4071-BB51-E4BAE59DF091";
paths = (
{
closed = 1;
nodes = (
"368 669 OFFCURVE",
"397 605 OFFCURVE",
"397 505 CURVE SMOOTH",
"397 279 OFFCURVE",
"252 21 OFFCURVE",
"129 21 CURVE",
"123 0 LINE",
"266 0 OFFCURVE",
"420 263 OFFCURVE",
"420 501 CURVE SMOOTH",
"420 617 OFFCURVE",
"381 690 OFFCURVE",
"294 690 CURVE",
"292 669 LINE"
);
},
{
closed = 1;
nodes = (
"129 21 LINE",
"16 21 LINE",
"10 0 LINE",
"123 0 LINE"
);
},
{
closed = 1;
nodes = (
"294 690 LINE",
"191 690 LINE",
"185 669 LINE",
"292 669 LINE"
);
}
);
width = 411;
},
{
associatedMasterId = "8AECA43D-4735-4071-BB51-E4BAE59DF091";
layerId = "4970AAA3-B206-428E-804D-6B2C72EE5AE3";
name = "Aug 15 20, 12:29";
paths = (
{
closed = 1;
nodes = (
"381 220 OFFCURVE",
"351 157 OFFCURVE",
"309 100 CURVE SMOOTH",
"264 41 OFFCURVE",
"211 11 OFFCURVE",
"152 11 CURVE SMOOTH",
"40 11 LINE SMOOTH",
"37 11 OFFCURVE",
"34 12 OFFCURVE",
"32 15 CURVE SMOOTH",
"30 18 OFFCURVE",
"29 21 OFFCURVE",
"30 24 CURVE SMOOTH",
"203 671 LINE",
"205 676 OFFCURVE",
"209 679 OFFCURVE",
"214 679 CURVE SMOOTH",
"310 679 LINE SMOOTH",
"346 679 OFFCURVE",
"375 664 OFFCURVE",
"397 637 CURVE SMOOTH",
"441 580 OFFCURVE",
"446 471 OFFCURVE",
"410 331 CURVE SMOOTH"
);
},
{
closed = 1;
nodes = (
"423 468 OFFCURVE",
"420 573 OFFCURVE",
"380 624 CURVE SMOOTH",
"363 646 OFFCURVE",
"339 658 OFFCURVE",
"310 658 CURVE SMOOTH",
"222 658 LINE",
"54 32 LINE",
"152 32 LINE SMOOTH",
"253 32 OFFCURVE",
"337 136 OFFCURVE",
"389 336 CURVE SMOOTH"
);
}
);
width = 414;
}
);
leftKerningGroup = H;
leftMetricsKey = H;
rightKerningGroup = O;
rightMetricsKey = O;
unicode = 0044;
},
{
color = 4;
glyphname = E;
lastChange = "2020-10-10 11:28:27 +0000";
layers = (
{
anchors = (
{
name = bottom;
position = "{104, 0}";
},
{
name = ogonek;
position = "{241, 10}";
},
{
name = top;
position = "{319, 690}";
},
{
name = topleft;
position = "{141, 690}";
}
);
background = {
paths = (
{
closed = 1;
nodes = (
"410 686 OFFCURVE",
"406 690 OFFCURVE",
"401 690 CURVE SMOOTH",
"215 690 LINE SMOOTH",
"208 690 OFFCURVE",
"203 685 OFFCURVE",
"203 678 CURVE SMOOTH",
"203 673 OFFCURVE",
"207 669 OFFCURVE",
"212 669 CURVE SMOOTH",
"398 669 LINE SMOOTH",
"405 669 OFFCURVE",
"410 674 OFFCURVE",
"410 681 CURVE SMOOTH"
);
}
);
};
guideLines = (
{
angle = 75;
position = "{272, 128}";
}
);
layerId = "8AECA43D-4735-4071-BB51-E4BAE59DF091";
paths = (
{
closed = 1;
nodes = (
"405 669 OFFCURVE",
"410 674 OFFCURVE",
"410 681 CURVE SMOOTH",
"410 686 OFFCURVE",
"406 690 OFFCURVE",
"401 690 CURVE SMOOTH",
"369 690 LINE SMOOTH",
"212 690 OFFCURVE",
"135 586 OFFCURVE",
"135 470 CURVE SMOOTH",
"135 376 OFFCURVE",
"173 324 OFFCURVE",
"239 324 CURVE SMOOTH",
"270 324 OFFCURVE",
"293 338 OFFCURVE",
"293 361 CURVE SMOOTH",
"293 390 OFFCURVE",
"258 409 OFFCURVE",
"219 409 CURVE SMOOTH",
"120 409 OFFCURVE",
"28 286 OFFCURVE",
"28 158 CURVE SMOOTH",
"28 66 OFFCURVE",
"77 0 OFFCURVE",
"192 0 CURVE SMOOTH",
"228 0 LINE SMOOTH",
"235 0 OFFCURVE",
"240 5 OFFCURVE",
"240 12 CURVE SMOOTH",
"240 17 OFFCURVE",
"236 21 OFFCURVE",
"231 21 CURVE SMOOTH",
"198 21 LINE SMOOTH",
"87 21 OFFCURVE",
"50 77 OFFCURVE",
"50 158 CURVE SMOOTH",
"50 278 OFFCURVE",
"131 389 OFFCURVE",
"219 389 CURVE SMOOTH",
"245 389 OFFCURVE",
"272 379 OFFCURVE",
"272 362 CURVE SMOOTH",
"272 350 OFFCURVE",
"258 344 OFFCURVE",
"241 344 CURVE SMOOTH",
"186 344 OFFCURVE",
"157 385 OFFCURVE",
"157 467 CURVE SMOOTH",
"157 574 OFFCURVE",
"221 669 OFFCURVE",
"363 669 CURVE SMOOTH",
"398 669 LINE SMOOTH"
);
}
);
width = 336;
},
{
associatedMasterId = "8AECA43D-4735-4071-BB51-E4BAE59DF091";
layerId = "12CECE28-ACA9-4FB2-8F9C-3802C8191B9B";
name = "Aug 15 20, 12:30";
paths = (
{
closed = 1;
nodes = (
"415 663 OFFCURVE",
"404 658 OFFCURVE",
"404 658 CURVE",
"325 658 LINE SMOOTH",
"266 658 OFFCURVE",
"216 605 OFFCURVE",
"191 511 CURVE SMOOTH",
"181 472 OFFCURVE",
"181 432 OFFCURVE",
"190 403 CURVE",
"199 407 OFFCURVE",
"208 409 OFFCURVE",
"218 409 CURVE",
"257 410 OFFCURVE",
"294 390 OFFCURVE",
"308 369 CURVE SMOOTH",
"315 359 OFFCURVE",
"316 348 OFFCURVE",
"312 339 CURVE SMOOTH",
"309 334 OFFCURVE",
"303 327 OFFCURVE",
"287 325 CURVE SMOOTH",
"258 321 OFFCURVE",
"208 338 OFFCURVE",
"186 366 CURVE SMOOTH",
"184 369 OFFCURVE",
"182 371 OFFCURVE",
"181 374 CURVE",
"142 347 OFFCURVE",
"104 288 OFFCURVE",
"84 215 CURVE SMOOTH",
"70 162 OFFCURVE",
"54 89 OFFCURVE",
"80 54 CURVE SMOOTH",
"91 40 OFFCURVE",
"109 33 OFFCURVE",
"136 33 CURVE SMOOTH",
"253 33 LINE SMOOTH",
"259 33 OFFCURVE",
"264 28 OFFCURVE",
"264 22 CURVE SMOOTH",
"264 16 OFFCURVE",
"253 12 OFFCURVE",
"253 12 CURVE",
"136 12 LINE SMOOTH",
"103 12 OFFCURVE",
"79 22 OFFCURVE",
"63 42 CURVE SMOOTH",
"32 83 OFFCURVE",
"47 159 OFFCURVE",
"64 220 CURVE SMOOTH",
"83 291 OFFCURVE",
"123 362 OFFCURVE",
"171 393 CURVE",
"158 430 OFFCURVE",
"161 478 OFFCURVE",
"171 517 CURVE SMOOTH",
"199 620 OFFCURVE",
"256 679 OFFCURVE",
"325 679 CURVE SMOOTH",
"404 679 LINE SMOOTH",
"410 679 OFFCURVE",
"415 674 OFFCURVE",
"415 668 CURVE SMOOTH"
);
},
{
closed = 1;
nodes = (
"276 378 OFFCURVE",
"249 389 OFFCURVE",
"218 388 CURVE",
"212 388 OFFCURVE",
"206 387 OFFCURVE",
"199 384 CURVE",
"200 382 OFFCURVE",
"201 381 OFFCURVE",
"202 380 CURVE",
"219 359 OFFCURVE",
"259 344 OFFCURVE",
"283 345 CURVE SMOOTH",
"293 346 OFFCURVE",
"294 352 OFFCURVE",
"290 358 CURVE SMOOTH"
);
}
);
visible = 1;
width = 330;
}
);
leftKerningGroup = E;
leftMetricsKey = O;
rightKerningGroup = E;
rightMetricsKey = C;
unicode = 0045;
},
{
color = 4;
glyphname = F;
lastChange = "2020-10-10 11:26:54 +0000";
layers = (
{
anchors = (
{
name = bottom;
position = "{87, 0}";
},
{
name = top;
position = "{272, 690}";
}
);
background = {
paths = (
{
closed = 1;
nodes = (
"382 669 OFFCURVE",
"389 676 OFFCURVE",
"389 683 CURVE SMOOTH",
"389 687 OFFCURVE",
"386 690 OFFCURVE",
"381 690 CURVE SMOOTH",
"192 690 LINE SMOOTH",
"185 690 OFFCURVE",
"179 684 OFFCURVE",
"179 676 CURVE SMOOTH",
"179 671 OFFCURVE",
"182 669 OFFCURVE",
"186 669 CURVE SMOOTH",
"375 669 LINE SMOOTH"
);
},
{
closed = 1;
nodes = (
"290 361 OFFCURVE",
"296 368 OFFCURVE",
"296 375 CURVE SMOOTH",
"296 380 OFFCURVE",
"292 382 OFFCURVE",
"288 382 CURVE SMOOTH",
"109 382 LINE SMOOTH",
"102 382 OFFCURVE",
"96 375 OFFCURVE",
"96 368 CURVE SMOOTH",
"96 363 OFFCURVE",
"100 361 OFFCURVE",
"104 361 CURVE SMOOTH",
"283 361 LINE SMOOTH"
);
}
);
};
components = (
{
name = _v_stem_UC;
}
);
layerId = "8AECA43D-4735-4071-BB51-E4BAE59DF091";
paths = (
{
closed = 1;
nodes = (
"296 378 OFFCURVE",
"292 382 OFFCURVE",
"287 382 CURVE SMOOTH",
"111 382 LINE SMOOTH",
"104 382 OFFCURVE",
"99 377 OFFCURVE",
"99 370 CURVE SMOOTH",
"99 365 OFFCURVE",
"103 361 OFFCURVE",
"108 361 CURVE SMOOTH",
"284 361 LINE SMOOTH",
"291 361 OFFCURVE",
"296 366 OFFCURVE",
"296 373 CURVE SMOOTH"
);
},
{
closed = 1;
nodes = (
"389 686 OFFCURVE",
"385 690 OFFCURVE",
"380 690 CURVE SMOOTH",
"191 690 LINE SMOOTH",
"184 690 OFFCURVE",
"179 685 OFFCURVE",
"179 678 CURVE SMOOTH",
"179 673 OFFCURVE",
"183 669 OFFCURVE",
"188 669 CURVE SMOOTH",
"377 669 LINE SMOOTH",
"384 669 OFFCURVE",
"389 674 OFFCURVE",
"389 681 CURVE SMOOTH"
);
}
);
width = 301;
},
{
associatedMasterId = "8AECA43D-4735-4071-BB51-E4BAE59DF091";
layerId = "D6EE6148-7F84-4168-BFF6-B232AEC34626";
name = "Aug 15 20, 12:44";
paths = (
{
closed = 1;
nodes = (
"412 662 OFFCURVE",
"402 658 OFFCURVE",
"402 658 CURVE",
"224 658 LINE",
"150 382 LINE",
"322 382 LINE SMOOTH",
"328 382 OFFCURVE",
"333 377 OFFCURVE",
"333 372 CURVE SMOOTH",
"333 366 OFFCURVE",
"328 361 OFFCURVE",
"322 361 CURVE SMOOTH",
"145 361 LINE",
"50 8 LINE SMOOTH",
"49 2 OFFCURVE",
"43 -1 OFFCURVE",
"37 0 CURVE SMOOTH",
"32 2 OFFCURVE",
"29 7 OFFCURVE",
"30 13 CURVE SMOOTH",
"206 671 LINE SMOOTH",
"207 675 OFFCURVE",
"211 679 OFFCURVE",
"216 679 CURVE SMOOTH",
"402 679 LINE SMOOTH",
"408 679 OFFCURVE",
"412 674 OFFCURVE",
"412 668 CURVE SMOOTH"
);
}
);
width = 312;
}
);
leftKerningGroup = H;
leftMetricsKey = H;
rightKerningGroup = F;
unicode = 0046;
},
{
color = 4;
glyphname = G;
lastChange = "2020-10-02 15:14:38 +0000";
layers = (
{
anchors = (
{
name = bottom;
position = "{132, 0}";
},
{
name = top;
position = "{317, 690}";
}
);
background = {
paths = (
{
closed = 1;
nodes = (
"297 45 OFFCURVE",
"300 48 OFFCURVE",
"301 53 CURVE SMOOTH",
"365 289 LINE",
"344 289 LINE",
"281 56 LINE",
"250 29 OFFCURVE",
"210 16 OFFCURVE",
"176 16 CURVE SMOOTH",
"102 16 OFFCURVE",
"70 88 OFFCURVE",
"70 183 CURVE SMOOTH",
"70 420 OFFCURVE",
"219 674 OFFCURVE",
"355 674 CURVE SMOOTH",
"381 674 OFFCURVE",
"410 664 OFFCURVE",
"428 644 CURVE SMOOTH",
"431 641 OFFCURVE",
"434 640 OFFCURVE",
"437 640 CURVE SMOOTH",
"443 640 OFFCURVE",
"450 646 OFFCURVE",
"450 653 CURVE SMOOTH",
"450 655 OFFCURVE",
"449 658 OFFCURVE",
"447 660 CURVE SMOOTH",
"426 683 OFFCURVE",
"388 695 OFFCURVE",
"357 695 CURVE SMOOTH",
"205 695 OFFCURVE",
"48 435 OFFCURVE",
"48 177 CURVE SMOOTH",
"48 72 OFFCURVE",
"88 -5 OFFCURVE",
"174 -5 CURVE SMOOTH",
"219 -5 OFFCURVE",
"256 12 OFFCURVE",
"292 41 CURVE SMOOTH"
);
},
{
closed = 1;
nodes = (
"359 278 OFFCURVE",
"365 285 OFFCURVE",
"365 292 CURVE SMOOTH",
"365 297 OFFCURVE",
"361 299 OFFCURVE",
"357 299 CURVE SMOOTH",
"238 299 LINE SMOOTH",
"231 299 OFFCURVE",
"225 292 OFFCURVE",
"225 285 CURVE SMOOTH",
"225 280 OFFCURVE",
"229 278 OFFCURVE",
"233 278 CURVE SMOOTH",
"352 278 LINE SMOOTH"
);
}
);
};
layerId = "8AECA43D-4735-4071-BB51-E4BAE59DF091";
paths = (
{
closed = 1;
nodes = (
"280 57 LINE",
"249 30 OFFCURVE",
"210 16 OFFCURVE",
"176 16 CURVE SMOOTH",
"102 16 OFFCURVE",
"70 88 OFFCURVE",
"70 183 CURVE SMOOTH",
"70 420 OFFCURVE",
"219 674 OFFCURVE",
"355 674 CURVE SMOOTH",
"381 674 OFFCURVE",
"410 664 OFFCURVE",
"428 644 CURVE SMOOTH",
"431 641 OFFCURVE",
"434 640 OFFCURVE",
"437 640 CURVE SMOOTH",
"443 640 OFFCURVE",
"450 646 OFFCURVE",
"450 653 CURVE SMOOTH",
"450 655 OFFCURVE",
"449 658 OFFCURVE",
"447 660 CURVE SMOOTH",
"426 683 OFFCURVE",
"388 695 OFFCURVE",
"357 695 CURVE SMOOTH",
"205 695 OFFCURVE",
"48 435 OFFCURVE",
"48 177 CURVE SMOOTH",
"48 72 OFFCURVE",
"88 -5 OFFCURVE",
"174 -5 CURVE SMOOTH",
"219 -5 OFFCURVE",
"256 12 OFFCURVE",
"292 41 CURVE SMOOTH",
"297 45 OFFCURVE",
"300 48 OFFCURVE",
"301 53 CURVE SMOOTH",
"365 290 LINE SMOOTH",
"366 295 OFFCURVE",
"363 299 OFFCURVE",
"358 299 CURVE SMOOTH",
"237 299 LINE SMOOTH",
"230 299 OFFCURVE",
"225 294 OFFCURVE",
"225 287 CURVE SMOOTH",
"225 282 OFFCURVE",
"229 278 OFFCURVE",
"234 278 CURVE SMOOTH",
"353 278 LINE",
"343 289 LINE"
);
}
);
width = 391;
},
{
associatedMasterId = "8AECA43D-4735-4071-BB51-E4BAE59DF091";
layerId = "A3A0B824-D471-466B-BF66-93637C237E81";
name = "Aug 15 20, 12:46";
paths = (
{
closed = 1;
nodes = (
"468 640 OFFCURVE",
"462 639 OFFCURVE",
"457 643 CURVE SMOOTH",
"440 656 OFFCURVE",
"395 670 OFFCURVE",
"359 670 CURVE SMOOTH",
"258 670 OFFCURVE",
"172 565 OFFCURVE",
"115 351 CURVE SMOOTH",
"76 205 OFFCURVE",
"77 103 OFFCURVE",
"116 52 CURVE SMOOTH",
"132 31 OFFCURVE",
"155 20 OFFCURVE",
"184 20 CURVE SMOOTH",
"217 20 OFFCURVE",
"268 40 OFFCURVE",
"295 54 CURVE",
"356 279 LINE",
"252 279 LINE SMOOTH",
"246 279 OFFCURVE",
"241 283 OFFCURVE",
"241 289 CURVE SMOOTH",
"241 295 OFFCURVE",
"246 300 OFFCURVE",
"252 300 CURVE SMOOTH",
"369 300 LINE SMOOTH",
"373 300 OFFCURVE",
"376 298 OFFCURVE",
"378 295 CURVE SMOOTH",
"380 293 OFFCURVE",
"380 290 OFFCURVE",
"379 286 CURVE SMOOTH",
"314 44 LINE",
"314 41 OFFCURVE",
"312 39 OFFCURVE",
"309 37 CURVE SMOOTH",
"280 22 OFFCURVE",
"222 -1 OFFCURVE",
"184 -1 CURVE SMOOTH",
"148 -1 OFFCURVE",
"120 13 OFFCURVE",
"100 39 CURVE SMOOTH",
"56 96 OFFCURVE",
"53 202 OFFCURVE",
"94 356 CURVE SMOOTH",
"154 580 OFFCURVE",
"248 691 OFFCURVE",
"359 691 CURVE SMOOTH",
"397 691 OFFCURVE",
"448 677 OFFCURVE",
"470 659 CURVE SMOOTH",
"475 656 OFFCURVE",
"475 649 OFFCURVE",
"472 645 CURVE SMOOTH"
);
}
);
width = 407;
}
);
leftKerningGroup = O;
leftMetricsKey = O;
rightKerningGroup = G;
rightMetricsKey = O;
unicode = 0047;
},
{
color = 4;
glyphname = H;
lastChange = "2020-10-02 15:14:38 +0000";
layers = (
{
anchors = (
{
name = bottom;
position = "{149, 0}";
},
{
name = center;
position = "{242, 345}";
},
{
name = top;
position = "{334, 690}";
},
{
name = topleft;
position = "{141, 690}";
}
);
background = {
paths = (
{
closed = 1;
nodes = (
"442 371 LINE",
"345 10 LINE SMOOTH",
"344 4 OFFCURVE",
"338 0 OFFCURVE",
"332 0 CURVE SMOOTH",
"326 0 OFFCURVE",
"323 4 OFFCURVE",
"324 10 CURVE SMOOTH",
"418 360 LINE",
"155 360 LINE",
"61 10 LINE SMOOTH",
"60 4 OFFCURVE",
"54 0 OFFCURVE",
"48 0 CURVE SMOOTH",
"43 0 OFFCURVE",
"39 4 OFFCURVE",
"40 10 CURVE SMOOTH",
"219 679 LINE SMOOTH",
"221 685 OFFCURVE",
"227 690 OFFCURVE",
"232 690 CURVE SMOOTH",
"238 690 OFFCURVE",
"242 685 OFFCURVE",
"240 679 CURVE SMOOTH",
"161 381 LINE",
"424 381 LINE",
"503 679 LINE SMOOTH",
"505 685 OFFCURVE",
"510 690 OFFCURVE",
"516 690 CURVE SMOOTH",
"522 690 OFFCURVE",
"526 685 OFFCURVE",
"524 679 CURVE SMOOTH",
"442 371 LINE",
"442 371 LINE"
);
}
);
};
components = (
{
name = _v_stem_UC;
transform = "{1, 0, 0, 1, 284, 0}";
},
{
name = _v_stem_UC;
}
);
layerId = "8AECA43D-4735-4071-BB51-E4BAE59DF091";
paths = (
{
closed = 1;
nodes = (
"393 381 LINE",
"114 381 LINE",
"108 360 LINE",
"387 360 LINE"
);
}
);
width = 426;
},
{
associatedMasterId = "8AECA43D-4735-4071-BB51-E4BAE59DF091";
background = {
paths = (
{
closed = 1;
nodes = (
"442 371 LINE",
"345 10 LINE SMOOTH",
"344 4 OFFCURVE",
"338 0 OFFCURVE",
"332 0 CURVE SMOOTH",
"326 0 OFFCURVE",
"323 4 OFFCURVE",
"324 10 CURVE SMOOTH",
"418 360 LINE",
"155 360 LINE",
"61 10 LINE SMOOTH",
"60 4 OFFCURVE",
"54 0 OFFCURVE",
"48 0 CURVE SMOOTH",
"43 0 OFFCURVE",
"39 4 OFFCURVE",
"40 10 CURVE SMOOTH",
"219 679 LINE SMOOTH",
"221 685 OFFCURVE",
"227 690 OFFCURVE",
"232 690 CURVE SMOOTH",
"238 690 OFFCURVE",
"242 685 OFFCURVE",
"240 679 CURVE SMOOTH",
"161 381 LINE",
"424 381 LINE",
"503 679 LINE SMOOTH",
"505 685 OFFCURVE",
"510 690 OFFCURVE",
"516 690 CURVE SMOOTH",
"522 690 OFFCURVE",
"526 685 OFFCURVE",
"524 679 CURVE SMOOTH",
"442 371 LINE",
"442 371 LINE"
);
}
);
};
layerId = "F8608E4A-E952-4E04-BEE7-A3EFA954A768";
name = "Aug 15 20, 12:40";
paths = (
{
closed = 1;
nodes = (
"441 368 LINE",
"441 368 LINE",
"344 7 LINE",
"342 2 OFFCURVE",
"337 -2 OFFCURVE",
"331 0 CURVE SMOOTH",
"325 1 OFFCURVE",
"324 13 OFFCURVE",
"324 13 CURVE",
"417 360 LINE",
"155 360 LINE",
"60 7 LINE SMOOTH",
"59 2 OFFCURVE",
"53 -2 OFFCURVE",
"47 0 CURVE SMOOTH",
"42 1 OFFCURVE",
"40 13 OFFCURVE",
"40 13 CURVE",
"219 682 LINE",
"221 687 OFFCURVE",
"226 690 OFFCURVE",
"232 689 CURVE SMOOTH",
"238 687 OFFCURVE",
"241 682 OFFCURVE",
"239 676 CURVE SMOOTH",
"160 381 LINE",
"422 381 LINE",
"503 682 LINE SMOOTH",
"504 687 OFFCURVE",
"510 690 OFFCURVE",
"516 689 CURVE SMOOTH",
"521 687 OFFCURVE",
"525 682 OFFCURVE",
"523 676 CURVE SMOOTH"
);
}
);
width = 473;
}
);
leftKerningGroup = H;
rightKerningGroup = H;
rightMetricsKey = "=|";
unicode = 0048;
},
{
color = 4;
glyphname = I;
lastChange = "2020-10-02 15:14:38 +0000";
layers = (
{
anchors = (
{
name = bottom;
position = "{7, 0}";
},
{
name = ogonek;
position = "{67, 10}";
},
{
name = top;
position = "{192, 690}";
},
{
name = topleft;
position = "{141, 690}";
}
);
components = (
{
name = _v_stem_UC;
}
);
layerId = "8AECA43D-4735-4071-BB51-E4BAE59DF091";
width = 142;
},
{
associatedMasterId = "8AECA43D-4735-4071-BB51-E4BAE59DF091";
layerId = "EFA7FA5A-DB1A-4576-A8A3-3F41395AB53E";
name = "Aug 15 20, 12:58";
paths = (
{
closed = 1;
nodes = (
"60 7 LINE SMOOTH",
"59 2 OFFCURVE",
"53 -2 OFFCURVE",
"47 0 CURVE SMOOTH",
"42 1 OFFCURVE",
"39 7 OFFCURVE",
"40 13 CURVE SMOOTH",
"219 682 LINE",
"221 687 OFFCURVE",
"227 691 OFFCURVE",
"232 689 CURVE SMOOTH",
"238 688 OFFCURVE",
"240 676 OFFCURVE",
"240 676 CURVE"
);
}
);
width = 190;
}
);
leftKerningGroup = H;
rightKerningGroup = H;
unicode = 0049;
},
{
color = 4;
glyphname = J;
lastChange = "2020-10-02 15:14:38 +0000";
layers = (
{
anchors = (
{
name = bottom;
position = "{8, 0}";
},
{
name = top;
position = "{193, 690}";
}
);
background = {
paths = (
{
closed = 1;
nodes = (
"-190 -162 OFFCURVE",
"-196 -169 OFFCURVE",
"-196 -176 CURVE SMOOTH",
"-196 -180 OFFCURVE",
"-193 -183 OFFCURVE",
"-188 -183 CURVE SMOOTH",
"-87 -183 OFFCURVE",
"-18 -125 OFFCURVE",
"14 -14 CURVE SMOOTH",
"21 10 LINE",
"0 12 LINE",
"-7 -14 LINE SMOOTH",
"-34 -114 OFFCURVE",
"-89 -162 OFFCURVE",
"-183 -162 CURVE SMOOTH"
);
}
);
};
components = (
{
name = _v_stem_UC;
transform = "{1, 0, 0, 1, 1, 0}";
}
);
layerId = "8AECA43D-4735-4071-BB51-E4BAE59DF091";
paths = (
{
closed = 1;
nodes = (
"-190 -162 OFFCURVE",
"-195 -167 OFFCURVE",
"-195 -174 CURVE SMOOTH",
"-195 -179 OFFCURVE",
"-191 -183 OFFCURVE",
"-186 -183 CURVE SMOOTH",
"-82 -183 OFFCURVE",
"-20 -131 OFFCURVE",
"14 -14 CURVE SMOOTH",
"21 10 LINE",
"0 12 LINE",
"-10 -20 LINE SMOOTH",
"-39 -113 OFFCURVE",
"-89 -162 OFFCURVE",
"-183 -162 CURVE SMOOTH"
);
}
);
width = 143;
},
{
associatedMasterId = "8AECA43D-4735-4071-BB51-E4BAE59DF091";
layerId = "3B6E0592-E737-4478-BF72-9E774F77AC5F";
name = "Aug 15 20, 12:58";
paths = (
{
closed = 1;
nodes = (
"69 -17 LINE SMOOTH",
"39 -127 OFFCURVE",
"-28 -183 OFFCURVE",
"-130 -183 CURVE SMOOTH",
"-135 -183 OFFCURVE",
"-140 -178 OFFCURVE",
"-140 -172 CURVE SMOOTH",
"-140 -166 OFFCURVE",
"-130 -162 OFFCURVE",
"-130 -162 CURVE",
"-37 -162 OFFCURVE",
"21 -112 OFFCURVE",
"48 -11 CURVE SMOOTH",
"234 682 LINE SMOOTH",
"236 688 OFFCURVE",
"241 691 OFFCURVE",
"247 689 CURVE SMOOTH",
"253 688 OFFCURVE",
"254 677 OFFCURVE",
"254 677 CURVE"
);
}
);
width = 204;
}
);
leftKerningGroup = J;
rightKerningGroup = U;
rightMetricsKey = H;
unicode = 004A;
},
{
color = 4;
glyphname = K;
lastChange = "2020-10-10 11:30:23 +0000";
layers = (
{
anchors = (
{
name = bottom;
position = "{137, 0}";
},
{
name = top;
position = "{322, 690}";
}
);
background = {
paths = (
{
closed = 1;
nodes = (
"449 668 OFFCURVE",
"486 670 CURVE SMOOTH",
"493 670 OFFCURVE",
"498 668 OFFCURVE",
"498 662 CURVE SMOOTH",
"498 637 OFFCURVE",
"409 619 OFFCURVE",
"330 624 CURVE",
"328 604 LINE",
"426 596 OFFCURVE",
"519 619 OFFCURVE",
"519 664 CURVE SMOOTH",
"519 681 OFFCURVE",
"506 690 OFFCURVE",
"486 690 CURVE SMOOTH",
"441 690 OFFCURVE",
"407 656 OFFCURVE",
"341 531 CURVE SMOOTH",
"276 408 OFFCURVE",
"209 353 OFFCURVE",
"108 353 CURVE SMOOTH",
"86 353 OFFCURVE",
"71 357 OFFCURVE",
"71 364 CURVE SMOOTH",
"71 381 OFFCURVE",
"127 400 OFFCURVE",
"179 400 CURVE SMOOTH",
"292 400 OFFCURVE",
"317 326 OFFCURVE",
"310 216 CURVE SMOOTH",
"296 10 LINE SMOOTH",
"296 3 OFFCURVE",
"300 0 OFFCURVE",
"305 0 CURVE SMOOTH",
"312 0 OFFCURVE",
"316 3 OFFCURVE",
"317 12 CURVE SMOOTH",
"331 220 LINE SMOOTH",
"340 353 OFFCURVE",
"291 421 OFFCURVE",
"184 421 CURVE SMOOTH",
"113 421 OFFCURVE",
"49 394 OFFCURVE",
"49 361 CURVE SMOOTH",
"49 345 OFFCURVE",
"68 332 OFFCURVE",
"107 332 CURVE SMOOTH",
"213 332 OFFCURVE",
"290 389 OFFCURVE",
"363 527 CURVE SMOOTH",
"416 627 OFFCURVE"
);
}
);
};
components = (
{
alignment = -1;
name = _v_stem_UC;
transform = "{1, 0, 0, 1, 39, 0}";
}
);
layerId = "8AECA43D-4735-4071-BB51-E4BAE59DF091";
paths = (
{
closed = 1;
nodes = (
"324 626 OFFCURVE",
"319 621 OFFCURVE",
"319 614 CURVE SMOOTH",
"319 609 OFFCURVE",
"322 605 OFFCURVE",
"328 604 CURVE SMOOTH",
"409 597 OFFCURVE",
"519 613 OFFCURVE",
"519 664 CURVE SMOOTH",
"519 681 OFFCURVE",
"508 690 OFFCURVE",
"486 690 CURVE SMOOTH",
"443 690 OFFCURVE",
"407 656 OFFCURVE",
"341 531 CURVE SMOOTH",
"276 408 OFFCURVE",
"209 353 OFFCURVE",
"108 353 CURVE SMOOTH",
"86 353 OFFCURVE",
"71 357 OFFCURVE",
"71 364 CURVE SMOOTH",
"71 381 OFFCURVE",
"127 400 OFFCURVE",
"179 400 CURVE SMOOTH",
"293 400 OFFCURVE",
"317 328 OFFCURVE",
"310 216 CURVE SMOOTH",
"297 10 LINE SMOOTH",
"296 3 OFFCURVE",
"300 0 OFFCURVE",
"305 0 CURVE SMOOTH",
"312 0 OFFCURVE",
"316 3 OFFCURVE",
"317 12 CURVE SMOOTH",
"331 220 LINE SMOOTH",
"340 352 OFFCURVE",
"291 421 OFFCURVE",
"184 421 CURVE SMOOTH",
"113 421 OFFCURVE",
"49 395 OFFCURVE",
"49 362 CURVE SMOOTH",
"49 346 OFFCURVE",
"68 332 OFFCURVE",
"107 332 CURVE SMOOTH",
"215 332 OFFCURVE",
"288 386 OFFCURVE",
"363 527 CURVE SMOOTH",
"416 627 OFFCURVE",
"449 670 OFFCURVE",
"486 670 CURVE SMOOTH",
"493 670 OFFCURVE",
"498 668 OFFCURVE",
"498 662 CURVE SMOOTH",
"498 632 OFFCURVE",
"392 618 OFFCURVE",
"331 625 CURVE SMOOTH"
);
}
);
width = 436;
},
{
associatedMasterId = "8AECA43D-4735-4071-BB51-E4BAE59DF091";
layerId = "4FDBEE1B-D821-4D4E-9E7C-AC9ECAA0DA63";
name = "Aug 15 20, 13:00";
paths = (
{
closed = 1;
nodes = (
"527 647 OFFCURVE",
"490 622 OFFCURVE",
"452 613 CURVE SMOOTH",
"434 609 OFFCURVE",
"416 606 OFFCURVE",
"398 605 CURVE",
"378 576 OFFCURVE",
"359 540 OFFCURVE",
"344 508 CURVE",
"319 459 OFFCURVE",
"291 424 OFFCURVE",
"264 399 CURVE",
"274 394 OFFCURVE",
"282 387 OFFCURVE",
"289 380 CURVE SMOOTH",
"317 350 OFFCURVE",
"329 303 OFFCURVE",
"324 236 CURVE SMOOTH",
"311 39 LINE",
"309 9 LINE SMOOTH",
"308 3 OFFCURVE",
"303 -1 OFFCURVE",
"298 -1 CURVE SMOOTH",
"292 -1 OFFCURVE",
"287 4 OFFCURVE",
"288 10 CURVE SMOOTH",
"290 41 LINE",
"303 237 LINE",
"308 298 OFFCURVE",
"298 340 OFFCURVE",
"274 365 CURVE SMOOTH",
"266 373 OFFCURVE",
"257 380 OFFCURVE",
"247 385 CURVE",
"216 362 OFFCURVE",
"186 350 OFFCURVE",
"160 343 CURVE SMOOTH",
"153 341 OFFCURVE",
"146 339 OFFCURVE",
"139 337 CURVE",
"50 7 LINE SMOOTH",
"49 1 OFFCURVE",
"43 -2 OFFCURVE",
"37 0 CURVE SMOOTH",
"32 1 OFFCURVE",
"29 7 OFFCURVE",
"30 12 CURVE SMOOTH",
"116 333 LINE",
"88 330 OFFCURVE",
"61 331 OFFCURVE",
"48 341 CURVE SMOOTH",
"42 346 OFFCURVE",
"39 353 OFFCURVE",
"39 360 CURVE",
"40 388 OFFCURVE",
"90 409 OFFCURVE",
"138 416 CURVE",
"209 681 LINE SMOOTH",
"211 687 OFFCURVE",
"217 690 OFFCURVE",
"222 689 CURVE SMOOTH",
"228 687 OFFCURVE",
"231 682 OFFCURVE",
"230 676 CURVE SMOOTH",
"161 419 LINE",
"166 419 OFFCURVE",
"171 419 OFFCURVE",
"176 419 CURVE SMOOTH",
"202 419 OFFCURVE",
"225 416 OFFCURVE",
"244 409 CURVE",
"271 432 OFFCURVE",
"299 466 OFFCURVE",
"325 518 CURVE SMOOTH",
"339 546 OFFCURVE",
"355 577 OFFCURVE",
"372 604 CURVE",
"352 603 OFFCURVE",
"337 604 OFFCURVE",
"329 604 CURVE SMOOTH",
"323 604 OFFCURVE",
"319 609 OFFCURVE",
"319 615 CURVE SMOOTH",
"319 621 OFFCURVE",
"324 625 OFFCURVE",
"330 625 CURVE",
"347 624 OFFCURVE",
"367 624 OFFCURVE",
"387 625 CURVE",
"401 644 OFFCURVE",
"416 660 OFFCURVE",
"433 670 CURVE SMOOTH",
"457 685 OFFCURVE",
"494 695 OFFCURVE",
"512 686 CURVE SMOOTH",
"519 683 OFFCURVE",
"523 678 OFFCURVE",
"524 672 CURVE SMOOTH"
);
},
{
closed = 1;
nodes = (
"502 664 OFFCURVE",
"500 669 OFFCURVE",
"494 669 CURVE",
"482 668 OFFCURVE",
"462 664 OFFCURVE",
"445 653 CURVE SMOOTH",
"435 646 OFFCURVE",
"425 638 OFFCURVE",
"416 628 CURVE",
"427 629 OFFCURVE",
"437 631 OFFCURVE",
"447 633 CURVE SMOOTH",
"472 639 OFFCURVE",
"489 650 OFFCURVE",
"498 659 CURVE SMOOTH"
);
},
{
closed = 1;
nodes = (
"209 397 OFFCURVE",
"194 398 OFFCURVE",
"176 398 CURVE SMOOTH",
"169 398 OFFCURVE",
"162 398 OFFCURVE",
"155 397 CURVE",
"145 360 LINE",
"148 361 OFFCURVE",
"151 362 OFFCURVE",
"154 363 CURVE SMOOTH",
"176 369 OFFCURVE",
"199 378 OFFCURVE",
"223 393 CURVE"
);
},
{
closed = 1;
nodes = (
"102 388 OFFCURVE",
"76 377 OFFCURVE",
"65 368 CURVE SMOOTH",
"59 362 OFFCURVE",
"60 357 OFFCURVE",
"68 355 CURVE SMOOTH",
"78 352 OFFCURVE",
"97 351 OFFCURVE",
"122 355 CURVE",
"132 394 LINE"
);
}
);
width = 414;
}
);
leftKerningGroup = H;
rightKerningGroup = K;
unicode = 004B;
},
{
color = 4;
glyphname = L;
lastChange = "2020-10-10 11:28:49 +0000";
layers = (
{
anchors = (
{
name = bottom;
position = "{101, 0}";
},
{
name = center;
position = "{194, 345}";
},
{
name = top;
position = "{286, 690}";
},
{
name = topright;
position = "{430, 690}";
}
);
background = {
paths = (
{
closed = 1;
nodes = (
"252 0 OFFCURVE",
"258 7 OFFCURVE",
"258 14 CURVE SMOOTH",
"258 19 OFFCURVE",
"254 21 OFFCURVE",
"250 21 CURVE SMOOTH",
"13 21 LINE SMOOTH",
"6 21 OFFCURVE",
"0 14 OFFCURVE",
"0 7 CURVE SMOOTH",
"0 2 OFFCURVE",
"4 0 OFFCURVE",
"8 0 CURVE SMOOTH",
"245 0 LINE SMOOTH"
);
}
);
};
components = (
{
name = _v_stem_UC;
}
);
layerId = "8AECA43D-4735-4071-BB51-E4BAE59DF091";
paths = (
{
closed = 1;
nodes = (
"258 17 OFFCURVE",
"254 21 OFFCURVE",
"249 21 CURVE SMOOTH",
"12 21 LINE SMOOTH",
"5 21 OFFCURVE",
"0 16 OFFCURVE",
"0 9 CURVE SMOOTH",
"0 4 OFFCURVE",
"4 0 OFFCURVE",
"9 0 CURVE SMOOTH",
"246 0 LINE SMOOTH",
"253 0 OFFCURVE",
"258 5 OFFCURVE",
"258 12 CURVE SMOOTH"
);
}
);
width = 349;
},
{
associatedMasterId = "8AECA43D-4735-4071-BB51-E4BAE59DF091";
layerId = "EC187830-1004-4F11-83AF-CE31DD2E0C26";
name = "Aug 15 20, 13:11";
paths = (
{
closed = 1;
nodes = (
"291 16 OFFCURVE",
"281 11 OFFCURVE",
"281 11 CURVE",
"45 11 LINE SMOOTH",
"42 11 OFFCURVE",
"39 12 OFFCURVE",
"37 15 CURVE SMOOTH",
"35 18 OFFCURVE",
"34 21 OFFCURVE",
"35 24 CURVE SMOOTH",
"211 682 LINE",
"213 687 OFFCURVE",
"219 691 OFFCURVE",
"224 689 CURVE SMOOTH",
"230 688 OFFCURVE",
"233 682 OFFCURVE",
"232 676 CURVE SMOOTH",
"59 32 LINE",
"281 32 LINE SMOOTH",
"287 32 OFFCURVE",
"291 27 OFFCURVE",
"291 21 CURVE SMOOTH"
);
}
);
width = 331;
}
);
leftKerningGroup = H;
leftMetricsKey = H;
rightKerningGroup = L;
unicode = 004C;
},
{
color = 4;
glyphname = M;
lastChange = "2020-10-02 15:14:38 +0000";
layers = (
{
anchors = (
{
name = bottom;
position = "{203, 0}";
},
{
name = top;
position = "{388, 690}";
}
);
background = {
paths = (
{
closed = 1;
nodes = (
"226 665 LINE",
"217 667 LINE",
"307 562 LINE SMOOTH",
"336 528 OFFCURVE",
"352 493 OFFCURVE",
"352 460 CURVE SMOOTH",
"352 417 OFFCURVE",
"324 382 OFFCURVE",
"298 351 CURVE SMOOTH",
"296 349 OFFCURVE",
"220 264 OFFCURVE",
"220 188 CURVE SMOOTH",
"220 166 OFFCURVE",
"227 149 OFFCURVE",
"242 149 CURVE SMOOTH",
"273 149 OFFCURVE",
"307 219 OFFCURVE",
"307 278 CURVE SMOOTH",
"307 309 OFFCURVE",
"300 330 OFFCURVE",
"294 352 CURVE SMOOTH",
"289 369 OFFCURVE",
"284 388 OFFCURVE",
"284 405 CURVE SMOOTH",
"284 469 OFFCURVE",
"357 526 OFFCURVE",
"397 555 CURVE SMOOTH",
"543 660 LINE",
"537 665 LINE",
"406 10 LINE SMOOTH",
"405 4 OFFCURVE",
"408 0 OFFCURVE",
"415 0 CURVE SMOOTH",
"422 0 OFFCURVE",
"426 4 OFFCURVE",
"427 10 CURVE SMOOTH",
"561 680 LINE SMOOTH",
"562 686 OFFCURVE",
"559 690 OFFCURVE",
"553 690 CURVE SMOOTH",
"551 690 OFFCURVE",
"547 689 OFFCURVE",
"543 686 CURVE SMOOTH",
"388 574 LINE SMOOTH",
"344 542 OFFCURVE",
"262 485 OFFCURVE",
"262 399 CURVE SMOOTH",
"262 377 OFFCURVE",
"268 359 OFFCURVE",
"273 341 CURVE SMOOTH",
"279 320 OFFCURVE",
"285 302 OFFCURVE",
"285 273 CURVE SMOOTH",
"285 237 OFFCURVE",
"265 179 OFFCURVE",
"248 171 CURVE",
"244 173 OFFCURVE",
"242 184 OFFCURVE",
"242 194 CURVE SMOOTH",
"242 248 OFFCURVE",
"287 306 OFFCURVE",
"313 337 CURVE SMOOTH",
"337 365 OFFCURVE",
"374 412 OFFCURVE",
"374 466 CURVE SMOOTH",
"374 499 OFFCURVE",
"358 534 OFFCURVE",
"324 574 CURVE SMOOTH",
"229 686 LINE SMOOTH",
"227 688 OFFCURVE",
"225 690 OFFCURVE",
"221 690 CURVE SMOOTH",
"215 690 OFFCURVE",
"210 686 OFFCURVE",
"208 680 CURVE SMOOTH",
"-16 12 LINE SMOOTH",
"-18 5 OFFCURVE",
"-12 0 OFFCURVE",
"-6 0 CURVE SMOOTH",
"0 0 OFFCURVE",
"3 3 OFFCURVE",
"5 10 CURVE SMOOTH"
);
}
);
};
layerId = "8AECA43D-4735-4071-BB51-E4BAE59DF091";
paths = (
{
closed = 1;
nodes = (
"226 665 LINE",
"217 667 LINE",
"307 562 LINE SMOOTH",
"336 528 OFFCURVE",
"353 493 OFFCURVE",
"353 460 CURVE SMOOTH",
"353 414 OFFCURVE",
"323 378 OFFCURVE",
"292 341 CURVE SMOOTH",
"256 299 OFFCURVE",
"220 255 OFFCURVE",
"220 191 CURVE SMOOTH",
"220 166 OFFCURVE",
"227 149 OFFCURVE",
"242 149 CURVE SMOOTH",
"273 149 OFFCURVE",
"307 218 OFFCURVE",
"307 273 CURVE SMOOTH",
"307 302 OFFCURVE",
"301 325 OFFCURVE",
"294 347 CURVE SMOOTH",
"288 367 OFFCURVE",
"283 385 OFFCURVE",
"283 405 CURVE SMOOTH",
"283 453 OFFCURVE",
"315 495 OFFCURVE",
"397 554 CURVE SMOOTH",
"543 660 LINE",
"537 665 LINE",
"406 11 LINE SMOOTH",
"405 4 OFFCURVE",
"409 0 OFFCURVE",
"416 0 CURVE SMOOTH",
"423 0 OFFCURVE",
"426 4 OFFCURVE",
"427 10 CURVE SMOOTH",
"561 680 LINE SMOOTH",
"562 686 OFFCURVE",
"559 690 OFFCURVE",
"553 690 CURVE SMOOTH",
"551 690 OFFCURVE",
"547 689 OFFCURVE",
"543 686 CURVE SMOOTH",
"379 567 LINE SMOOTH",
"296 507 OFFCURVE",
"262 462 OFFCURVE",
"262 404 CURVE SMOOTH",
"262 380 OFFCURVE",
"268 360 OFFCURVE",
"274 340 CURVE SMOOTH",
"280 319 OFFCURVE",
"286 299 OFFCURVE",
"286 273 CURVE SMOOTH",
"286 237 OFFCURVE",
"265 179 OFFCURVE",
"248 171 CURVE",
"244 173 OFFCURVE",
"242 184 OFFCURVE",
"242 192 CURVE SMOOTH",
"242 252 OFFCURVE",
"275 292 OFFCURVE",
"310 331 CURVE SMOOTH",
"343 368 OFFCURVE",
"374 407 OFFCURVE",
"374 460 CURVE SMOOTH",
"374 499 OFFCURVE",
"358 534 OFFCURVE",
"324 574 CURVE SMOOTH",
"229 686 LINE SMOOTH",
"227 688 OFFCURVE",
"225 690 OFFCURVE",
"221 690 CURVE SMOOTH",
"215 690 OFFCURVE",
"210 686 OFFCURVE",
"208 680 CURVE SMOOTH",
"-16 12 LINE SMOOTH",
"-18 5 OFFCURVE",
"-12 0 OFFCURVE",
"-6 0 CURVE SMOOTH",
"0 0 OFFCURVE",
"3 3 OFFCURVE",
"5 10 CURVE SMOOTH"
);
}
);
width = 533;
},
{
associatedMasterId = "8AECA43D-4735-4071-BB51-E4BAE59DF091";
layerId = "548050D9-9C6F-422F-A6C8-A2BF95D024FD";
name = "Aug 15 20, 13:12";
paths = (
{
closed = 1;
nodes = (
"458 8 LINE SMOOTH",
"457 2 OFFCURVE",
"451 -2 OFFCURVE",
"446 -1 CURVE SMOOTH",
"440 0 OFFCURVE",
"436 6 OFFCURVE",
"437 12 CURVE SMOOTH",
"563 655 LINE",
"530 630 OFFCURVE",
"465 584 OFFCURVE",
"433 561 CURVE SMOOTH",
"417 549 OFFCURVE",
"401 537 OFFCURVE",
"385 524 CURVE",
"402 492 OFFCURVE",
"410 456 OFFCURVE",
"394 415 CURVE SMOOTH",
"381 384 OFFCURVE",
"361 360 OFFCURVE",
"341 336 CURVE SMOOTH",
"336 331 OFFCURVE",
"332 325 OFFCURVE",
"327 320 CURVE",
"333 295 OFFCURVE",
"337 268 OFFCURVE",
"331 232 CURVE SMOOTH",
"323 191 OFFCURVE",
"303 150 OFFCURVE",
"274 150 CURVE SMOOTH",
"267 150 OFFCURVE",
"261 153 OFFCURVE",
"257 158 CURVE SMOOTH",
"245 174 OFFCURVE",
"251 210 OFFCURVE",
"258 237 CURVE SMOOTH",
"268 274 OFFCURVE",
"285 301 OFFCURVE",
"304 325 CURVE",
"302 334 LINE SMOOTH",
"295 360 OFFCURVE",
"288 387 OFFCURVE",
"293 421 CURVE SMOOTH",
"298 462 OFFCURVE",
"325 497 OFFCURVE",
"359 529 CURVE",
"351 540 OFFCURVE",
"342 552 OFFCURVE",
"333 563 CURVE SMOOTH",
"251 658 LINE",
"30 6 LINE SMOOTH",
"28 1 OFFCURVE",
"22 -2 OFFCURVE",
"17 0 CURVE SMOOTH",
"11 2 OFFCURVE",
"10 13 OFFCURVE",
"10 13 CURVE",
"238 682 LINE SMOOTH",
"239 686 OFFCURVE",
"242 688 OFFCURVE",
"245 689 CURVE SMOOTH",
"249 690 OFFCURVE",
"253 688 OFFCURVE",
"255 686 CURVE SMOOTH",
"349 576 LINE SMOOTH",
"358 566 OFFCURVE",
"367 554 OFFCURVE",
"374 542 CURVE",
"389 555 OFFCURVE",
"405 567 OFFCURVE",
"421 578 CURVE SMOOTH",
"466 610 OFFCURVE",
"572 686 OFFCURVE",
"573 687 CURVE",
"576 690 OFFCURVE",
"581 690 OFFCURVE",
"584 688 CURVE SMOOTH",
"588 685 OFFCURVE",
"590 681 OFFCURVE",
"589 677 CURVE SMOOTH"
);
},
{
closed = 1;
nodes = (
"387 455 OFFCURVE",
"382 483 OFFCURVE",
"369 510 CURVE",
"340 482 OFFCURVE",
"318 452 OFFCURVE",
"313 418 CURVE",
"310 390 OFFCURVE",
"315 368 OFFCURVE",
"321 345 CURVE",
"325 350 LINE SMOOTH",
"345 373 OFFCURVE",
"363 395 OFFCURVE",
"374 423 CURVE SMOOTH"
);
},
{
closed = 1;
nodes = (
"297 279 OFFCURVE",
"286 258 OFFCURVE",
"279 231 CURVE SMOOTH",
"271 205 OFFCURVE",
"270 187 OFFCURVE",
"271 178 CURVE SMOOTH",
"272 170 OFFCURVE",
"276 168 OFFCURVE",
"285 176 CURVE SMOOTH",
"294 186 OFFCURVE",
"305 208 OFFCURVE",
"310 236 CURVE SMOOTH",
"314 260 OFFCURVE",
"313 280 OFFCURVE",
"310 298 CURVE"
);
}
);
width = 549;
}
);
leftKerningGroup = H;
rightKerningGroup = H;
unicode = 004D;
},
{
color = 4;
glyphname = N;
lastChange = "2020-10-02 15:14:38 +0000";
layers = (
{
anchors = (
{
name = bottom;
position = "{148, 0}";
},
{
name = top;
position = "{333, 690}";
}
);
background = {
paths = (
{
closed = 1;
nodes = (
"200 684 LINE",
"182 667 LINE",
"280 6 LINE",
"299 20 LINE"
);
},
{
closed = 1;
nodes = (
"202 686 OFFCURVE",
"196 690 OFFCURVE",
"190 690 CURVE SMOOTH",
"183 690 OFFCURVE",
"181 687 OFFCURVE",
"179 680 CURVE SMOOTH",
"-1 12 LINE SMOOTH",
"-3 4 OFFCURVE",
"3 0 OFFCURVE",
"9 0 CURVE SMOOTH",
"16 0 OFFCURVE",
"18 3 OFFCURVE",
"20 10 CURVE SMOOTH",
"200 678 LINE SMOOTH"
);
},
{
closed = 1;
nodes = (
"483 686 OFFCURVE",
"477 690 OFFCURVE",
"471 690 CURVE SMOOTH",
"464 690 OFFCURVE",
"462 687 OFFCURVE",
"460 680 CURVE SMOOTH",
"280 12 LINE SMOOTH",
"278 4 OFFCURVE",
"284 0 OFFCURVE",
"290 0 CURVE SMOOTH",
"297 0 OFFCURVE",
"299 3 OFFCURVE",
"301 10 CURVE SMOOTH",
"481 678 LINE SMOOTH"
);
}
);
};
layerId = "8AECA43D-4735-4071-BB51-E4BAE59DF091";
paths = (
{
closed = 1;
nodes = (
"279 11 LINE SMOOTH",
"280 2 OFFCURVE",
"285 0 OFFCURVE",
"290 0 CURVE SMOOTH",
"297 0 OFFCURVE",
"299 3 OFFCURVE",
"301 10 CURVE SMOOTH",
"481 678 LINE SMOOTH",
"483 686 OFFCURVE",
"477 690 OFFCURVE",
"471 690 CURVE SMOOTH",
"464 690 OFFCURVE",
"462 687 OFFCURVE",
"460 680 CURVE SMOOTH",
"290 49 LINE",
"294 47 LINE",
"200 682 LINE SMOOTH",
"199 688 OFFCURVE",
"194 690 OFFCURVE",
"190 690 CURVE SMOOTH",
"183 690 OFFCURVE",
"181 687 OFFCURVE",
"179 680 CURVE SMOOTH",
"-1 12 LINE SMOOTH",
"-3 4 OFFCURVE",
"3 0 OFFCURVE",
"9 0 CURVE SMOOTH",
"16 0 OFFCURVE",
"18 3 OFFCURVE",
"20 10 CURVE SMOOTH",
"195 661 LINE",
"182 667 LINE"
);
}
);
width = 423;
},
{
associatedMasterId = "8AECA43D-4735-4071-BB51-E4BAE59DF091";
layerId = "30A79886-73AC-4DAD-AE52-F387404BD896";
name = "Aug 15 20, 13:18";
paths = (
{
closed = 1;
nodes = (
"331 8 LINE SMOOTH",
"330 3 OFFCURVE",
"326 0 OFFCURVE",
"321 0 CURVE",
"316 1 OFFCURVE",
"311 4 OFFCURVE",
"311 9 CURVE",
"217 629 LINE",
"50 8 LINE SMOOTH",
"49 3 OFFCURVE",
"43 -1 OFFCURVE",
"37 1 CURVE SMOOTH",
"32 2 OFFCURVE",
"30 14 OFFCURVE",
"30 14 CURVE",
"209 683 LINE",
"211 688 OFFCURVE",
"215 691 OFFCURVE",
"220 691 CURVE",
"225 690 OFFCURVE",
"229 687 OFFCURVE",
"230 682 CURVE SMOOTH",
"324 62 LINE",
"490 683 LINE SMOOTH",
"492 689 OFFCURVE",
"498 692 OFFCURVE",
"503 690 CURVE SMOOTH",
"509 689 OFFCURVE",
"512 683 OFFCURVE",
"511 678 CURVE SMOOTH"
);
}
);
width = 461;
}
);
leftKerningGroup = H;
leftMetricsKey = H;
rightKerningGroup = H;
rightMetricsKey = H;
unicode = 004E;
},
{
color = 4;
glyphname = O;
lastChange = "2020-10-10 11:26:02 +0000";
layers = (
{
anchors = (
{
name = bottom;
position = "{167, 0}";
},
{
name = center;
position = "{260, 345}";
},
{
name = ogonek;
position = "{355, 10}";
},
{
name = top;
position = "{352, 690}";
},
{
name = topleft;
position = "{141, 690}";
},
{
name = topright;
position = "{563, 690}";
}
);
background = {
paths = (
{
closed = 1;
nodes = (
"48 50 OFFCURVE",
"104 -5 OFFCURVE",
"172 -5 CURVE SMOOTH",
"328 -5 OFFCURVE",
"471 281 OFFCURVE",
"471 517 CURVE SMOOTH",
"471 640 OFFCURVE",
"414 695 OFFCURVE",
"343 695 CURVE SMOOTH",
"190 695 OFFCURVE",
"48 409 OFFCURVE",
"48 185 CURVE SMOOTH"
);
},
{
closed = 1;
nodes = (
"70 394 OFFCURVE",
"203 674 OFFCURVE",
"341 674 CURVE SMOOTH",
"401 674 OFFCURVE",
"449 630 OFFCURVE",
"449 517 CURVE SMOOTH",
"449 296 OFFCURVE",
"315 16 OFFCURVE",
"174 16 CURVE SMOOTH",
"117 16 OFFCURVE",
"70 60 OFFCURVE",
"70 185 CURVE SMOOTH"
);
}
);
};
layerId = "8AECA43D-4735-4071-BB51-E4BAE59DF091";
paths = (
{
closed = 1;
nodes = (
"471 640 OFFCURVE",
"415 695 OFFCURVE",
"347 695 CURVE SMOOTH",
"191 695 OFFCURVE",
"48 409 OFFCURVE",
"48 185 CURVE SMOOTH",
"48 50 OFFCURVE",
"104 -5 OFFCURVE",
"173 -5 CURVE SMOOTH",
"328 -5 OFFCURVE",
"471 281 OFFCURVE",
"471 505 CURVE SMOOTH"
);
},
{
closed = 1;
nodes = (
"449 296 OFFCURVE",
"315 16 OFFCURVE",
"175 16 CURVE SMOOTH",
"117 16 OFFCURVE",
"70 60 OFFCURVE",
"70 185 CURVE SMOOTH",
"70 394 OFFCURVE",
"204 674 OFFCURVE",
"345 674 CURVE SMOOTH",
"402 674 OFFCURVE",
"449 630 OFFCURVE",
"449 505 CURVE SMOOTH"
);
}
);
width = 462;
},
{
associatedMasterId = "8AECA43D-4735-4071-BB51-E4BAE59DF091";
layerId = "6DA502FE-26EB-43AF-B80E-E0EE4A6D0413";
name = "Aug 15 20, 12:46";
paths = (
{
closed = 1;
nodes = (
"390 124 OFFCURVE",
"291 0 OFFCURVE",
"177 0 CURVE SMOOTH",
"140 0 OFFCURVE",
"110 13 OFFCURVE",
"89 40 CURVE SMOOTH",
"48 95 OFFCURVE",
"46 201 OFFCURVE",
"86 347 CURVE",
"144 565 OFFCURVE",
"243 690 OFFCURVE",
"357 690 CURVE SMOOTH",
"395 690 OFFCURVE",
"424 676 OFFCURVE",
"445 649 CURVE SMOOTH",
"487 595 OFFCURVE",
"488 489 OFFCURVE",
"448 342 CURVE SMOOTH"
);
},
{
closed = 1;
nodes = (
"412 658 OFFCURVE",
"388 669 OFFCURVE",
"357 669 CURVE SMOOTH",
"253 669 OFFCURVE",
"162 550 OFFCURVE",
"106 342 CURVE SMOOTH",
"58 165 OFFCURVE",
"80 87 OFFCURVE",
"106 53 CURVE SMOOTH",
"122 32 OFFCURVE",
"146 21 OFFCURVE",
"177 21 CURVE SMOOTH",
"281 21 OFFCURVE",
"373 140 OFFCURVE",
"428 347 CURVE SMOOTH",
"476 525 OFFCURVE",
"455 602 OFFCURVE",
"428 636 CURVE"
);
}
);
width = 460;
}
);
leftKerningGroup = O;
rightKerningGroup = O;
rightMetricsKey = "=|";
unicode = 004F;
},
{
color = 4;
glyphname = P;
lastChange = "2020-10-02 15:14:38 +0000";
layers = (
{
anchors = (
{
name = bottom;
position = "{109, 0}";
},
{
name = top;
position = "{294, 690}";
}
);
background = {
paths = (
{
closed = 1;
nodes = (
"292 326 OFFCURVE",
"393 433 OFFCURVE",
"393 575 CURVE SMOOTH",
"393 639 OFFCURVE",
"361 690 OFFCURVE",
"287 690 CURVE SMOOTH",
"190 690 LINE",
"184 669 LINE",
"281 669 LINE SMOOTH",
"347 669 OFFCURVE",
"371 628 OFFCURVE",
"371 575 CURVE SMOOTH",
"371 447 OFFCURVE",
"285 347 OFFCURVE",
"177 347 CURVE SMOOTH",
"155 347 OFFCURVE",
"132 351 OFFCURVE",
"108 358 CURVE",
"102 337 LINE",
"126 330 OFFCURVE",
"150 326 OFFCURVE",
"171 326 CURVE SMOOTH"
);
}
);
};
components = (
{
name = _v_stem_UC;
}
);
layerId = "8AECA43D-4735-4071-BB51-E4BAE59DF091";
paths = (
{
closed = 1;
nodes = (
"294 326 OFFCURVE",
"393 431 OFFCURVE",
"393 565 CURVE SMOOTH",
"393 639 OFFCURVE",
"361 690 OFFCURVE",
"287 690 CURVE SMOOTH",
"190 690 LINE",
"184 669 LINE",
"281 669 LINE SMOOTH",
"347 669 OFFCURVE",
"371 628 OFFCURVE",
"371 565 CURVE SMOOTH",
"371 447 OFFCURVE",
"285 347 OFFCURVE",
"174 347 CURVE SMOOTH",
"155 347 OFFCURVE",
"132 350 OFFCURVE",
"108 358 CURVE",
"102 338 LINE",
"126 329 OFFCURVE",
"150 326 OFFCURVE",
"171 326 CURVE SMOOTH"
);
}
);
width = 345;
},
{
associatedMasterId = "8AECA43D-4735-4071-BB51-E4BAE59DF091";
layerId = "94AB874F-C1E7-4A11-B974-3FBEA6DAEEC7";
name = "Aug 15 20, 13:24";
paths = (
{
closed = 1;
nodes = (
"394 389 OFFCURVE",
"319 326 OFFCURVE",
"215 326 CURVE SMOOTH",
"194 326 OFFCURVE",
"170 330 OFFCURVE",
"149 336 CURVE",
"60 7 LINE SMOOTH",
"59 1 OFFCURVE",
"53 -2 OFFCURVE",
"47 0 CURVE SMOOTH",
"42 1 OFFCURVE",
"38 7 OFFCURVE",
"40 12 CURVE",
"217 671 LINE SMOOTH",
"218 675 OFFCURVE",
"222 679 OFFCURVE",
"227 679 CURVE SMOOTH",
"318 679 LINE SMOOTH",
"355 679 OFFCURVE",
"384 665 OFFCURVE",
"404 640 CURVE SMOOTH",
"430 607 OFFCURVE",
"436 556 OFFCURVE",
"421 497 CURVE SMOOTH"
);
},
{
closed = 1;
nodes = (
"414 555 OFFCURVE",
"409 600 OFFCURVE",
"387 627 CURVE SMOOTH",
"372 647 OFFCURVE",
"348 658 OFFCURVE",
"318 658 CURVE SMOOTH",
"235 658 LINE",
"154 356 LINE",
"174 351 OFFCURVE",
"196 347 OFFCURVE",
"215 347 CURVE SMOOTH",
"309 347 OFFCURVE",
"376 404 OFFCURVE",
"401 502 CURVE SMOOTH"
);
}
);
width = 369;
}
);
leftKerningGroup = H;
leftMetricsKey = H;
rightKerningGroup = P;
unicode = 0050;
},
{
color = 4;
glyphname = Q;
lastChange = "2020-10-02 15:14:38 +0000";
layers = (
{
anchors = (
{
name = bottom;
position = "{167, 0}";
},
{
name = top;
position = "{352, 690}";
}
);
components = (
{
name = O;
}
);
layerId = "8AECA43D-4735-4071-BB51-E4BAE59DF091";
paths = (
{
closed = 1;
nodes = (
"231 153 LINE SMOOTH",
"148 93 OFFCURVE",
"114 48 OFFCURVE",
"114 -10 CURVE SMOOTH",
"114 -34 OFFCURVE",
"120 -54 OFFCURVE",
"126 -74 CURVE SMOOTH",
"132 -95 OFFCURVE",
"138 -115 OFFCURVE",
"138 -141 CURVE SMOOTH",
"138 -177 OFFCURVE",
"117 -235 OFFCURVE",
"100 -243 CURVE",
"96 -241 OFFCURVE",
"94 -230 OFFCURVE",
"94 -222 CURVE SMOOTH",
"94 -162 OFFCURVE",
"127 -122 OFFCURVE",
"162 -83 CURVE SMOOTH",
"195 -46 OFFCURVE",
"226 -7 OFFCURVE",
"226 46 CURVE SMOOTH",
"226 85 OFFCURVE",
"210 120 OFFCURVE",
"176 160 CURVE SMOOTH",
"72 283 LINE",
"69 253 LINE",
"159 148 LINE SMOOTH",
"188 114 OFFCURVE",
"205 79 OFFCURVE",
"205 46 CURVE SMOOTH",
"205 0 OFFCURVE",
"175 -36 OFFCURVE",
"144 -73 CURVE SMOOTH",
"108 -115 OFFCURVE",
"72 -159 OFFCURVE",
"72 -223 CURVE SMOOTH",
"72 -248 OFFCURVE",
"79 -265 OFFCURVE",
"94 -265 CURVE SMOOTH",
"125 -265 OFFCURVE",
"159 -196 OFFCURVE",
"159 -141 CURVE SMOOTH",
"159 -112 OFFCURVE",
"153 -89 OFFCURVE",
"146 -67 CURVE SMOOTH",
"140 -47 OFFCURVE",
"135 -29 OFFCURVE",
"135 -9 CURVE SMOOTH",
"135 39 OFFCURVE",
"167 80 OFFCURVE",
"249 140 CURVE SMOOTH",
"401 250 LINE",
"410 283 LINE"
);
}
);
width = 462;
},
{
associatedMasterId = "8AECA43D-4735-4071-BB51-E4BAE59DF091";
layerId = "54C4DD2C-293E-4A0A-BD9F-D5DE6CD67713";
name = "Aug 15 20, 13:26";
paths = (
{
closed = 1;
nodes = (
"397 151 OFFCURVE",
"314 26 OFFCURVE",
"222 -7 CURVE",
"209 -35 OFFCURVE",
"190 -58 OFFCURVE",
"171 -80 CURVE SMOOTH",
"167 -85 OFFCURVE",
"162 -91 OFFCURVE",
"157 -96 CURVE",
"163 -121 OFFCURVE",
"167 -148 OFFCURVE",
"160 -184 CURVE SMOOTH",
"153 -225 OFFCURVE",
"133 -266 OFFCURVE",
"104 -266 CURVE SMOOTH",
"97 -266 OFFCURVE",
"91 -263 OFFCURVE",
"86 -258 CURVE",
"74 -242 OFFCURVE",
"81 -206 OFFCURVE",
"88 -179 CURVE SMOOTH",
"98 -142 OFFCURVE",
"116 -115 OFFCURVE",
"134 -91 CURVE",
"132 -82 LINE SMOOTH",
"126 -58 OFFCURVE",
"120 -34 OFFCURVE",
"122 -4 CURVE",
"109 2 OFFCURVE",
"98 12 OFFCURVE",
"89 24 CURVE SMOOTH",
"45 81 OFFCURVE",
"44 193 OFFCURVE",
"85 347 CURVE SMOOTH",
"146 571 OFFCURVE",
"243 690 OFFCURVE",
"355 690 CURVE SMOOTH",
"391 690 OFFCURVE",
"419 677 OFFCURVE",
"439 651 CURVE SMOOTH",
"483 594 OFFCURVE",
"490 497 OFFCURVE",
"448 342 CURVE SMOOTH"
);
},
{
closed = 1;
nodes = (
"467 493 OFFCURVE",
"462 587 OFFCURVE",
"423 638 CURVE SMOOTH",
"407 659 OFFCURVE",
"384 669 OFFCURVE",
"355 669 CURVE SMOOTH",
"255 669 OFFCURVE",
"162 553 OFFCURVE",
"106 342 CURVE SMOOTH",
"99 316 OFFCURVE",
"93 291 OFFCURVE",
"88 268 CURVE",
"180 160 LINE SMOOTH",
"189 149 OFFCURVE",
"198 138 OFFCURVE",
"206 126 CURVE",
"221 139 OFFCURVE",
"236 151 OFFCURVE",
"252 162 CURVE SMOOTH",
"297 194 OFFCURVE",
"403 270 OFFCURVE",
"404 271 CURVE",
"413 295 OFFCURVE",
"421 321 OFFCURVE",
"428 347 CURVE SMOOTH"
);
},
{
closed = 1;
nodes = (
"357 211 OFFCURVE",
"296 167 OFFCURVE",
"264 145 CURVE SMOOTH",
"248 133 OFFCURVE",
"232 121 OFFCURVE",
"216 108 CURVE",
"230 82 OFFCURVE",
"238 52 OFFCURVE",
"231 20 CURVE",
"291 50 OFFCURVE",
"348 126 OFFCURVE",
"391 236 CURVE"
);
},
{
closed = 1;
nodes = (
"182 124 OFFCURVE",
"173 136 OFFCURVE",
"164 147 CURVE SMOOTH",
"84 241 LINE",
"69 146 OFFCURVE",
"76 75 OFFCURVE",
"105 37 CURVE SMOOTH",
"111 29 OFFCURVE",
"118 23 OFFCURVE",
"126 18 CURVE",
"135 53 OFFCURVE",
"160 85 OFFCURVE",
"190 112 CURVE"
);
},
{
closed = 1;
nodes = (
"217 41 OFFCURVE",
"213 68 OFFCURVE",
"200 94 CURVE",
"173 68 OFFCURVE",
"152 40 OFFCURVE",
"145 9 CURVE",
"154 7 OFFCURVE",
"163 5 OFFCURVE",
"173 5 CURVE SMOOTH",
"184 5 OFFCURVE",
"195 7 OFFCURVE",
"206 10 CURVE"
);
},
{
closed = 1;
nodes = (
"187 -15 OFFCURVE",
"180 -16 OFFCURVE",
"173 -16 CURVE SMOOTH",
"162 -16 OFFCURVE",
"152 -14 OFFCURVE",
"143 -12 CURVE",
"142 -33 OFFCURVE",
"146 -52 OFFCURVE",
"151 -71 CURVE",
"155 -66 LINE SMOOTH",
"170 -49 OFFCURVE",
"184 -33 OFFCURVE",
"195 -14 CURVE"
);
},
{
closed = 1;
nodes = (
"127 -137 OFFCURVE",
"116 -158 OFFCURVE",
"108 -185 CURVE SMOOTH",
"102 -207 OFFCURVE",
"100 -224 OFFCURVE",
"101 -234 CURVE",
"101 -244 OFFCURVE",
"107 -248 OFFCURVE",
"115 -239 CURVE SMOOTH",
"125 -229 OFFCURVE",
"135 -208 OFFCURVE",
"140 -180 CURVE SMOOTH",
"144 -156 OFFCURVE",
"143 -137 OFFCURVE",
"140 -119 CURVE"
);
}
);
visible = 1;
width = 451;
}
);
leftKerningGroup = O;
leftMetricsKey = O;
rightKerningGroup = O;
rightMetricsKey = O;
unicode = 0051;
},
{
color = 4;
glyphname = R;
lastChange = "2020-10-10 11:23:21 +0000";
layers = (
{
anchors = (
{
name = bottom;
position = "{119, 0}";
},
{
name = top;
position = "{304, 690}";
}
);
background = {
paths = (
{
closed = 1;
nodes = (
"289 11 LINE SMOOTH",
"289 3 OFFCURVE",
"293 0 OFFCURVE",
"299 0 CURVE SMOOTH",
"304 0 OFFCURVE",
"310 2 OFFCURVE",
"310 12 CURVE SMOOTH",
"314 222 LINE SMOOTH",
"317 360 OFFCURVE",
"251 423 OFFCURVE",
"138 423 CURVE SMOOTH",
"101 423 OFFCURVE",
"54 414 OFFCURVE",
"54 379 CURVE SMOOTH",
"54 343 OFFCURVE",
"122 326 OFFCURVE",
"177 326 CURVE SMOOTH",
"311 326 OFFCURVE",
"419 435 OFFCURVE",
"419 574 CURVE SMOOTH",
"419 638 OFFCURVE",
"387 690 OFFCURVE",
"312 690 CURVE SMOOTH",
"205 690 LINE",
"199 669 LINE",
"306 669 LINE SMOOTH",
"372 669 OFFCURVE",
"397 627 OFFCURVE",
"397 574 CURVE SMOOTH",
"397 449 OFFCURVE",
"295 346 OFFCURVE",
"176 346 CURVE SMOOTH",
"133 346 OFFCURVE",
"76 361 OFFCURVE",
"76 382 CURVE SMOOTH",
"76 398 OFFCURVE",
"111 403 OFFCURVE",
"138 403 CURVE SMOOTH",
"250 403 OFFCURVE",
"295 339 OFFCURVE",
"293 218 CURVE SMOOTH"
);
}
);
};
components = (
{
alignment = -1;
name = _v_stem_UC;
transform = "{1, 0, 0, 1, 14, 0}";
}
);
layerId = "8AECA43D-4735-4071-BB51-E4BAE59DF091";
paths = (
{
closed = 1;
nodes = (
"289 11 LINE SMOOTH",
"289 3 OFFCURVE",
"293 0 OFFCURVE",
"299 0 CURVE SMOOTH",
"304 0 OFFCURVE",
"310 2 OFFCURVE",
"310 12 CURVE SMOOTH",
"314 202 LINE SMOOTH",
"317 362 OFFCURVE",
"250 423 OFFCURVE",
"140 423 CURVE SMOOTH",
"99 423 OFFCURVE",
"54 413 OFFCURVE",
"54 380 CURVE SMOOTH",
"54 342 OFFCURVE",
"122 326 OFFCURVE",
"177 326 CURVE SMOOTH",
"311 326 OFFCURVE",
"419 435 OFFCURVE",
"419 564 CURVE SMOOTH",
"419 638 OFFCURVE",
"387 690 OFFCURVE",
"312 690 CURVE SMOOTH",
"205 690 LINE",
"199 669 LINE",
"306 669 LINE SMOOTH",
"372 669 OFFCURVE",
"397 627 OFFCURVE",
"397 564 CURVE SMOOTH",
"397 446 OFFCURVE",
"298 346 OFFCURVE",
"176 346 CURVE SMOOTH",
"133 346 OFFCURVE",
"76 361 OFFCURVE",
"76 382 CURVE SMOOTH",
"76 398 OFFCURVE",
"109 403 OFFCURVE",
"140 403 CURVE SMOOTH",
"249 403 OFFCURVE",
"295 340 OFFCURVE",
"292 198 CURVE SMOOTH"
);
}
);
width = 401;
},
{
associatedMasterId = "8AECA43D-4735-4071-BB51-E4BAE59DF091";
layerId = "C73F34EA-F9D7-4309-BE34-BE0C891C0638";
name = "Aug 15 20, 13:49";
paths = (
{
closed = 1;
nodes = (
"416 441 OFFCURVE",
"380 382 OFFCURVE",
"321 350 CURVE",
"342 323 OFFCURVE",
"352 289 OFFCURVE",
"351 246 CURVE SMOOTH",
"347 84 LINE",
"346 10 LINE",
"346 4 OFFCURVE",
"341 -1 OFFCURVE",
"335 -1 CURVE",
"329 0 OFFCURVE",
"325 4 OFFCURVE",
"325 10 CURVE",
"326 84 LINE",
"330 247 LINE SMOOTH",
"331 290 OFFCURVE",
"320 320 OFFCURVE",
"301 341 CURVE",
"279 332 OFFCURVE",
"253 327 OFFCURVE",
"225 327 CURVE SMOOTH",
"203 327 OFFCURVE",
"179 331 OFFCURVE",
"159 337 CURVE",
"70 7 LINE SMOOTH",
"69 2 OFFCURVE",
"63 -2 OFFCURVE",
"57 0 CURVE SMOOTH",
"52 1 OFFCURVE",
"48 7 OFFCURVE",
"50 13 CURVE SMOOTH",
"139 344 LINE",
"120 351 OFFCURVE",
"105 361 OFFCURVE",
"98 372 CURVE SMOOTH",
"93 380 OFFCURVE",
"92 389 OFFCURVE",
"95 397 CURVE SMOOTH",
"104 418 OFFCURVE",
"133 422 OFFCURVE",
"160 421 CURVE",
"227 671 LINE SMOOTH",
"228 676 OFFCURVE",
"232 679 OFFCURVE",
"237 679 CURVE SMOOTH",
"343 679 LINE SMOOTH",
"377 679 OFFCURVE",
"402 668 OFFCURVE",
"419 646 CURVE SMOOTH",
"444 614 OFFCURVE",
"448 561 OFFCURVE",
"431 497 CURVE SMOOTH"
);
},
{
closed = 1;
nodes = (
"426 559 OFFCURVE",
"423 607 OFFCURVE",
"403 633 CURVE SMOOTH",
"390 650 OFFCURVE",
"370 658 OFFCURVE",
"343 658 CURVE SMOOTH",
"245 658 LINE",
"181 418 LINE",
"185 418 OFFCURVE",
"189 417 OFFCURVE",
"192 416 CURVE SMOOTH",
"231 407 OFFCURVE",
"271 395 OFFCURVE",
"301 370 CURVE SMOOTH",
"303 369 OFFCURVE",
"304 367 OFFCURVE",
"306 366 CURVE",
"362 394 OFFCURVE",
"397 450 OFFCURVE",
"411 503 CURVE SMOOTH"
);
},
{
closed = 1;
nodes = (
"257 377 OFFCURVE",
"222 387 OFFCURVE",
"187 396 CURVE SMOOTH",
"183 397 OFFCURVE",
"179 397 OFFCURVE",
"175 398 CURVE",
"164 357 LINE",
"183 352 OFFCURVE",
"204 348 OFFCURVE",
"225 348 CURVE SMOOTH",
"246 348 OFFCURVE",
"266 351 OFFCURVE",
"284 357 CURVE"
);
},
{
closed = 1;
nodes = (
"135 401 OFFCURVE",
"117 399 OFFCURVE",
"115 389 CURVE SMOOTH",
"114 387 OFFCURVE",
"116 383 OFFCURVE",
"118 381 CURVE SMOOTH",
"122 375 OFFCURVE",
"130 370 OFFCURVE",
"144 364 CURVE",
"154 400 LINE"
);
}
);
width = 426;
}
);
leftKerningGroup = H;
leftMetricsKey = K;
rightKerningGroup = R;
unicode = 0052;
},
{
color = 4;
glyphname = S;
lastChange = "2020-10-02 15:35:23 +0000";
layers = (
{
anchors = (
{
name = bottom;
position = "{103, 0}";
},
{
name = top;
position = "{288, 690}";
}
);
background = {
paths = (
{
closed = 1;
nodes = (
"393 661 OFFCURVE",
"345 695 OFFCURVE",
"283 695 CURVE SMOOTH",
"188 695 OFFCURVE",
"123 626 OFFCURVE",
"123 517 CURVE SMOOTH",
"123 366 OFFCURVE",
"272 325 OFFCURVE",
"272 180 CURVE SMOOTH",
"272 80 OFFCURVE",
"212 21 OFFCURVE",
"119 21 CURVE SMOOTH",
"51 21 OFFCURVE",
"10 61 OFFCURVE",
"10 141 CURVE SMOOTH",
"10 148 OFFCURVE",
"7 152 OFFCURVE",
"0 152 CURVE SMOOTH",
"-9 152 OFFCURVE",
"-11 145 OFFCURVE",
"-11 132 CURVE SMOOTH",
"-11 51 OFFCURVE",
"40 0 OFFCURVE",
"119 0 CURVE SMOOTH",
"222 0 OFFCURVE",
"295 70 OFFCURVE",
"295 180 CURVE SMOOTH",
"295 328 OFFCURVE",
"145 375 OFFCURVE",
"145 518 CURVE SMOOTH",
"145 614 OFFCURVE",
"203 674 OFFCURVE",
"283 674 CURVE SMOOTH",
"337 674 OFFCURVE",
"372 645 OFFCURVE",
"376 595 CURVE SMOOTH",
"376 589 OFFCURVE",
"379 587 OFFCURVE",
"384 587 CURVE SMOOTH",
"391 587 OFFCURVE",
"398 594 OFFCURVE",
"397 603 CURVE SMOOTH"
);
}
);
};
layerId = "8AECA43D-4735-4071-BB51-E4BAE59DF091";
paths = (
{
closed = 1;
nodes = (
"394 661 OFFCURVE",
"346 695 OFFCURVE",
"282 695 CURVE SMOOTH",
"189 695 OFFCURVE",
"123 623 OFFCURVE",
"123 520 CURVE SMOOTH",
"123 444 OFFCURVE",
"156 395 OFFCURVE",
"194 349 CURVE SMOOTH",
"210 330 LINE SMOOTH",
"244 289 OFFCURVE",
"272 245 OFFCURVE",
"272 180 CURVE SMOOTH",
"272 80 OFFCURVE",
"212 21 OFFCURVE",
"125 21 CURVE SMOOTH",
"51 21 OFFCURVE",
"10 61 OFFCURVE",
"10 141 CURVE SMOOTH",
"10 148 OFFCURVE",
"7 152 OFFCURVE",
"0 152 CURVE SMOOTH",
"-9 152 OFFCURVE",
"-11 145 OFFCURVE",
"-11 132 CURVE SMOOTH",
"-11 51 OFFCURVE",
"40 0 OFFCURVE",
"125 0 CURVE SMOOTH",
"221 0 OFFCURVE",
"294 70 OFFCURVE",
"294 180 CURVE SMOOTH",
"294 250 OFFCURVE",
"265 298 OFFCURVE",
"228 342 CURVE SMOOTH",
"213 360 LINE SMOOTH",
"177 404 OFFCURVE",
"145 451 OFFCURVE",
"145 521 CURVE SMOOTH",
"145 613 OFFCURVE",
"202 674 OFFCURVE",
"282 674 CURVE SMOOTH",
"338 674 OFFCURVE",
"373 645 OFFCURVE",
"376 597 CURVE SMOOTH",
"377 589 OFFCURVE",
"381 587 OFFCURVE",
"386 587 CURVE SMOOTH",
"395 587 OFFCURVE",
"397 593 OFFCURVE",
"397 599 CURVE SMOOTH"
);
}
);
width = 353;
},
{
associatedMasterId = "8AECA43D-4735-4071-BB51-E4BAE59DF091";
layerId = "7296136F-CA0D-4671-8DFB-1FA05E3A5A97";
name = "Aug 15 20, 13:52";
paths = (
{
closed = 1;
nodes = (
"431 590 OFFCURVE",
"427 584 OFFCURVE",
"421 583 CURVE SMOOTH",
"415 582 OFFCURVE",
"410 586 OFFCURVE",
"409 592 CURVE SMOOTH",
"401 637 OFFCURVE",
"357 666 OFFCURVE",
"321 668 CURVE SMOOTH",
"269 671 OFFCURVE",
"206 643 OFFCURVE",
"185 559 CURVE SMOOTH",
"164 472 OFFCURVE",
"201 419 OFFCURVE",
"244 357 CURVE SMOOTH",
"303 272 OFFCURVE",
"325 201 OFFCURVE",
"312 135 CURVE SMOOTH",
"292 31 OFFCURVE",
"207 -7 OFFCURVE",
"137 1 CURVE SMOOTH",
"65 9 OFFCURVE",
"20 63 OFFCURVE",
"20 142 CURVE SMOOTH",
"20 148 OFFCURVE",
"25 152 OFFCURVE",
"30 152 CURVE SMOOTH",
"36 152 OFFCURVE",
"41 148 OFFCURVE",
"41 142 CURVE SMOOTH",
"41 74 OFFCURVE",
"78 29 OFFCURVE",
"139 22 CURVE SMOOTH",
"201 15 OFFCURVE",
"274 48 OFFCURVE",
"291 138 CURVE SMOOTH",
"303 199 OFFCURVE",
"283 265 OFFCURVE",
"227 345 CURVE SMOOTH",
"183 409 OFFCURVE",
"142 468 OFFCURVE",
"165 564 CURVE SMOOTH",
"188 661 OFFCURVE",
"264 692 OFFCURVE",
"322 689 CURVE SMOOTH",
"367 687 OFFCURVE",
"420 651 OFFCURVE",
"430 595 CURVE SMOOTH"
);
}
);
width = 360;
}
);
leftKerningGroup = S;
rightKerningGroup = S;
unicode = 0053;
},
{
color = 4;
glyphname = T;
lastChange = "2020-10-10 11:25:32 +0000";
layers = (
{
anchors = (
{
name = bottom;
position = "{125, 0}";
},
{
name = center;
position = "{218, 345}";
},
{
name = top;
position = "{310, 690}";
}
);
background = {
paths = (
{
closed = 1;
nodes = (
"599 669 OFFCURVE",
"603 673 OFFCURVE",
"603 680 CURVE SMOOTH",
"603 686 OFFCURVE",
"599 690 OFFCURVE",
"593 690 CURVE SMOOTH",
"256 690 LINE SMOOTH",
"250 690 OFFCURVE",
"246 686 OFFCURVE",
"246 680 CURVE SMOOTH",
"246 673 OFFCURVE",
"250 669 OFFCURVE",
"256 669 CURVE SMOOTH",
"593 669 LINE SMOOTH"
);
}
);
};
components = (
{
name = _v_stem_UC;
transform = "{1, 0, 0, 1, 117, 0}";
}
);
layerId = "8AECA43D-4735-4071-BB51-E4BAE59DF091";
paths = (
{
closed = 1;
nodes = (
"485 686 OFFCURVE",
"481 690 OFFCURVE",
"476 690 CURVE SMOOTH",
"140 690 LINE SMOOTH",
"133 690 OFFCURVE",
"128 685 OFFCURVE",
"128 678 CURVE SMOOTH",
"128 673 OFFCURVE",
"132 669 OFFCURVE",
"137 669 CURVE SMOOTH",
"473 669 LINE SMOOTH",
"480 669 OFFCURVE",
"485 674 OFFCURVE",
"485 681 CURVE SMOOTH"
);
}
);
width = 377;
},
{
associatedMasterId = "8AECA43D-4735-4071-BB51-E4BAE59DF091";
layerId = "12CABE94-6C3B-4536-97B5-4A5F30AC7BC5";
name = "Aug 15 20, 13:58";
paths = (
{
closed = 1;
nodes = (
"500 662 OFFCURVE",
"489 658 OFFCURVE",
"489 658 CURVE",
"330 658 LINE",
"155 7 LINE SMOOTH",
"154 1 OFFCURVE",
"148 -2 OFFCURVE",
"142 0 CURVE SMOOTH",
"137 1 OFFCURVE",
"133 7 OFFCURVE",
"135 12 CURVE",
"308 658 LINE",
"154 658 LINE SMOOTH",
"148 658 OFFCURVE",
"144 662 OFFCURVE",
"144 668 CURVE SMOOTH",
"144 674 OFFCURVE",
"148 679 OFFCURVE",
"154 679 CURVE SMOOTH",
"489 679 LINE SMOOTH",
"495 679 OFFCURVE",
"500 674 OFFCURVE",
"500 668 CURVE SMOOTH"
);
}
);
width = 385;
}
);
leftKerningGroup = T;
rightKerningGroup = T;
rightMetricsKey = "=|";
unicode = 0054;
},
{
color = 4;
glyphname = U;
lastChange = "2020-10-02 15:14:38 +0000";
layers = (
{
anchors = (
{
name = bottom;
position = "{143, 0}";
},
{
name = ogonek;
position = "{311, 10}";
},
{
name = top;
position = "{328, 690}";
},
{
name = topright;
position = "{514, 690}";
}
);
background = {
paths = (
{
closed = 1;
nodes = (
"296 70 OFFCURVE",
"250 20 OFFCURVE",
"156 20 CURVE SMOOTH",
"71 20 OFFCURVE",
"27 70 OFFCURVE",
"50 157 CURVE SMOOTH",
"190 678 LINE SMOOTH",
"192 686 OFFCURVE",
"186 690 OFFCURVE",
"180 690 CURVE SMOOTH",
"173 690 OFFCURVE",
"171 687 OFFCURVE",
"169 680 CURVE SMOOTH",
"29 162 LINE SMOOTH",
"1 59 OFFCURVE",
"57 0 OFFCURVE",
"156 0 CURVE SMOOTH",
"265 0 OFFCURVE",
"314 58 OFFCURVE",
"342 162 CURVE SMOOTH",
"481 678 LINE SMOOTH",
"483 686 OFFCURVE",
"477 690 OFFCURVE",
"471 690 CURVE SMOOTH",
"464 690 OFFCURVE",
"462 687 OFFCURVE",
"460 680 CURVE SMOOTH",
"319 157 LINE SMOOTH"
);
}
);
};
layerId = "8AECA43D-4735-4071-BB51-E4BAE59DF091";
paths = (
{
closed = 1;
nodes = (
"295 70 OFFCURVE",
"248 20 OFFCURVE",
"159 20 CURVE SMOOTH",
"69 20 OFFCURVE",
"27 70 OFFCURVE",
"50 157 CURVE SMOOTH",
"190 678 LINE SMOOTH",
"192 686 OFFCURVE",
"186 690 OFFCURVE",
"180 690 CURVE SMOOTH",
"173 690 OFFCURVE",
"171 687 OFFCURVE",
"169 680 CURVE SMOOTH",
"31 168 LINE SMOOTH",
"2 59 OFFCURVE",
"55 0 OFFCURVE",
"159 0 CURVE SMOOTH",
"263 0 OFFCURVE",
"314 58 OFFCURVE",
"342 162 CURVE SMOOTH",
"481 678 LINE SMOOTH",
"483 686 OFFCURVE",
"477 690 OFFCURVE",
"471 690 CURVE SMOOTH",
"464 690 OFFCURVE",
"462 687 OFFCURVE",
"460 680 CURVE SMOOTH",
"320 161 LINE SMOOTH"
);
}
);
width = 413;
},
{
associatedMasterId = "8AECA43D-4735-4071-BB51-E4BAE59DF091";
layerId = "282C46D8-7600-4047-89CB-4EF4D6A9ED02";
name = "Aug 15 20, 13:59";
paths = (
{
closed = 1;
nodes = (
"376 151 LINE SMOOTH",
"347 44 OFFCURVE",
"295 0 OFFCURVE",
"196 0 CURVE SMOOTH",
"142 0 OFFCURVE",
"103 14 OFFCURVE",
"81 43 CURVE SMOOTH",
"58 73 OFFCURVE",
"54 117 OFFCURVE",
"69 175 CURVE SMOOTH",
"205 682 LINE SMOOTH",
"207 688 OFFCURVE",
"212 691 OFFCURVE",
"218 689 CURVE SMOOTH",
"224 688 OFFCURVE",
"225 676 OFFCURVE",
"225 676 CURVE",
"89 169 LINE SMOOTH",
"76 119 OFFCURVE",
"79 81 OFFCURVE",
"97 56 CURVE SMOOTH",
"115 33 OFFCURVE",
"148 21 OFFCURVE",
"196 21 CURVE SMOOTH",
"284 21 OFFCURVE",
"329 59 OFFCURVE",
"355 157 CURVE SMOOTH",
"496 682 LINE SMOOTH",
"498 688 OFFCURVE",
"503 691 OFFCURVE",
"509 689 CURVE SMOOTH",
"515 688 OFFCURVE",
"518 682 OFFCURVE",
"516 676 CURVE SMOOTH"
);
}
);
width = 456;
}
);
leftKerningGroup = U;
rightKerningGroup = U;
rightMetricsKey = "=|";
unicode = 0055;
},
{
color = 4;
glyphname = V;
lastChange = "2020-10-10 11:25:13 +0000";
layers = (
{
anchors = (
{
name = bottom;
position = "{128, 0}";
},
{
name = top;
position = "{313, 690}";
}
);
background = {
paths = (
{
closed = 1;
nodes = (
"136 690 OFFCURVE",
"133 683 OFFCURVE",
"133 677 CURVE SMOOTH",
"119 8 LINE SMOOTH",
"119 3 OFFCURVE",
"122 0 OFFCURVE",
"127 0 CURVE SMOOTH",
"134 0 OFFCURVE",
"138 4 OFFCURVE",
"140 8 CURVE SMOOTH",
"486 677 LINE SMOOTH",
"489 683 OFFCURVE",
"484 690 OFFCURVE",
"477 690 CURVE SMOOTH",
"472 690 OFFCURVE",
"468 688 OFFCURVE",
"465 682 CURVE SMOOTH",
"122 17 LINE",
"138 17 LINE",
"154 682 LINE SMOOTH",
"154 687 OFFCURVE",
"151 690 OFFCURVE",
"146 690 CURVE SMOOTH"
);
}
);
};
layerId = "8AECA43D-4735-4071-BB51-E4BAE59DF091";
paths = (
{
closed = 1;
nodes = (
"135 690 OFFCURVE",
"133 683 OFFCURVE",
"133 677 CURVE SMOOTH",
"119 8 LINE SMOOTH",
"119 3 OFFCURVE",
"123 0 OFFCURVE",
"128 0 CURVE SMOOTH",
"135 0 OFFCURVE",
"137 3 OFFCURVE",
"140 8 CURVE SMOOTH",
"484 673 LINE SMOOTH",
"489 683 OFFCURVE",
"484 690 OFFCURVE",
"477 690 CURVE SMOOTH",
"472 690 OFFCURVE",
"468 688 OFFCURVE",
"465 682 CURVE SMOOTH",
"122 17 LINE",
"138 17 LINE",
"154 680 LINE SMOOTH",
"154 687 OFFCURVE",
"150 690 OFFCURVE",
"145 690 CURVE SMOOTH"
);
}
);
width = 383;
},
{
associatedMasterId = "8AECA43D-4735-4071-BB51-E4BAE59DF091";
layerId = "B1C143A8-D818-4E02-BBED-95CFA7368EF3";
name = "Aug 15 20, 14:01";
paths = (
{
closed = 1;
nodes = (
"170 5 LINE SMOOTH",
"168 1 OFFCURVE",
"163 -2 OFFCURVE",
"158 0 CURVE SMOOTH",
"153 1 OFFCURVE",
"150 5 OFFCURVE",
"150 10 CURVE",
"165 679 LINE",
"165 685 OFFCURVE",
"170 689 OFFCURVE",
"176 689 CURVE SMOOTH",
"181 689 OFFCURVE",
"186 684 OFFCURVE",
"186 678 CURVE",
"172 55 LINE",
"495 683 LINE",
"497 689 OFFCURVE",
"504 691 OFFCURVE",
"509 688 CURVE SMOOTH",
"514 685 OFFCURVE",
"516 679 OFFCURVE",
"513 674 CURVE SMOOTH"
);
}
);
width = 413;
}
);
leftKerningGroup = V;
rightKerningGroup = V;
rightMetricsKey = "=|";
unicode = 0056;
},
{
color = 4;
glyphname = W;
lastChange = "2020-10-02 15:14:38 +0000";
layers = (
{
anchors = (
{
name = bottom;
position = "{202, 0}";
},
{
name = top;
position = "{387, 690}";
}
);
background = {
paths = (
{
closed = 1;
nodes = (
"292 480 OFFCURVE",
"254 390 OFFCURVE",
"254 301 CURVE SMOOTH",
"254 207 OFFCURVE",
"292 109 OFFCURVE",
"359 6 CURVE SMOOTH",
"362 2 OFFCURVE",
"364 0 OFFCURVE",
"368 0 CURVE SMOOTH",
"374 0 OFFCURVE",
"379 4 OFFCURVE",
"381 10 CURVE SMOOTH",
"606 680 LINE SMOOTH",
"608 686 OFFCURVE",
"604 690 OFFCURVE",
"598 690 CURVE SMOOTH",
"591 690 OFFCURVE",
"586 686 OFFCURVE",
"584 680 CURVE SMOOTH",
"364 25 LINE",
"376 22 LINE",
"310 125 OFFCURVE",
"275 217 OFFCURVE",
"275 306 CURVE SMOOTH",
"275 371 OFFCURVE",
"305 460 OFFCURVE",
"326 460 CURVE SMOOTH",
"332 460 OFFCURVE",
"336 452 OFFCURVE",
"336 438 CURVE SMOOTH",
"336 306 OFFCURVE",
"169 131 OFFCURVE",
"40 22 CURVE",
"53 25 LINE",
"184 680 LINE SMOOTH",
"185 686 OFFCURVE",
"182 690 OFFCURVE",
"174 690 CURVE SMOOTH",
"168 690 OFFCURVE",
"164 686 OFFCURVE",
"163 680 CURVE SMOOTH",
"29 10 LINE SMOOTH",
"28 6 OFFCURVE",
"29 0 OFFCURVE",
"36 0 CURVE SMOOTH",
"39 0 OFFCURVE",
"45 2 OFFCURVE",
"47 4 CURVE SMOOTH",
"153 93 OFFCURVE",
"357 289 OFFCURVE",
"357 441 CURVE SMOOTH",
"357 466 OFFCURVE",
"348 480 OFFCURVE",
"331 480 CURVE SMOOTH"
);
}
);
};
layerId = "8AECA43D-4735-4071-BB51-E4BAE59DF091";
paths = (
{
closed = 1;
nodes = (
"289 480 OFFCURVE",
"254 393 OFFCURVE",
"254 304 CURVE SMOOTH",
"254 210 OFFCURVE",
"292 112 OFFCURVE",
"359 6 CURVE SMOOTH",
"362 2 OFFCURVE",
"364 0 OFFCURVE",
"368 0 CURVE SMOOTH",
"374 0 OFFCURVE",
"379 4 OFFCURVE",
"381 10 CURVE SMOOTH",
"605 678 LINE SMOOTH",
"608 686 OFFCURVE",
"602 690 OFFCURVE",
"596 690 CURVE SMOOTH",
"589 690 OFFCURVE",
"586 686 OFFCURVE",
"584 680 CURVE SMOOTH",
"364 25 LINE",
"376 20 LINE",
"310 122 OFFCURVE",
"275 210 OFFCURVE",
"275 306 CURVE SMOOTH",
"275 371 OFFCURVE",
"305 460 OFFCURVE",
"326 460 CURVE SMOOTH",
"332 460 OFFCURVE",
"336 452 OFFCURVE",
"336 438 CURVE SMOOTH",
"336 309 OFFCURVE",
"169 134 OFFCURVE",
"40 22 CURVE",
"53 25 LINE",
"184 680 LINE SMOOTH",
"185 686 OFFCURVE",
"182 690 OFFCURVE",
"174 690 CURVE SMOOTH",
"168 690 OFFCURVE",
"164 686 OFFCURVE",
"163 680 CURVE SMOOTH",
"29 10 LINE SMOOTH",
"28 6 OFFCURVE",
"29 0 OFFCURVE",
"36 0 CURVE SMOOTH",
"39 0 OFFCURVE",
"45 2 OFFCURVE",
"47 4 CURVE SMOOTH",
"153 92 OFFCURVE",
"357 288 OFFCURVE",
"357 441 CURVE SMOOTH",
"357 466 OFFCURVE",
"345 480 OFFCURVE",
"329 480 CURVE SMOOTH"
);
}
);
width = 532;
},
{
associatedMasterId = "8AECA43D-4735-4071-BB51-E4BAE59DF091";
layerId = "F3D37004-7545-45E7-A2E3-AB9DA7AD8397";
name = "Aug 15 20, 14:03";
paths = (
{
closed = 1;
nodes = (
"403 7 LINE SMOOTH",
"401 3 OFFCURVE",
"398 0 OFFCURVE",
"394 0 CURVE",
"391 -1 OFFCURVE",
"387 0 OFFCURVE",
"384 4 CURVE SMOOTH",
"335 69 OFFCURVE",
"301 146 OFFCURVE",
"287 224 CURVE",
"232 145 OFFCURVE",
"157 68 OFFCURVE",
"72 2 CURVE SMOOTH",
"68 -1 OFFCURVE",
"64 -1 OFFCURVE",
"60 1 CURVE SMOOTH",
"56 3 OFFCURVE",
"54 8 OFFCURVE",
"55 12 CURVE SMOOTH",
"186 681 LINE SMOOTH",
"187 687 OFFCURVE",
"193 690 OFFCURVE",
"198 689 CURVE SMOOTH",
"204 688 OFFCURVE",
"208 683 OFFCURVE",
"207 677 CURVE SMOOTH",
"81 36 LINE",
"162 102 OFFCURVE",
"232 178 OFFCURVE",
"283 254 CURVE",
"279 292 OFFCURVE",
"279 330 OFFCURVE",
"284 366 CURVE SMOOTH",
"295 436 OFFCURVE",
"320 478 OFFCURVE",
"352 478 CURVE SMOOTH",
"362 478 OFFCURVE",
"370 474 OFFCURVE",
"375 466 CURVE SMOOTH",
"390 443 OFFCURVE",
"377 396 OFFCURVE",
"363 361 CURVE SMOOTH",
"349 325 OFFCURVE",
"329 287 OFFCURVE",
"305 249 CURVE",
"315 174 OFFCURVE",
"344 98 OFFCURVE",
"389 33 CURVE",
"610 682 LINE SMOOTH",
"612 688 OFFCURVE",
"618 691 OFFCURVE",
"624 689 CURVE SMOOTH",
"629 687 OFFCURVE",
"630 676 OFFCURVE",
"630 676 CURVE"
);
},
{
closed = 1;
nodes = (
"357 456 OFFCURVE",
"355 457 OFFCURVE",
"352 457 CURVE SMOOTH",
"336 457 OFFCURVE",
"315 428 OFFCURVE",
"305 363 CURVE SMOOTH",
"301 337 OFFCURVE",
"300 311 OFFCURVE",
"302 284 CURVE",
"319 312 OFFCURVE",
"333 341 OFFCURVE",
"344 369 CURVE SMOOTH",
"363 418 OFFCURVE",
"363 446 OFFCURVE",
"358 454 CURVE SMOOTH"
);
}
);
width = 550;
}
);
leftKerningGroup = W;
rightKerningGroup = W;
rightMetricsKey = "=|";
unicode = 0057;
},
{
color = 4;
glyphname = X;
lastChange = "2020-10-10 11:26:07 +0000";
layers = (
{
anchors = (
{
name = bottom;
position = "{95, 0}";
},
{
name = top;
position = "{280, 690}";
}
);
background = {
paths = (
{
closed = 1;
nodes = (
"168 684 LINE SMOOTH",
"168 688 OFFCURVE",
"166 690 OFFCURVE",
"162 690 CURVE SMOOTH",
"154 690 OFFCURVE",
"147 684 OFFCURVE",
"148 676 CURVE SMOOTH",
"226 10 LINE SMOOTH",
"227 2 OFFCURVE",
"231 0 OFFCURVE",
"236 0 CURVE SMOOTH",
"245 0 OFFCURVE",
"247 7 OFFCURVE",
"246 14 CURVE SMOOTH"
);
}
);
};
layerId = "8AECA43D-4735-4071-BB51-E4BAE59DF091";
paths = (
{
closed = 1;
nodes = (
"412 683 OFFCURVE",
"406 690 OFFCURVE",
"398 690 CURVE SMOOTH",
"393 690 OFFCURVE",
"390 688 OFFCURVE",
"385 681 CURVE SMOOTH",
"-49 16 LINE SMOOTH",
"-55 7 OFFCURVE",
"-49 0 OFFCURVE",
"-41 0 CURVE SMOOTH",
"-36 0 OFFCURVE",
"-33 2 OFFCURVE",
"-28 9 CURVE SMOOTH",
"406 674 LINE SMOOTH"
);
},
{
closed = 1;
nodes = (
"226 10 LINE SMOOTH",
"227 2 OFFCURVE",
"231 0 OFFCURVE",
"236 0 CURVE SMOOTH",
"245 0 OFFCURVE",
"247 7 OFFCURVE",
"246 14 CURVE SMOOTH",
"168 680 LINE SMOOTH",
"167 688 OFFCURVE",
"163 690 OFFCURVE",
"158 690 CURVE SMOOTH",
"149 690 OFFCURVE",
"147 683 OFFCURVE",
"148 676 CURVE SMOOTH"
);
}
);
width = 318;
},
{
associatedMasterId = "8AECA43D-4735-4071-BB51-E4BAE59DF091";
layerId = "EE4915C1-EE00-4C4E-877A-437D0D82FDCC";
name = "Aug 15 20, 14:06";
paths = (
{
closed = 1;
nodes = (
"241 365 LINE",
"281 11 LINE",
"281 5 OFFCURVE",
"277 0 OFFCURVE",
"272 -1 CURVE",
"266 -1 OFFCURVE",
"261 3 OFFCURVE",
"260 9 CURVE SMOOTH",
"223 337 LINE",
"8 4 LINE SMOOTH",
"4 -1 OFFCURVE",
"-2 -2 OFFCURVE",
"-7 1 CURVE SMOOTH",
"-12 4 OFFCURVE",
"-13 11 OFFCURVE",
"-10 15 CURVE SMOOTH",
"220 370 LINE",
"185 677 LINE",
"185 683 OFFCURVE",
"189 688 OFFCURVE",
"195 689 CURVE SMOOTH",
"200 690 OFFCURVE",
"206 686 OFFCURVE",
"206 680 CURVE",
"238 398 LINE",
"423 684 LINE SMOOTH",
"426 689 OFFCURVE",
"433 691 OFFCURVE",
"438 687 CURVE SMOOTH",
"442 684 OFFCURVE",
"444 678 OFFCURVE",
"441 673 CURVE SMOOTH"
);
}
);
width = 371;
}
);
leftKerningGroup = X;
rightKerningGroup = X;
rightMetricsKey = "=|";
unicode = 0058;
},
{
color = 4;
glyphname = Y;
lastChange = "2020-10-10 11:24:26 +0000";
layers = (
{
anchors = (
{
name = bottom;
position = "{122, 0}";
},
{
name = top;
position = "{307, 690}";
},
{
name = topleft;
position = "{141, 690}";
}
);
layerId = "8AECA43D-4735-4071-BB51-E4BAE59DF091";
paths = (
{
closed = 1;
nodes = (
"112 4 OFFCURVE",
"118 0 OFFCURVE",
"124 0 CURVE SMOOTH",
"131 0 OFFCURVE",
"133 3 OFFCURVE",
"135 10 CURVE SMOOTH",
"218 320 LINE SMOOTH",
"220 326 OFFCURVE",
"217 330 OFFCURVE",
"210 330 CURVE SMOOTH",
"204 330 OFFCURVE",
"198 326 OFFCURVE",
"196 320 CURVE SMOOTH",
"114 12 LINE SMOOTH"
);
},
{
closed = 1;
nodes = (
"483 683 OFFCURVE",
"477 690 OFFCURVE",
"469 690 CURVE SMOOTH",
"464 690 OFFCURVE",
"461 688 OFFCURVE",
"456 681 CURVE SMOOTH",
"199 324 LINE",
"215 326 LINE",
"149 680 LINE SMOOTH",
"147 688 OFFCURVE",
"144 690 OFFCURVE",
"139 690 CURVE SMOOTH",
"130 690 OFFCURVE",
"128 683 OFFCURVE",
"129 676 CURVE SMOOTH",
"196 309 LINE",
"214 309 LINE",
"477 674 LINE SMOOTH"
);
}
);
width = 371;
},
{
associatedMasterId = "8AECA43D-4735-4071-BB51-E4BAE59DF091";
layerId = "E60AD23E-A724-409B-9B75-6E935A4D8C77";
name = "Aug 15 20, 14:09";
paths = (
{
closed = 1;
nodes = (
"242 311 LINE",
"160 7 LINE SMOOTH",
"159 1 OFFCURVE",
"153 -2 OFFCURVE",
"147 -1 CURVE SMOOTH",
"142 1 OFFCURVE",
"139 7 OFFCURVE",
"140 12 CURVE SMOOTH",
"221 316 LINE",
"155 677 LINE SMOOTH",
"154 682 OFFCURVE",
"157 688 OFFCURVE",
"163 689 CURVE SMOOTH",
"169 690 OFFCURVE",
"174 686 OFFCURVE",
"175 680 CURVE SMOOTH",
"238 341 LINE",
"485 685 LINE",
"489 689 OFFCURVE",
"495 690 OFFCURVE",
"500 687 CURVE SMOOTH",
"505 684 OFFCURVE",
"506 677 OFFCURVE",
"502 672 CURVE SMOOTH"
);
}
);
width = 402;
}
);
leftKerningGroup = Y;
rightKerningGroup = Y;
rightMetricsKey = "=|";
unicode = 0059;
},
{
color = 4;
glyphname = Z;
lastChange = "2020-10-02 15:14:39 +0000";
layers = (
{
anchors = (
{
name = bottom;
position = "{91, 0}";
},
{
name = center;
position = "{184, 345}";
},
{
name = top;
position = "{276, 690}";
}
);
background = {
paths = (
{
closed = 1;
nodes = (
"-47 3 OFFCURVE",
"-43 0 OFFCURVE",
"-39 0 CURVE SMOOTH",
"220 0 LINE SMOOTH",
"227 0 OFFCURVE",
"233 7 OFFCURVE",
"233 14 CURVE SMOOTH",
"233 18 OFFCURVE",
"230 21 OFFCURVE",
"225 21 CURVE SMOOTH",
"-27 21 LINE",
"-20 14 LINE",
"398 673 LINE SMOOTH",
"401 678 OFFCURVE",
"403 681 OFFCURVE",
"403 684 CURVE SMOOTH",
"403 687 OFFCURVE",
"400 690 OFFCURVE",
"395 690 CURVE SMOOTH",
"156 690 LINE SMOOTH",
"149 690 OFFCURVE",
"142 684 OFFCURVE",
"142 676 CURVE SMOOTH",
"142 672 OFFCURVE",
"145 669 OFFCURVE",
"150 669 CURVE SMOOTH",
"383 669 LINE",
"376 678 LINE",
"-42 19 LINE SMOOTH",
"-45 14 OFFCURVE",
"-47 10 OFFCURVE",
"-47 7 CURVE SMOOTH"
);
}
);
};
layerId = "8AECA43D-4735-4071-BB51-E4BAE59DF091";
paths = (
{
closed = 1;
nodes = (
"398 673 LINE SMOOTH",
"400 676 OFFCURVE",
"401 678 OFFCURVE",
"401 681 CURVE SMOOTH",
"401 686 OFFCURVE",
"397 690 OFFCURVE",
"392 690 CURVE SMOOTH",
"154 690 LINE SMOOTH",
"147 690 OFFCURVE",
"142 685 OFFCURVE",
"142 678 CURVE SMOOTH",
"142 673 OFFCURVE",
"146 669 OFFCURVE",
"151 669 CURVE SMOOTH",
"383 669 LINE",
"376 678 LINE",
"-44 16 LINE SMOOTH",
"-46 13 OFFCURVE",
"-46 11 OFFCURVE",
"-46 9 CURVE SMOOTH",
"-46 4 OFFCURVE",
"-42 0 OFFCURVE",
"-37 0 CURVE SMOOTH",
"221 0 LINE SMOOTH",
"228 0 OFFCURVE",
"233 5 OFFCURVE",
"233 12 CURVE SMOOTH",
"233 17 OFFCURVE",
"229 21 OFFCURVE",
"224 21 CURVE SMOOTH",
"-27 21 LINE",
"-20 14 LINE"
);
}
);
width = 309;
},
{
associatedMasterId = "8AECA43D-4735-4071-BB51-E4BAE59DF091";
layerId = "05EDA4EC-8587-4154-AD99-F3FDBBEB5D08";
name = "Aug 15 20, 14:11";
paths = (
{
closed = 1;
nodes = (
"434 669 OFFCURVE",
"434 665 OFFCURVE",
"432 662 CURVE SMOOTH",
"19 32 LINE",
"257 32 LINE SMOOTH",
"263 32 OFFCURVE",
"268 27 OFFCURVE",
"268 21 CURVE SMOOTH",
"268 16 OFFCURVE",
"263 11 OFFCURVE",
"257 11 CURVE SMOOTH",
"-1 11 LINE SMOOTH",
"-5 11 OFFCURVE",
"-8 13 OFFCURVE",
"-10 16 CURVE SMOOTH",
"-12 20 OFFCURVE",
"-12 24 OFFCURVE",
"-10 27 CURVE SMOOTH",
"404 657 LINE",
"188 657 LINE SMOOTH",
"182 657 OFFCURVE",
"177 662 OFFCURVE",
"177 668 CURVE SMOOTH",
"177 674 OFFCURVE",
"182 678 OFFCURVE",
"188 678 CURVE SMOOTH",
"423 678 LINE SMOOTH",
"427 678 OFFCURVE",
"430 676 OFFCURVE",
"432 673 CURVE SMOOTH"
);
}
);
width = 337;
}
);
leftKerningGroup = Z;
rightKerningGroup = Z;
rightMetricsKey = "=|";
unicode = 005A;
},
{
glyphname = bracketleft;
lastChange = "2020-10-02 15:14:39 +0000";
layers = (
{
background = {
paths = (
{
closed = 1;
nodes = (
"115 -46 OFFCURVE",
"111 -43 OFFCURVE",
"108 -43 CURVE SMOOTH",
"6 -43 LINE",
"212 727 LINE",
"314 727 LINE SMOOTH",
"320 727 OFFCURVE",
"328 734 OFFCURVE",
"328 741 CURVE SMOOTH",
"328 745 OFFCURVE",
"324 748 OFFCURVE",
"320 748 CURVE SMOOTH",
"207 748 LINE SMOOTH",
"202 748 OFFCURVE",
"196 744 OFFCURVE",
"194 738 CURVE SMOOTH",
"-18 -54 LINE SMOOTH",
"-19 -59 OFFCURVE",
"-16 -64 OFFCURVE",
"-11 -64 CURVE SMOOTH",
"102 -64 LINE SMOOTH",
"107 -64 OFFCURVE",
"115 -58 OFFCURVE",
"115 -51 CURVE SMOOTH"
);
}
);
};
layerId = "8AECA43D-4735-4071-BB51-E4BAE59DF091";
paths = (
{
closed = 1;
nodes = (
"323 727 OFFCURVE",
"328 732 OFFCURVE",
"328 739 CURVE SMOOTH",
"328 744 OFFCURVE",
"324 748 OFFCURVE",
"319 748 CURVE SMOOTH",
"207 748 LINE SMOOTH",
"202 748 OFFCURVE",
"196 744 OFFCURVE",
"194 738 CURVE SMOOTH",
"-18 -54 LINE SMOOTH",
"-19 -59 OFFCURVE",
"-16 -64 OFFCURVE",
"-11 -64 CURVE SMOOTH",
"103 -64 LINE SMOOTH",
"110 -64 OFFCURVE",
"115 -59 OFFCURVE",
"115 -52 CURVE SMOOTH",
"115 -47 OFFCURVE",
"111 -43 OFFCURVE",
"106 -43 CURVE SMOOTH",
"6 -43 LINE",
"212 727 LINE",
"316 727 LINE SMOOTH"
);
}
);
width = 194;
}
);
leftKerningGroup = H;
leftMetricsKey = H;
rightKerningGroup = parenleft;
unicode = 005B;
},
{
glyphname = backslash;
lastChange = "2020-10-09 14:52:46 +0000";
layers = (
{
background = {
paths = (
{
closed = 1;
nodes = (
"158 746 OFFCURVE",
"153 748 OFFCURVE",
"148 748 CURVE SMOOTH",
"142 748 OFFCURVE",
"137 743 OFFCURVE",
"139 734 CURVE SMOOTH",
"279 -56 LINE SMOOTH",
"280 -62 OFFCURVE",
"285 -64 OFFCURVE",
"290 -64 CURVE SMOOTH",
"296 -64 OFFCURVE",
"301 -59 OFFCURVE",
"299 -50 CURVE SMOOTH",
"159 740 LINE SMOOTH"
);
}
);
};
layerId = "8AECA43D-4735-4071-BB51-E4BAE59DF091";
paths = (
{
closed = 1;
nodes = (
"159 746 OFFCURVE",
"153 748 OFFCURVE",
"148 748 CURVE SMOOTH",
"141 748 OFFCURVE",
"139 743 OFFCURVE",
"139 734 CURVE SMOOTH",
"166 -52 LINE SMOOTH",
"166 -62 OFFCURVE",
"172 -64 OFFCURVE",
"177 -64 CURVE SMOOTH",
"184 -64 OFFCURVE",
"187 -59 OFFCURVE",
"187 -50 CURVE SMOOTH",
"159 736 LINE SMOOTH"
);
}
);
width = 270;
}
);
leftKerningGroup = backslash;
leftMetricsKey = "=|slash";
rightKerningGroup = backslash;
rightMetricsKey = "=|slash";
unicode = 005C;
},
{
glyphname = asciicircum;
lastChange = "2020-08-21 13:41:35 +0000";
layers = (
{
background = {
paths = (
{
closed = 1;
nodes = (
"338 684 LINE SMOOTH",
"337 688 OFFCURVE",
"334 690 OFFCURVE",
"329 690 CURVE SMOOTH",
"324 690 OFFCURVE",
"320 687 OFFCURVE",
"318 684 CURVE SMOOTH",
"43 320 LINE SMOOTH",
"38 313 OFFCURVE",
"40 305 OFFCURVE",
"48 305 CURVE SMOOTH",
"53 305 OFFCURVE",
"57 307 OFFCURVE",
"60 311 CURVE SMOOTH",
"327 665 LINE",
"317 665 LINE",
"396 311 LINE SMOOTH",
"397 307 OFFCURVE",
"399 305 OFFCURVE",
"404 305 CURVE SMOOTH",
"411 305 OFFCURVE",
"419 313 OFFCURVE",
"417 320 CURVE SMOOTH"
);
}
);
};
layerId = "8AECA43D-4735-4071-BB51-E4BAE59DF091";
paths = (
{
closed = 1;
nodes = (
"338 684 LINE SMOOTH",
"337 688 OFFCURVE",
"333 690 OFFCURVE",
"328 690 CURVE SMOOTH",
"323 690 OFFCURVE",
"320 687 OFFCURVE",
"318 684 CURVE SMOOTH",
"43 320 LINE SMOOTH",
"39 314 OFFCURVE",
"40 305 OFFCURVE",
"51 305 CURVE SMOOTH",
"56 305 OFFCURVE",
"59 307 OFFCURVE",
"62 311 CURVE SMOOTH",
"329 665 LINE",
"321 665 LINE",
"397 314 LINE SMOOTH",
"399 307 OFFCURVE",
"402 305 OFFCURVE",
"408 305 CURVE SMOOTH",
"415 305 OFFCURVE",
"419 313 OFFCURVE",
"417 320 CURVE SMOOTH"
);
}
);
width = 417;
}
);
rightMetricsKey = "=|";
unicode = 005E;
},
{
glyphname = underscore;
lastChange = "2020-08-21 14:04:46 +0000";
layers = (
{
background = {
paths = (
{
closed = 1;
nodes = (
"449 -17 OFFCURVE",
"445 -21 OFFCURVE",
"439 -21 CURVE SMOOTH",
"-17 -21 LINE SMOOTH",
"-22 -21 OFFCURVE",
"-27 -17 OFFCURVE",
"-27 -10 CURVE SMOOTH",
"-27 -3 OFFCURVE",
"-22 0 OFFCURVE",
"-17 0 CURVE SMOOTH",
"439 0 LINE SMOOTH",
"445 0 OFFCURVE",
"449 -3 OFFCURVE",
"449 -10 CURVE SMOOTH"
);
}
);
};
layerId = "8AECA43D-4735-4071-BB51-E4BAE59DF091";
paths = (
{
closed = 1;
nodes = (
"449 -4 OFFCURVE",
"445 0 OFFCURVE",
"440 0 CURVE SMOOTH",
"-15 0 LINE SMOOTH",
"-22 0 OFFCURVE",
"-27 -5 OFFCURVE",
"-27 -12 CURVE SMOOTH",
"-27 -17 OFFCURVE",
"-23 -21 OFFCURVE",
"-18 -21 CURVE SMOOTH",
"437 -21 LINE SMOOTH",
"444 -21 OFFCURVE",
"449 -16 OFFCURVE",
"449 -9 CURVE SMOOTH"
);
}
);
width = 556;
}
);
leftMetricsKey = hyphen;
rightMetricsKey = hyphen;
unicode = 005F;
},
{
color = 4;
glyphname = a;
lastChange = "2020-10-10 11:30:11 +0000";
layers = (
{
anchors = (
{
name = bottom;
position = "{106, 0}";
},
{
name = ogonek;
position = "{244, 10}";
},
{
name = top;
position = "{214, 477}";
}
);
layerId = "8AECA43D-4735-4071-BB51-E4BAE59DF091";
paths = (
{
closed = 1;
nodes = (
"164 0 CURVE SMOOTH",
"199 0 OFFCURVE",
"246 57 OFFCURVE",
"284 145 CURVE SMOOTH",
"287 151 OFFCURVE",
"282 159 OFFCURVE",
"275 159 CURVE SMOOTH",
"269 159 OFFCURVE",
"266 156 OFFCURVE",
"263 149 CURVE SMOOTH",
"235 82 OFFCURVE",
"188 21 OFFCURVE",
"165 21 CURVE SMOOTH",
"153 21 OFFCURVE",
"146 35 OFFCURVE",
"146 61 CURVE SMOOTH",
"146 139 OFFCURVE",
"180 243 OFFCURVE",
"207 243 CURVE SMOOTH",
"210 243 OFFCURVE",
"213 241 OFFCURVE",
"213 235 CURVE SMOOTH",
"213 163 OFFCURVE",
"120 16 OFFCURVE",
"62 16 CURVE SMOOTH",
"41 16 OFFCURVE",
"32 38 OFFCURVE",
"32 78 CURVE SMOOTH",
"32 220 OFFCURVE",
"146 461 OFFCURVE",
"214 461 CURVE SMOOTH",
"237 461 OFFCURVE",
"249 433 OFFCURVE",
"249 386 CURVE SMOOTH",
"249 370 OFFCURVE",
"248 353 OFFCURVE",
"245 334 CURVE SMOOTH",
"244 327 OFFCURVE",
"248 322 OFFCURVE",
"255 322 CURVE SMOOTH",
"260 322 OFFCURVE",
"264 326 OFFCURVE",
"265 331 CURVE SMOOTH",
"269 352 OFFCURVE",
"270 370 OFFCURVE",
"270 387 CURVE SMOOTH",
"270 447 OFFCURVE",
"250 482 OFFCURVE",
"217 482 CURVE SMOOTH",
"132 482 OFFCURVE",
"12 242 OFFCURVE",
"12 74 CURVE SMOOTH",
"12 23 OFFCURVE",
"31 -5 OFFCURVE",
"62 -5 CURVE SMOOTH",
"134 -5 OFFCURVE",
"234 153 OFFCURVE",
"234 234 CURVE SMOOTH",
"234 254 OFFCURVE",
"224 264 OFFCURVE",
"210 264 CURVE SMOOTH",
"167 264 OFFCURVE",
"126 165 OFFCURVE",
"126 69 CURVE SMOOTH",
"126 24 OFFCURVE",
"139 0 OFFCURVE"
);
}
);
width = 324;
},
{
associatedMasterId = "8AECA43D-4735-4071-BB51-E4BAE59DF091";
layerId = "3BA8C98A-024E-46B3-BD0F-8E11CFE33341";
name = "Aug 15 20, 14:14";
paths = (
{
closed = 1;
nodes = (
"314 113 OFFCURVE",
"267 26 OFFCURVE",
"224 5 CURVE SMOOTH",
"213 -1 OFFCURVE",
"203 -2 OFFCURVE",
"193 2 CURVE SMOOTH",
"183 5 OFFCURVE",
"176 12 OFFCURVE",
"171 23 CURVE SMOOTH",
"169 27 OFFCURVE",
"168 31 OFFCURVE",
"167 35 CURVE",
"138 6 OFFCURVE",
"109 -7 OFFCURVE",
"87 2 CURVE SMOOTH",
"36 22 OFFCURVE",
"38 139 OFFCURVE",
"91 273 CURVE SMOOTH",
"144 408 OFFCURVE",
"222 494 OFFCURVE",
"273 474 CURVE SMOOTH",
"305 461 OFFCURVE",
"317 409 OFFCURVE",
"304 331 CURVE SMOOTH",
"303 325 OFFCURVE",
"298 321 OFFCURVE",
"292 322 CURVE SMOOTH",
"287 323 OFFCURVE",
"283 328 OFFCURVE",
"284 334 CURVE SMOOTH",
"295 408 OFFCURVE",
"283 448 OFFCURVE",
"265 455 CURVE SMOOTH",
"232 468 OFFCURVE",
"161 393 OFFCURVE",
"111 265 CURVE SMOOTH",
"60 138 OFFCURVE",
"62 35 OFFCURVE",
"94 22 CURVE SMOOTH",
"110 16 OFFCURVE",
"136 30 OFFCURVE",
"164 63 CURVE",
"164 119 OFFCURVE",
"191 191 OFFCURVE",
"191 192 CURVE",
"192 196 OFFCURVE",
"222 275 OFFCURVE",
"257 263 CURVE",
"263 260 OFFCURVE",
"268 256 OFFCURVE",
"270 250 CURVE SMOOTH",
"279 230 OFFCURVE",
"264 192 OFFCURVE",
"251 163 CURVE SMOOTH",
"231 120 OFFCURVE",
"208 83 OFFCURVE",
"185 55 CURVE",
"186 46 OFFCURVE",
"187 38 OFFCURVE",
"190 32 CURVE SMOOTH",
"193 26 OFFCURVE",
"196 23 OFFCURVE",
"200 21 CURVE SMOOTH",
"204 20 OFFCURVE",
"209 21 OFFCURVE",
"215 23 CURVE",
"250 41 OFFCURVE",
"294 121 OFFCURVE",
"303 151 CURVE SMOOTH",
"305 156 OFFCURVE",
"311 159 OFFCURVE",
"317 158 CURVE SMOOTH",
"322 156 OFFCURVE",
"325 150 OFFCURVE",
"323 145 CURVE SMOOTH"
);
},
{
closed = 1;
nodes = (
"252 244 OFFCURVE",
"248 245 OFFCURVE",
"242 240 CURVE SMOOTH",
"232 230 OFFCURVE",
"219 208 OFFCURVE",
"211 185 CURVE SMOOTH",
"203 165 OFFCURVE",
"192 128 OFFCURVE",
"187 93 CURVE",
"203 115 OFFCURVE",
"218 142 OFFCURVE",
"232 172 CURVE SMOOTH",
"246 203 OFFCURVE",
"252 225 OFFCURVE",
"252 236 CURVE SMOOTH"
);
}
);
visible = 1;
width = 328;
}
);
leftKerningGroup = a;
leftMetricsKey = o;
rightKerningGroup = a;
unicode = 0061;
},
{
color = 4;
glyphname = b;
lastChange = "2020-10-02 15:14:39 +0000";
layers = (
{
anchors = (
{
name = bottom;
position = "{99, 0}";
},
{
name = top;
position = "{290, 713}";
}
);
background = {
paths = (
{
closed = 1;
nodes = (
"310 441 OFFCURVE",
"281 482 OFFCURVE",
"237 482 CURVE SMOOTH",
"137 482 OFFCURVE",
"44 272 OFFCURVE",
"44 119 CURVE SMOOTH",
"44 36 OFFCURVE",
"73 -5 OFFCURVE",
"116 -5 CURVE SMOOTH",
"215 -5 OFFCURVE",
"310 205 OFFCURVE",
"310 358 CURVE SMOOTH"
);
},
{
closed = 1;
nodes = (
"288 219 OFFCURVE",
"201 16 OFFCURVE",
"117 16 CURVE SMOOTH",
"86 16 OFFCURVE",
"66 48 OFFCURVE",
"66 119 CURVE SMOOTH",
"66 258 OFFCURVE",
"152 461 OFFCURVE",
"236 461 CURVE SMOOTH",
"268 461 OFFCURVE",
"288 429 OFFCURVE",
"288 358 CURVE SMOOTH"
);
}
);
};
layerId = "8AECA43D-4735-4071-BB51-E4BAE59DF091";
paths = (
{
closed = 1;
nodes = (
"59 16 OFFCURVE",
"44 32 OFFCURVE",
"44 60 CURVE SMOOTH",
"44 87 OFFCURVE",
"54 133 OFFCURVE",
"83 241 CURVE SMOOTH",
"207 701 LINE SMOOTH",
"209 709 OFFCURVE",
"203 713 OFFCURVE",
"197 713 CURVE SMOOTH",
"190 713 OFFCURVE",
"188 710 OFFCURVE",
"186 703 CURVE SMOOTH",
"67 264 LINE SMOOTH",
"35 145 OFFCURVE",
"23 93 OFFCURVE",
"23 59 CURVE SMOOTH",
"23 19 OFFCURVE",
"46 -5 OFFCURVE",
"82 -5 CURVE SMOOTH",
"189 -5 OFFCURVE",
"308 221 OFFCURVE",
"308 368 CURVE SMOOTH",
"308 441 OFFCURVE",
"279 482 OFFCURVE",
"231 482 CURVE SMOOTH",
"187 482 OFFCURVE",
"145 446 OFFCURVE",
"111 383 CURVE",
"112 361 LINE",
"144 415 OFFCURVE",
"187 461 OFFCURVE",
"230 461 CURVE SMOOTH",
"266 461 OFFCURVE",
"286 429 OFFCURVE",
"286 368 CURVE SMOOTH",
"286 229 OFFCURVE",
"173 16 OFFCURVE",
"83 16 CURVE SMOOTH"
);
}
);
width = 326;
},
{
associatedMasterId = "8AECA43D-4735-4071-BB51-E4BAE59DF091";
layerId = "76259DEE-EB95-46AC-9E7D-A9B1A43F4B42";
name = "Aug 15 20, 14:26";
paths = (
{
closed = 1;
nodes = (
"300 400 OFFCURVE",
"288 308 OFFCURVE",
"246 212 CURVE SMOOTH",
"221 155 OFFCURVE",
"188 100 OFFCURVE",
"155 61 CURVE SMOOTH",
"114 12 OFFCURVE",
"77 -8 OFFCURVE",
"48 3 CURVE SMOOTH",
"1 20 OFFCURVE",
"27 117 OFFCURVE",
"54 220 CURVE SMOOTH",
"184 705 LINE SMOOTH",
"186 711 OFFCURVE",
"192 714 OFFCURVE",
"197 713 CURVE SMOOTH",
"203 711 OFFCURVE",
"206 706 OFFCURVE",
"205 700 CURVE SMOOTH",
"131 427 LINE",
"161 456 OFFCURVE",
"204 485 OFFCURVE",
"243 476 CURVE SMOOTH",
"257 472 OFFCURVE",
"269 462 OFFCURVE",
"277 447 CURVE SMOOTH"
);
},
{
closed = 1;
nodes = (
"253 447 OFFCURVE",
"246 453 OFFCURVE",
"238 455 CURVE SMOOTH",
"200 464 OFFCURVE",
"143 420 OFFCURVE",
"121 389 CURVE",
"121 389 OFFCURVE",
"98 302 OFFCURVE",
"75 214 CURVE SMOOTH",
"54 138 OFFCURVE",
"26 33 OFFCURVE",
"55 22 CURVE SMOOTH",
"98 6 OFFCURVE",
"179 112 OFFCURVE",
"227 221 CURVE SMOOTH",
"272 323 OFFCURVE",
"275 403 OFFCURVE",
"258 437 CURVE SMOOTH"
);
}
);
width = 297;
}
);
leftKerningGroup = l;
leftMetricsKey = n;
rightKerningGroup = o;
rightMetricsKey = o;
unicode = 0062;
},
{
color = 4;
glyphname = c;
lastChange = "2020-10-02 15:14:39 +0000";
layers = (
{
anchors = (
{
name = bottom;
position = "{78, 0}";
},
{
name = top;
position = "{206, 477}";
}
);
background = {
paths = (
{
closed = 1;
nodes = (
"251 461 OFFCURVE",
"267 426 OFFCURVE",
"269 383 CURVE SMOOTH",
"269 376 OFFCURVE",
"270 373 OFFCURVE",
"277 373 CURVE SMOOTH",
"286 373 OFFCURVE",
"292 382 OFFCURVE",
"291 390 CURVE SMOOTH",
"287 446 OFFCURVE",
"266 482 OFFCURVE",
"217 482 CURVE SMOOTH",
"117 482 OFFCURVE",
"24 272 OFFCURVE",
"24 119 CURVE SMOOTH",
"24 36 OFFCURVE",
"53 -5 OFFCURVE",
"96 -5 CURVE SMOOTH",
"136 -5 OFFCURVE",
"177 29 OFFCURVE",
"211 86 CURVE SMOOTH",
"216 95 OFFCURVE",
"214 105 OFFCURVE",
"206 105 CURVE SMOOTH",
"199 105 OFFCURVE",
"196 102 OFFCURVE",
"192 96 CURVE SMOOTH",
"164 48 OFFCURVE",
"132 16 OFFCURVE",
"97 16 CURVE SMOOTH",
"66 16 OFFCURVE",
"46 48 OFFCURVE",
"46 119 CURVE SMOOTH",
"46 258 OFFCURVE",
"132 461 OFFCURVE",
"216 461 CURVE SMOOTH"
);
}
);
};
layerId = "8AECA43D-4735-4071-BB51-E4BAE59DF091";
paths = (
{
closed = 1;
nodes = (
"251 461 OFFCURVE",
"267 426 OFFCURVE",
"269 383 CURVE SMOOTH",
"269 376 OFFCURVE",
"273 373 OFFCURVE",
"279 373 CURVE SMOOTH",
"288 373 OFFCURVE",
"292 379 OFFCURVE",
"291 390 CURVE SMOOTH",
"287 446 OFFCURVE",
"266 482 OFFCURVE",
"217 482 CURVE SMOOTH",
"117 482 OFFCURVE",
"24 272 OFFCURVE",
"24 119 CURVE SMOOTH",
"24 36 OFFCURVE",
"53 -5 OFFCURVE",
"96 -5 CURVE SMOOTH",
"136 -5 OFFCURVE",
"177 29 OFFCURVE",
"211 86 CURVE SMOOTH",
"217 96 OFFCURVE",
"213 105 OFFCURVE",
"204 105 CURVE SMOOTH",
"199 105 OFFCURVE",
"196 103 OFFCURVE",
"192 96 CURVE SMOOTH",
"164 48 OFFCURVE",
"132 16 OFFCURVE",
"97 16 CURVE SMOOTH",
"66 16 OFFCURVE",
"46 48 OFFCURVE",
"46 119 CURVE SMOOTH",
"46 258 OFFCURVE",
"132 461 OFFCURVE",
"216 461 CURVE SMOOTH"
);
}
);
width = 283;
},
{
associatedMasterId = "8AECA43D-4735-4071-BB51-E4BAE59DF091";
layerId = "C9D8AD9C-B96E-4AAA-9AD4-468FCF2B41A5";
name = "Aug 15 20, 14:34";
paths = (
{
closed = 1;
nodes = (
"314 364 OFFCURVE",
"309 359 OFFCURVE",
"303 359 CURVE",
"297 358 OFFCURVE",
"293 363 OFFCURVE",
"292 369 CURVE",
"292 395 OFFCURVE",
"285 457 OFFCURVE",
"243 457 CURVE SMOOTH",
"197 457 OFFCURVE",
"128 379 OFFCURVE",
"89 236 CURVE SMOOTH",
"65 146 OFFCURVE",
"65 69 OFFCURVE",
"90 37 CURVE SMOOTH",
"98 26 OFFCURVE",
"108 21 OFFCURVE",
"120 21 CURVE SMOOTH",
"150 21 OFFCURVE",
"186 51 OFFCURVE",
"217 102 CURVE SMOOTH",
"220 107 OFFCURVE",
"227 109 OFFCURVE",
"231 105 CURVE SMOOTH",
"236 102 OFFCURVE",
"238 96 OFFCURVE",
"235 91 CURVE SMOOTH",
"199 32 OFFCURVE",
"158 0 OFFCURVE",
"120 0 CURVE SMOOTH",
"102 0 OFFCURVE",
"85 8 OFFCURVE",
"73 24 CURVE SMOOTH",
"44 63 OFFCURVE",
"42 142 OFFCURVE",
"69 242 CURVE SMOOTH",
"106 381 OFFCURVE",
"178 478 OFFCURVE",
"243 478 CURVE SMOOTH",
"285 478 OFFCURVE",
"311 437 OFFCURVE",
"313 369 CURVE"
);
}
);
width = 283;
}
);
leftKerningGroup = o;
leftMetricsKey = o;
rightKerningGroup = o;
unicode = 0063;
},
{
color = 4;
glyphname = d;
lastChange = "2020-10-02 15:14:39 +0000";
layers = (
{
anchors = (
{
name = bottom;
position = "{90, 0}";
},
{
name = center;
position = "{154, 239}";
},
{
name = top;
position = "{281, 713}";
},
{
name = topright;
position = "{352, 477}";
}
);
background = {
paths = (
{
closed = 1;
nodes = (
"324 513 LINE SMOOTH",
"326 522 OFFCURVE",
"317 526 OFFCURVE",
"311 526 CURVE SMOOTH",
"304 526 OFFCURVE",
"302 523 OFFCURVE",
"300 516 CURVE SMOOTH",
"128 -121 LINE SMOOTH",
"117 -161 OFFCURVE",
"136 -187 OFFCURVE",
"174 -187 CURVE SMOOTH",
"184 -187 OFFCURVE",
"188 -181 OFFCURVE",
"188 -175 CURVE SMOOTH",
"188 -170 OFFCURVE",
"185 -166 OFFCURVE",
"179 -166 CURVE SMOOTH",
"149 -166 OFFCURVE",
"141 -153 OFFCURVE",
"151 -116 CURVE SMOOTH"
);
}
);
};
components = (
{
name = _v_stem_lc;
transform = "{1, 0, 0, 1, 166, 0}";
}
);
layerId = "8AECA43D-4735-4071-BB51-E4BAE59DF091";
paths = (
{
closed = 1;
nodes = (
"131 -5 OFFCURVE",
"162 18 OFFCURVE",
"191 60 CURVE",
"183 73 LINE",
"156 39 OFFCURVE",
"128 16 OFFCURVE",
"98 16 CURVE SMOOTH",
"65 16 OFFCURVE",
"45 45 OFFCURVE",
"45 109 CURVE SMOOTH",
"45 260 OFFCURVE",
"140 461 OFFCURVE",
"215 461 CURVE SMOOTH",
"240 461 OFFCURVE",
"265 438 OFFCURVE",
"272 399 CURVE",
"284 415 LINE",
"276 461 OFFCURVE",
"245 482 OFFCURVE",
"215 482 CURVE SMOOTH",
"126 482 OFFCURVE",
"23 279 OFFCURVE",
"23 109 CURVE SMOOTH",
"23 31 OFFCURVE",
"50 -5 OFFCURVE",
"95 -5 CURVE SMOOTH"
);
}
);
width = 308;
},
{
associatedMasterId = "8AECA43D-4735-4071-BB51-E4BAE59DF091";
layerId = "5F3D61A5-58BC-422D-B9D2-7EB299354EF7";
name = "Aug 15 20, 14:37";
paths = (
{
closed = 1;
nodes = (
"314 367 OFFCURVE",
"283 258 OFFCURVE",
"240 160 CURVE SMOOTH",
"191 47 OFFCURVE",
"130 -14 OFFCURVE",
"86 3 CURVE SMOOTH",
"61 13 OFFCURVE",
"46 47 OFFCURVE",
"45 99 CURVE SMOOTH",
"44 149 OFFCURVE",
"55 211 OFFCURVE",
"76 273 CURVE SMOOTH",
"109 372 OFFCURVE",
"161 450 OFFCURVE",
"207 472 CURVE SMOOTH",
"221 478 OFFCURVE",
"235 479 OFFCURVE",
"247 475 CURVE SMOOTH",
"269 466 OFFCURVE",
"286 443 OFFCURVE",
"296 409 CURVE",
"318 524 OFFCURVE",
"320 628 OFFCURVE",
"296 671 CURVE SMOOTH",
"289 684 OFFCURVE",
"281 690 OFFCURVE",
"272 692 CURVE",
"240 696 OFFCURVE",
"206 668 OFFCURVE",
"187 638 CURVE SMOOTH",
"184 633 OFFCURVE",
"177 632 OFFCURVE",
"172 635 CURVE SMOOTH",
"168 638 OFFCURVE",
"166 645 OFFCURVE",
"169 649 CURVE SMOOTH",
"191 682 OFFCURVE",
"231 719 OFFCURVE",
"275 712 CURVE SMOOTH",
"291 710 OFFCURVE",
"304 700 OFFCURVE",
"314 682 CURVE SMOOTH",
"336 642 OFFCURVE",
"337 559 OFFCURVE",
"326 466 CURVE SMOOTH"
);
},
{
closed = 1;
nodes = (
"283 414 OFFCURVE",
"262 447 OFFCURVE",
"239 455 CURVE SMOOTH",
"232 457 OFFCURVE",
"225 457 OFFCURVE",
"216 453 CURVE SMOOTH",
"182 437 OFFCURVE",
"132 373 OFFCURVE",
"96 267 CURVE SMOOTH",
"53 139 OFFCURVE",
"60 35 OFFCURVE",
"94 22 CURVE SMOOTH",
"120 12 OFFCURVE",
"173 60 OFFCURVE",
"221 168 CURVE SMOOTH",
"248 231 OFFCURVE",
"271 302 OFFCURVE",
"286 362 CURVE"
);
}
);
width = 293;
},
{
associatedMasterId = "8AECA43D-4735-4071-BB51-E4BAE59DF091";
layerId = "6C2421B1-6274-4E99-85A6-8318523CA7A7";
name = "Aug 15 20, 16:07";
paths = (
{
closed = 1;
nodes = (
"237 193 OFFCURVE",
"178 16 OFFCURVE",
"100 16 CURVE SMOOTH",
"66 16 OFFCURVE",
"45 52 OFFCURVE",
"45 119 CURVE SMOOTH",
"45 258 OFFCURVE",
"140 461 OFFCURVE",
"224 461 CURVE SMOOTH",
"256 461 OFFCURVE",
"277 431 OFFCURVE",
"289 360 CURVE",
"301 384 LINE",
"289 448 OFFCURVE",
"264 482 OFFCURVE",
"225 482 CURVE SMOOTH",
"125 482 OFFCURVE",
"23 272 OFFCURVE",
"23 119 CURVE SMOOTH",
"23 36 OFFCURVE",
"54 -5 OFFCURVE",
"99 -5 CURVE SMOOTH",
"193 -5 OFFCURVE",
"253 168 OFFCURVE",
"336 477 CURVE SMOOTH",
"396 701 LINE SMOOTH",
"398 709 OFFCURVE",
"392 713 OFFCURVE",
"386 713 CURVE SMOOTH",
"379 713 OFFCURVE",
"377 710 OFFCURVE",
"375 703 CURVE SMOOTH",
"314 477 LINE SMOOTH"
);
}
);
width = 332;
}
);
leftKerningGroup = o;
leftMetricsKey = o;
rightKerningGroup = l;
rightMetricsKey = "=|n";
unicode = 0064;
},
{
color = 4;
glyphname = e;
lastChange = "2020-10-02 15:31:46 +0000";
layers = (
{
anchors = (
{
name = bottom;
position = "{78, 0}";
},
{
name = ogonek;
position = "{194, 10}";
},
{
name = top;
position = "{216, 477}";
}
);
layerId = "8AECA43D-4735-4071-BB51-E4BAE59DF091";
paths = (
{
closed = 1;
nodes = (
"36 95 CURVE SMOOTH",
"36 26 OFFCURVE",
"60 -5 OFFCURVE",
"96 -5 CURVE SMOOTH",
"144 -5 OFFCURVE",
"189 50 OFFCURVE",
"228 144 CURVE SMOOTH",
"231 152 OFFCURVE",
"225 159 OFFCURVE",
"218 159 CURVE SMOOTH",
"214 159 OFFCURVE",
"211 157 OFFCURVE",
"209 153 CURVE SMOOTH",
"176 71 OFFCURVE",
"133 16 OFFCURVE",
"96 16 CURVE SMOOTH",
"73 16 OFFCURVE",
"57 37 OFFCURVE",
"57 94 CURVE SMOOTH",
"58 228 OFFCURVE",
"160 461 OFFCURVE",
"226 461 CURVE SMOOTH",
"233 461 OFFCURVE",
"237 456 OFFCURVE",
"237 447 CURVE SMOOTH",
"237 379 OFFCURVE",
"104 284 OFFCURVE",
"32 264 CURVE SMOOTH",
"27 263 OFFCURVE",
"24 258 OFFCURVE",
"24 254 CURVE SMOOTH",
"24 247 OFFCURVE",
"31 241 OFFCURVE",
"38 243 CURVE SMOOTH",
"141 277 OFFCURVE",
"258 375 OFFCURVE",
"258 447 CURVE SMOOTH",
"258 470 OFFCURVE",
"246 482 OFFCURVE",
"226 482 CURVE SMOOTH",
"142 482 OFFCURVE",
"36 241 OFFCURVE"
);
}
);
width = 273;
},
{
associatedMasterId = "8AECA43D-4735-4071-BB51-E4BAE59DF091";
layerId = "E3E322EE-4416-4023-9D76-ED29A2AAF965";
name = "Aug 15 20, 15:07";
paths = (
{
closed = 1;
nodes = (
"296 428 OFFCURVE",
"272 384 OFFCURVE",
"232 342 CURVE SMOOTH",
"212 321 OFFCURVE",
"175 287 OFFCURVE",
"125 263 CURVE",
"83 137 OFFCURVE",
"90 35 OFFCURVE",
"123 22 CURVE SMOOTH",
"148 13 OFFCURVE",
"199 55 OFFCURVE",
"244 153 CURVE SMOOTH",
"247 158 OFFCURVE",
"253 161 OFFCURVE",
"258 158 CURVE SMOOTH",
"263 156 OFFCURVE",
"266 150 OFFCURVE",
"263 144 CURVE SMOOTH",
"217 43 OFFCURVE",
"158 -13 OFFCURVE",
"116 3 CURVE SMOOTH",
"90 13 OFFCURVE",
"76 47 OFFCURVE",
"75 99 CURVE SMOOTH",
"74 143 OFFCURVE",
"83 197 OFFCURVE",
"100 252 CURVE",
"91 249 OFFCURVE",
"73 243 OFFCURVE",
"73 243 CURVE",
"67 242 OFFCURVE",
"62 245 OFFCURVE",
"60 251 CURVE SMOOTH",
"58 256 OFFCURVE",
"62 262 OFFCURVE",
"67 264 CURVE SMOOTH",
"81 268 OFFCURVE",
"95 273 OFFCURVE",
"108 279 CURVE",
"150 396 OFFCURVE",
"213 478 OFFCURVE",
"263 478 CURVE SMOOTH",
"280 478 OFFCURVE",
"290 469 OFFCURVE",
"292 454 CURVE SMOOTH"
);
},
{
closed = 1;
nodes = (
"271 454 OFFCURVE",
"271 457 OFFCURVE",
"263 457 CURVE SMOOTH",
"226 457 OFFCURVE",
"173 388 OFFCURVE",
"136 293 CURVE",
"220 341 OFFCURVE",
"275 423 OFFCURVE",
"272 451 CURVE"
);
}
);
width = 273;
}
);
leftKerningGroup = o;
rightKerningGroup = o;
unicode = 0065;
},
{
color = 4;
glyphname = f;
lastChange = "2020-10-02 15:14:39 +0000";
layers = (
{
anchors = (
{
name = bottom;
position = "{28, 0}";
},
{
name = top;
position = "{219, 713}";
}
);
background = {
components = (
{
name = idotless;
transform = "{1, 0, 0, 1, 13, 0}";
}
);
paths = (
{
closed = 1;
nodes = (
"252 713 OFFCURVE",
"189 662 OFFCURVE",
"161 559 CURVE SMOOTH",
"129 441 LINE",
"150 441 LINE",
"182 559 LINE SMOOTH",
"205 642 OFFCURVE",
"248 692 OFFCURVE",
"345 692 CURVE SMOOTH",
"351 692 OFFCURVE",
"358 698 OFFCURVE",
"358 705 CURVE SMOOTH",
"358 709 OFFCURVE",
"355 713 OFFCURVE",
"350 713 CURVE SMOOTH"
);
},
{
closed = 1;
nodes = (
"230 446 OFFCURVE",
"236 453 OFFCURVE",
"236 460 CURVE SMOOTH",
"236 465 OFFCURVE",
"232 467 OFFCURVE",
"228 467 CURVE SMOOTH",
"71 467 LINE SMOOTH",
"64 467 OFFCURVE",
"58 460 OFFCURVE",
"58 453 CURVE SMOOTH",
"58 448 OFFCURVE",
"62 446 OFFCURVE",
"66 446 CURVE SMOOTH",
"223 446 LINE SMOOTH"
);
}
);
};
components = (
{
name = idotless;
transform = "{-1, 0, 0, -1, 155, 477}";
}
);
layerId = "8AECA43D-4735-4071-BB51-E4BAE59DF091";
paths = (
{
closed = 1;
nodes = (
"353 692 OFFCURVE",
"358 697 OFFCURVE",
"358 704 CURVE SMOOTH",
"358 709 OFFCURVE",
"354 713 OFFCURVE",
"349 713 CURVE SMOOTH",
"249 713 OFFCURVE",
"193 662 OFFCURVE",
"158 544 CURVE SMOOTH",
"135 467 LINE",
"156 465 LINE",
"182 550 LINE SMOOTH",
"211 644 OFFCURVE",
"256 692 OFFCURVE",
"346 692 CURVE SMOOTH"
);
},
{
closed = 1;
nodes = (
"236 463 OFFCURVE",
"232 467 OFFCURVE",
"227 467 CURVE SMOOTH",
"70 467 LINE SMOOTH",
"63 467 OFFCURVE",
"58 462 OFFCURVE",
"58 455 CURVE SMOOTH",
"58 450 OFFCURVE",
"62 446 OFFCURVE",
"67 446 CURVE SMOOTH",
"224 446 LINE SMOOTH",
"231 446 OFFCURVE",
"236 451 OFFCURVE",
"236 458 CURVE SMOOTH"
);
}
);
width = 184;
},
{
associatedMasterId = "8AECA43D-4735-4071-BB51-E4BAE59DF091";
layerId = "D542F6FC-7A78-4506-A8D3-1640501FEF12";
name = "Aug 15 20, 15:15";
paths = (
{
closed = 1;
nodes = (
"392 694 OFFCURVE",
"387 689 OFFCURVE",
"381 689 CURVE SMOOTH",
"294 689 OFFCURVE",
"241 646 OFFCURVE",
"216 554 CURVE SMOOTH",
"193 467 LINE",
"258 467 LINE SMOOTH",
"264 467 OFFCURVE",
"268 462 OFFCURVE",
"268 456 CURVE SMOOTH",
"268 451 OFFCURVE",
"264 446 OFFCURVE",
"258 446 CURVE SMOOTH",
"188 446 LINE",
"70 8 LINE SMOOTH",
"69 2 OFFCURVE",
"63 -1 OFFCURVE",
"57 0 CURVE SMOOTH",
"52 2 OFFCURVE",
"49 8 OFFCURVE",
"50 13 CURVE SMOOTH",
"166 446 LINE",
"105 446 LINE SMOOTH",
"99 446 OFFCURVE",
"94 451 OFFCURVE",
"94 456 CURVE SMOOTH",
"94 462 OFFCURVE",
"99 467 OFFCURVE",
"105 467 CURVE SMOOTH",
"171 467 LINE",
"196 559 LINE SMOOTH",
"223 661 OFFCURVE",
"284 710 OFFCURVE",
"381 710 CURVE SMOOTH",
"387 710 OFFCURVE",
"392 706 OFFCURVE",
"392 700 CURVE SMOOTH"
);
}
);
width = 202;
}
);
leftKerningGroup = f;
rightKerningGroup = f;
unicode = 0066;
},
{
color = 4;
glyphname = g;
lastChange = "2020-10-09 14:54:13 +0000";
layers = (
{
anchors = (
{
name = bottom;
position = "{29, -187}";
},
{
name = top;
position = "{207, 477}";
}
);
background = {
paths = (
{
closed = 1;
nodes = (
"219 202 OFFCURVE",
"279 299 OFFCURVE",
"279 383 CURVE SMOOTH",
"279 441 OFFCURVE",
"248 478 OFFCURVE",
"202 478 CURVE SMOOTH",
"124 478 OFFCURVE",
"64 381 OFFCURVE",
"64 297 CURVE SMOOTH",
"64 239 OFFCURVE",
"95 202 OFFCURVE",
"141 202 CURVE SMOOTH"
);
},
{
closed = 1;
nodes = (
"243 457 OFFCURVE",
"258 421 OFFCURVE",
"258 383 CURVE SMOOTH",
"258 309 OFFCURVE",
"203 223 OFFCURVE",
"141 223 CURVE SMOOTH",
"100 223 OFFCURVE",
"85 259 OFFCURVE",
"85 297 CURVE SMOOTH",
"85 371 OFFCURVE",
"140 457 OFFCURVE",
"202 457 CURVE SMOOTH"
);
},
{
closed = 1;
nodes = (
"271 414 LINE",
"270 466 LINE SMOOTH",
"269 496 OFFCURVE",
"275 519 OFFCURVE",
"292 519 CURVE SMOOTH",
"298 519 OFFCURVE",
"302 523 OFFCURVE",
"302 530 CURVE SMOOTH",
"302 536 OFFCURVE",
"298 540 OFFCURVE",
"292 540 CURVE SMOOTH",
"258 540 OFFCURVE",
"249 505 OFFCURVE",
"249 471 CURVE SMOOTH",
"249 457 LINE"
);
},
{
closed = 1;
nodes = (
"105 63 OFFCURVE",
"16 -64 OFFCURVE",
"16 -140 CURVE SMOOTH",
"16 -166 OFFCURVE",
"29 -183 OFFCURVE",
"51 -183 CURVE SMOOTH",
"110 -183 OFFCURVE",
"176 -44 OFFCURVE",
"176 75 CURVE SMOOTH",
"176 139 OFFCURVE",
"140 173 OFFCURVE",
"94 173 CURVE SMOOTH",
"42 173 OFFCURVE",
"-3 129 OFFCURVE",
"-3 91 CURVE SMOOTH",
"-3 74 OFFCURVE",
"8 64 OFFCURVE",
"24 64 CURVE SMOOTH",
"53 64 OFFCURVE",
"87 99 OFFCURVE",
"165 210 CURVE",
"142 214 LINE",
"75 119 OFFCURVE",
"43 85 OFFCURVE",
"25 85 CURVE SMOOTH",
"21 85 OFFCURVE",
"18 87 OFFCURVE",
"18 92 CURVE SMOOTH",
"18 118 OFFCURVE",
"54 152 OFFCURVE",
"94 152 CURVE SMOOTH",
"127 152 OFFCURVE",
"155 129 OFFCURVE",
"155 75 CURVE SMOOTH",
"155 -30 OFFCURVE",
"95 -162 OFFCURVE",
"51 -162 CURVE SMOOTH",
"42 -162 OFFCURVE",
"37 -154 OFFCURVE",
"37 -140 CURVE SMOOTH",
"37 -71 OFFCURVE",
"122 49 OFFCURVE",
"215 108 CURVE",
"203 126 LINE"
);
}
);
};
layerId = "8AECA43D-4735-4071-BB51-E4BAE59DF091";
paths = (
{
closed = 1;
nodes = (
"219 202 OFFCURVE",
"279 299 OFFCURVE",
"279 383 CURVE SMOOTH",
"279 441 OFFCURVE",
"248 478 OFFCURVE",
"202 478 CURVE SMOOTH",
"124 478 OFFCURVE",
"64 381 OFFCURVE",
"64 297 CURVE SMOOTH",
"64 239 OFFCURVE",
"95 202 OFFCURVE",
"141 202 CURVE SMOOTH"
);
},
{
closed = 1;
nodes = (
"243 457 OFFCURVE",
"258 421 OFFCURVE",
"258 383 CURVE SMOOTH",
"258 309 OFFCURVE",
"203 223 OFFCURVE",
"141 223 CURVE SMOOTH",
"100 223 OFFCURVE",
"85 259 OFFCURVE",
"85 297 CURVE SMOOTH",
"85 371 OFFCURVE",
"140 457 OFFCURVE",
"202 457 CURVE SMOOTH"
);
},
{
closed = 1;
nodes = (
"271 414 LINE",
"270 466 LINE SMOOTH",
"269 496 OFFCURVE",
"275 519 OFFCURVE",
"292 519 CURVE SMOOTH",
"298 519 OFFCURVE",
"302 523 OFFCURVE",
"302 530 CURVE SMOOTH",
"302 536 OFFCURVE",
"298 540 OFFCURVE",
"292 540 CURVE SMOOTH",
"258 540 OFFCURVE",
"249 505 OFFCURVE",
"249 471 CURVE SMOOTH",
"249 457 LINE"
);
},
{
closed = 1;
nodes = (
"108 61 OFFCURVE",
"16 -72 OFFCURVE",
"16 -149 CURVE SMOOTH",
"16 -178 OFFCURVE",
"32 -192 OFFCURVE",
"50 -192 CURVE SMOOTH",
"109 -192 OFFCURVE",
"176 -51 OFFCURVE",
"176 63 CURVE SMOOTH",
"176 133 OFFCURVE",
"147 173 OFFCURVE",
"95 173 CURVE SMOOTH",
"45 173 OFFCURVE",
"-3 133 OFFCURVE",
"-3 91 CURVE SMOOTH",
"-3 74 OFFCURVE",
"7 64 OFFCURVE",
"24 64 CURVE SMOOTH",
"54 64 OFFCURVE",
"86 97 OFFCURVE",
"165 210 CURVE",
"142 214 LINE",
"77 122 OFFCURVE",
"43 85 OFFCURVE",
"25 85 CURVE SMOOTH",
"20 85 OFFCURVE",
"18 87 OFFCURVE",
"18 92 CURVE SMOOTH",
"18 121 OFFCURVE",
"58 152 OFFCURVE",
"95 152 CURVE SMOOTH",
"133 152 OFFCURVE",
"155 120 OFFCURVE",
"155 63 CURVE SMOOTH",
"155 -31 OFFCURVE",
"93 -171 OFFCURVE",
"51 -171 CURVE SMOOTH",
"41 -171 OFFCURVE",
"37 -164 OFFCURVE",
"37 -149 CURVE SMOOTH",
"37 -77 OFFCURVE",
"124 46 OFFCURVE",
"212 106 CURVE SMOOTH",
"216 109 OFFCURVE",
"217 112 OFFCURVE",
"217 115 CURVE SMOOTH",
"217 123 OFFCURVE",
"208 129 OFFCURVE",
"200 124 CURVE SMOOTH"
);
}
);
width = 290;
},
{
associatedMasterId = "8AECA43D-4735-4071-BB51-E4BAE59DF091";
layerId = "34EBEBE3-5679-4E2A-97EF-34B0C6FE87B9";
name = "Aug 15 20, 15:20";
paths = (
{
closed = 1;
nodes = (
"333 524 OFFCURVE",
"323 519 OFFCURVE",
"323 519 CURVE",
"317 519 OFFCURVE",
"314 517 OFFCURVE",
"311 514 CURVE SMOOTH",
"296 498 OFFCURVE",
"301 446 OFFCURVE",
"305 404 CURVE",
"305 401 LINE",
"307 375 OFFCURVE",
"304 345 OFFCURVE",
"293 316 CURVE SMOOTH",
"274 266 OFFCURVE",
"242 227 OFFCURVE",
"208 210 CURVE SMOOTH",
"192 202 OFFCURVE",
"177 185 OFFCURVE",
"163 166 CURVE",
"170 163 OFFCURVE",
"176 159 OFFCURVE",
"181 154 CURVE SMOOTH",
"193 141 OFFCURVE",
"200 124 OFFCURVE",
"204 104 CURVE",
"213 112 OFFCURVE",
"223 118 OFFCURVE",
"231 124 CURVE SMOOTH",
"236 127 OFFCURVE",
"243 126 OFFCURVE",
"246 121 CURVE SMOOTH",
"249 116 OFFCURVE",
"248 110 OFFCURVE",
"243 107 CURVE SMOOTH",
"232 99 OFFCURVE",
"219 90 OFFCURVE",
"207 79 CURVE",
"209 33 OFFCURVE",
"197 -17 OFFCURVE",
"189 -40 CURVE",
"175 -86 OFFCURVE",
"138 -160 OFFCURVE",
"99 -178 CURVE",
"88 -182 OFFCURVE",
"77 -183 OFFCURVE",
"68 -179 CURVE SMOOTH",
"63 -177 OFFCURVE",
"56 -172 OFFCURVE",
"52 -161 CURVE SMOOTH",
"42 -133 OFFCURVE",
"58 -79 OFFCURVE",
"73 -50 CURVE SMOOTH",
"98 1 OFFCURVE",
"142 51 OFFCURVE",
"185 88 CURVE",
"183 110 OFFCURVE",
"177 128 OFFCURVE",
"166 139 CURVE SMOOTH",
"162 144 OFFCURVE",
"156 147 OFFCURVE",
"150 149 CURVE",
"148 146 LINE SMOOTH",
"138 132 OFFCURVE",
"128 119 OFFCURVE",
"118 107 CURVE SMOOTH",
"102 90 OFFCURVE",
"73 62 OFFCURVE",
"50 63 CURVE",
"43 63 OFFCURVE",
"37 66 OFFCURVE",
"33 71 CURVE SMOOTH",
"29 75 OFFCURVE",
"26 84 OFFCURVE",
"30 98 CURVE SMOOTH",
"38 123 OFFCURVE",
"66 155 OFFCURVE",
"102 166 CURVE SMOOTH",
"116 171 OFFCURVE",
"129 173 OFFCURVE",
"141 172 CURVE",
"149 182 OFFCURVE",
"157 192 OFFCURVE",
"165 202 CURVE",
"156 202 OFFCURVE",
"147 205 OFFCURVE",
"138 209 CURVE SMOOTH",
"95 228 OFFCURVE",
"82 300 OFFCURVE",
"110 373 CURVE SMOOTH",
"142 456 OFFCURVE",
"210 490 OFFCURVE",
"257 474 CURVE",
"266 472 OFFCURVE",
"273 467 OFFCURVE",
"280 460 CURVE",
"279 489 OFFCURVE",
"282 514 OFFCURVE",
"295 528 CURVE SMOOTH",
"302 536 OFFCURVE",
"311 540 OFFCURVE",
"323 540 CURVE SMOOTH",
"329 540 OFFCURVE",
"333 535 OFFCURVE",
"333 530 CURVE SMOOTH"
);
},
{
closed = 1;
nodes = (
"284 396 LINE",
"283 408 OFFCURVE",
"280 420 OFFCURVE",
"276 429 CURVE SMOOTH",
"269 443 OFFCURVE",
"261 451 OFFCURVE",
"251 455 CURVE SMOOTH",
"214 467 OFFCURVE",
"157 436 OFFCURVE",
"130 365 CURVE SMOOTH",
"104 299 OFFCURVE",
"118 241 OFFCURVE",
"147 228 CURVE SMOOTH",
"163 221 OFFCURVE",
"179 221 OFFCURVE",
"195 227 CURVE",
"196 228 OFFCURVE",
"198 228 OFFCURVE",
"199 229 CURVE",
"202 231 LINE SMOOTH",
"231 245 OFFCURVE",
"257 280 OFFCURVE",
"274 324 CURVE SMOOTH",
"283 347 OFFCURVE",
"287 371 OFFCURVE",
"285 393 CURVE"
);
},
{
closed = 1;
nodes = (
"120 150 OFFCURVE",
"114 148 OFFCURVE",
"108 146 CURVE SMOOTH",
"82 138 OFFCURVE",
"60 115 OFFCURVE",
"52 97 CURVE SMOOTH",
"47 86 OFFCURVE",
"52 83 OFFCURVE",
"58 86 CURVE SMOOTH",
"68 90 OFFCURVE",
"82 100 OFFCURVE",
"102 121 CURVE SMOOTH",
"110 130 OFFCURVE",
"118 140 OFFCURVE",
"125 150 CURVE"
);
},
{
closed = 1;
nodes = (
"149 26 OFFCURVE",
"112 -17 OFFCURVE",
"91 -59 CURVE SMOOTH",
"77 -89 OFFCURVE",
"65 -135 OFFCURVE",
"72 -154 CURVE SMOOTH",
"75 -161 OFFCURVE",
"80 -163 OFFCURVE",
"90 -158 CURVE SMOOTH",
"118 -146 OFFCURVE",
"153 -85 OFFCURVE",
"169 -34 CURVE SMOOTH",
"178 -7 OFFCURVE",
"185 28 OFFCURVE",
"186 61 CURVE"
);
}
);
width = 293;
}
);
leftKerningGroup = g;
rightKerningGroup = g;
unicode = 0067;
},
{
color = 4;
glyphname = h;
lastChange = "2020-10-02 15:14:39 +0000";
layers = (
{
anchors = (
{
name = bottom;
position = "{90, 0}";
},
{
name = center;
position = "{186, 357}";
},
{
name = top;
position = "{281, 713}";
}
);
components = (
{
alignment = -1;
name = _v_stem_lc;
},
{
name = n;
}
);
layerId = "8AECA43D-4735-4071-BB51-E4BAE59DF091";
width = 308;
},
{
associatedMasterId = "8AECA43D-4735-4071-BB51-E4BAE59DF091";
layerId = "B7A8BCEA-5967-401A-98C0-90E2F57A4270";
name = "Aug 15 20, 14:58";
paths = (
{
closed = 1;
nodes = (
"236 7 LINE SMOOTH",
"235 1 OFFCURVE",
"229 -2 OFFCURVE",
"223 0 CURVE SMOOTH",
"218 1 OFFCURVE",
"214 7 OFFCURVE",
"216 12 CURVE",
"310 365 LINE SMOOTH",
"320 403 OFFCURVE",
"320 429 OFFCURVE",
"310 442 CURVE SMOOTH",
"303 451 OFFCURVE",
"290 456 OFFCURVE",
"271 456 CURVE SMOOTH",
"235 456 OFFCURVE",
"188 425 OFFCURVE",
"162 388 CURVE",
"60 7 LINE SMOOTH",
"59 2 OFFCURVE",
"53 -2 OFFCURVE",
"47 0 CURVE SMOOTH",
"42 1 OFFCURVE",
"39 7 OFFCURVE",
"40 13 CURVE SMOOTH",
"225 705 LINE",
"227 710 OFFCURVE",
"233 714 OFFCURVE",
"238 712 CURVE SMOOTH",
"244 711 OFFCURVE",
"246 699 OFFCURVE",
"246 699 CURVE",
"173 426 LINE",
"201 454 OFFCURVE",
"237 477 OFFCURVE",
"271 477 CURVE SMOOTH",
"297 477 OFFCURVE",
"315 469 OFFCURVE",
"327 455 CURVE SMOOTH",
"342 436 OFFCURVE",
"343 405 OFFCURVE",
"330 359 CURVE SMOOTH"
);
}
);
width = 319;
}
);
leftKerningGroup = l;
leftMetricsKey = n;
rightKerningGroup = n;
rightMetricsKey = n;
unicode = 0068;
},
{
color = 4;
glyphname = k;
lastChange = "2020-10-10 11:30:33 +0000";
layers = (
{
anchors = (
{
name = bottom;
position = "{116, 0}";
},
{
name = top;
position = "{307, 713}";
}
);
background = {
components = (
{
alignment = -1;
name = _v_stem_lc;
transform = "{1, 0, 0, 1, 19, 0}";
}
);
paths = (
{
closed = 1;
nodes = (
"256 63 OFFCURVE",
"218 15 OFFCURVE",
"192 15 CURVE SMOOTH",
"180 15 OFFCURVE",
"170 29 OFFCURVE",
"170 58 CURVE SMOOTH",
"170 91 OFFCURVE",
"187 166 OFFCURVE",
"187 212 CURVE SMOOTH",
"187 277 OFFCURVE",
"157 312 OFFCURVE",
"104 312 CURVE SMOOTH",
"59 312 OFFCURVE",
"22 290 OFFCURVE",
"22 260 CURVE SMOOTH",
"22 238 OFFCURVE",
"39 227 OFFCURVE",
"73 227 CURVE SMOOTH",
"184 227 OFFCURVE",
"345 350 OFFCURVE",
"345 435 CURVE SMOOTH",
"345 464 OFFCURVE",
"327 483 OFFCURVE",
"299 483 CURVE SMOOTH",
"254 483 OFFCURVE",
"201 431 OFFCURVE",
"155 342 CURVE SMOOTH",
"150 333 OFFCURVE",
"157 326 OFFCURVE",
"164 326 CURVE SMOOTH",
"168 326 OFFCURVE",
"171 328 OFFCURVE",
"173 332 CURVE SMOOTH",
"216 414 OFFCURVE",
"263 462 OFFCURVE",
"299 462 CURVE SMOOTH",
"315 462 OFFCURVE",
"324 453 OFFCURVE",
"324 435 CURVE SMOOTH",
"324 362 OFFCURVE",
"171 248 OFFCURVE",
"73 248 CURVE SMOOTH",
"52 248 OFFCURVE",
"43 252 OFFCURVE",
"43 260 CURVE SMOOTH",
"43 277 OFFCURVE",
"74 292 OFFCURVE",
"104 292 CURVE SMOOTH",
"144 292 OFFCURVE",
"166 262 OFFCURVE",
"166 209 CURVE SMOOTH",
"166 167 OFFCURVE",
"149 96 OFFCURVE",
"149 59 CURVE SMOOTH",
"149 17 OFFCURVE",
"167 -5 OFFCURVE",
"191 -5 CURVE SMOOTH",
"231 -5 OFFCURVE",
"270 45 OFFCURVE",
"314 159 CURVE SMOOTH",
"317 167 OFFCURVE",
"310 173 OFFCURVE",
"304 173 CURVE SMOOTH",
"300 173 OFFCURVE",
"296 171 OFFCURVE",
"294 165 CURVE SMOOTH"
);
}
);
};
components = (
{
alignment = -1;
name = _v_stem_lc;
transform = "{1, 0, 0, 1, 19, 0}";
}
);
layerId = "8AECA43D-4735-4071-BB51-E4BAE59DF091";
paths = (
{
closed = 1;
nodes = (
"256 63 OFFCURVE",
"218 15 OFFCURVE",
"192 15 CURVE SMOOTH",
"180 15 OFFCURVE",
"170 29 OFFCURVE",
"170 56 CURVE SMOOTH",
"170 72 OFFCURVE",
"173 96 OFFCURVE",
"177 123 CURVE SMOOTH",
"182 154 OFFCURVE",
"187 188 OFFCURVE",
"187 215 CURVE SMOOTH",
"187 277 OFFCURVE",
"157 312 OFFCURVE",
"104 312 CURVE SMOOTH",
"59 312 OFFCURVE",
"22 290 OFFCURVE",
"22 260 CURVE SMOOTH",
"22 238 OFFCURVE",
"39 227 OFFCURVE",
"73 227 CURVE SMOOTH",
"184 227 OFFCURVE",
"345 350 OFFCURVE",
"345 435 CURVE SMOOTH",
"345 464 OFFCURVE",
"327 483 OFFCURVE",
"299 483 CURVE SMOOTH",
"254 483 OFFCURVE",
"201 431 OFFCURVE",
"155 342 CURVE SMOOTH",
"150 333 OFFCURVE",
"157 326 OFFCURVE",
"164 326 CURVE SMOOTH",
"168 326 OFFCURVE",
"171 328 OFFCURVE",
"173 332 CURVE SMOOTH",
"216 414 OFFCURVE",
"263 462 OFFCURVE",
"299 462 CURVE SMOOTH",
"315 462 OFFCURVE",
"324 453 OFFCURVE",
"324 435 CURVE SMOOTH",
"324 362 OFFCURVE",
"171 248 OFFCURVE",
"73 248 CURVE SMOOTH",
"52 248 OFFCURVE",
"43 252 OFFCURVE",
"43 260 CURVE SMOOTH",
"43 277 OFFCURVE",
"74 292 OFFCURVE",
"104 292 CURVE SMOOTH",
"144 292 OFFCURVE",
"166 262 OFFCURVE",
"166 212 CURVE SMOOTH",
"166 189 OFFCURVE",
"162 158 OFFCURVE",
"157 129 CURVE SMOOTH",
"152 102 OFFCURVE",
"149 76 OFFCURVE",
"149 57 CURVE SMOOTH",
"149 17 OFFCURVE",
"167 -5 OFFCURVE",
"192 -5 CURVE SMOOTH",
"231 -5 OFFCURVE",
"270 45 OFFCURVE",
"314 159 CURVE SMOOTH",
"317 167 OFFCURVE",
"310 173 OFFCURVE",
"304 173 CURVE SMOOTH",
"300 173 OFFCURVE",
"296 171 OFFCURVE",
"294 165 CURVE SMOOTH"
);
}
);
width = 365;
},
{
associatedMasterId = "8AECA43D-4735-4071-BB51-E4BAE59DF091";
layerId = "4902F9B7-6AD7-4663-99B4-9E32C93446BE";
name = "Aug 15 20, 15:34";
paths = (
{
closed = 1;
nodes = (
"370 379 OFFCURVE",
"305 301 OFFCURVE",
"215 257 CURVE",
"223 223 OFFCURVE",
"217 177 OFFCURVE",
"210 133 CURVE",
"204 87 OFFCURVE",
"198 41 OFFCURVE",
"211 25 CURVE SMOOTH",
"213 23 OFFCURVE",
"216 20 OFFCURVE",
"224 20 CURVE SMOOTH",
"254 20 OFFCURVE",
"291 74 OFFCURVE",
"327 167 CURVE SMOOTH",
"329 172 OFFCURVE",
"335 175 OFFCURVE",
"340 173 CURVE SMOOTH",
"346 171 OFFCURVE",
"348 165 OFFCURVE",
"346 159 CURVE SMOOTH",
"305 53 OFFCURVE",
"264 -1 OFFCURVE",
"224 -1 CURVE SMOOTH",
"212 -1 OFFCURVE",
"202 3 OFFCURVE",
"195 12 CURVE SMOOTH",
"176 34 OFFCURVE",
"182 81 OFFCURVE",
"190 135 CURVE SMOOTH",
"195 175 OFFCURVE",
"201 218 OFFCURVE",
"195 248 CURVE",
"189 246 LINE SMOOTH",
"173 239 OFFCURVE",
"151 233 OFFCURVE",
"130 230 CURVE",
"70 7 LINE SMOOTH",
"69 2 OFFCURVE",
"63 -2 OFFCURVE",
"57 0 CURVE SMOOTH",
"52 1 OFFCURVE",
"50 13 OFFCURVE",
"50 13 CURVE",
"108 228 LINE",
"92 227 OFFCURVE",
"78 229 OFFCURVE",
"69 234 CURVE SMOOTH",
"59 239 OFFCURVE",
"56 246 OFFCURVE",
"55 251 CURVE SMOOTH",
"53 260 OFFCURVE",
"55 270 OFFCURVE",
"62 279 CURVE SMOOTH",
"76 296 OFFCURVE",
"104 307 OFFCURVE",
"130 310 CURVE",
"236 705 LINE SMOOTH",
"237 710 OFFCURVE",
"243 714 OFFCURVE",
"248 712 CURVE SMOOTH",
"254 711 OFFCURVE",
"257 705 OFFCURVE",
"256 699 CURVE SMOOTH",
"152 311 LINE",
"172 311 OFFCURVE",
"188 304 OFFCURVE",
"199 291 CURVE SMOOTH",
"203 287 OFFCURVE",
"206 282 OFFCURVE",
"208 277 CURVE",
"289 317 OFFCURVE",
"350 387 OFFCURVE",
"354 430 CURVE SMOOTH",
"356 446 OFFCURVE",
"348 451 OFFCURVE",
"345 453 CURVE SMOOTH",
"338 457 OFFCURVE",
"329 456 OFFCURVE",
"322 454 CURVE SMOOTH",
"294 447 OFFCURVE",
"246 411 OFFCURVE",
"205 333 CURVE",
"203 327 OFFCURVE",
"196 325 OFFCURVE",
"191 328 CURVE SMOOTH",
"186 331 OFFCURVE",
"184 337 OFFCURVE",
"187 342 CURVE SMOOTH",
"224 412 OFFCURVE",
"273 463 OFFCURVE",
"317 475 CURVE SMOOTH",
"332 479 OFFCURVE",
"346 477 OFFCURVE",
"357 470 CURVE SMOOTH",
"370 462 OFFCURVE",
"377 446 OFFCURVE",
"375 428 CURVE SMOOTH"
);
},
{
closed = 1;
nodes = (
"187 272 OFFCURVE",
"185 275 OFFCURVE",
"183 277 CURVE SMOOTH",
"175 286 OFFCURVE",
"164 291 OFFCURVE",
"148 291 CURVE",
"146 291 LINE",
"136 252 LINE",
"151 255 OFFCURVE",
"167 259 OFFCURVE",
"181 265 CURVE SMOOTH",
"189 268 LINE"
);
},
{
closed = 1;
nodes = (
"104 284 OFFCURVE",
"86 275 OFFCURVE",
"79 265 CURVE",
"73 259 OFFCURVE",
"76 254 OFFCURVE",
"81 251 CURVE",
"88 249 OFFCURVE",
"97 248 OFFCURVE",
"113 249 CURVE",
"124 288 LINE"
);
}
);
visible = 1;
width = 355;
}
);
leftKerningGroup = l;
rightKerningGroup = k;
rightMetricsKey = c;
unicode = 006B;
},
{
color = 4;
glyphname = m;
lastChange = "2020-10-02 15:14:39 +0000";
layers = (
{
anchors = (
{
name = bottom;
position = "{140, 0}";
},
{
name = top;
position = "{268, 477}";
}
);
background = {
paths = (
{
closed = 1;
nodes = (
"275 12 LINE SMOOTH",
"273 4 OFFCURVE",
"279 0 OFFCURVE",
"285 0 CURVE SMOOTH",
"292 0 OFFCURVE",
"294 3 OFFCURVE",
"296 10 CURVE SMOOTH",
"419 465 LINE SMOOTH",
"421 472 OFFCURVE",
"414 477 OFFCURVE",
"411 477 CURVE SMOOTH",
"408 477 OFFCURVE",
"406 477 OFFCURVE",
"400 474 CURVE SMOOTH",
"253 401 OFFCURVE",
"164 294 OFFCURVE",
"164 191 CURVE SMOOTH",
"164 169 OFFCURVE",
"174 154 OFFCURVE",
"189 154 CURVE SMOOTH",
"221 154 OFFCURVE",
"253 230 OFFCURVE",
"253 289 CURVE SMOOTH",
"253 363 OFFCURVE",
"210 423 OFFCURVE",
"143 473 CURVE SMOOTH",
"137 477 OFFCURVE",
"136 477 OFFCURVE",
"133 477 CURVE SMOOTH",
"126 477 OFFCURVE",
"124 474 OFFCURVE",
"122 467 CURVE SMOOTH",
"-1 12 LINE SMOOTH",
"-3 4 OFFCURVE",
"3 0 OFFCURVE",
"9 0 CURVE SMOOTH",
"16 0 OFFCURVE",
"18 3 OFFCURVE",
"20 10 CURVE SMOOTH",
"143 465 LINE",
"126 460 LINE",
"198 407 OFFCURVE",
"231 349 OFFCURVE",
"231 293 CURVE SMOOTH",
"231 244 OFFCURVE",
"206 176 OFFCURVE",
"192 176 CURVE SMOOTH",
"188 176 OFFCURVE",
"186 184 OFFCURVE",
"186 196 CURVE SMOOTH",
"186 288 OFFCURVE",
"271 388 OFFCURVE",
"410 455 CURVE",
"398 467 LINE"
);
}
);
};
layerId = "8AECA43D-4735-4071-BB51-E4BAE59DF091";
paths = (
{
closed = 1;
nodes = (
"275 12 LINE SMOOTH",
"273 4 OFFCURVE",
"279 0 OFFCURVE",
"285 0 CURVE SMOOTH",
"292 0 OFFCURVE",
"294 3 OFFCURVE",
"296 10 CURVE SMOOTH",
"419 465 LINE SMOOTH",
"421 472 OFFCURVE",
"416 477 OFFCURVE",
"410 477 CURVE SMOOTH",
"407 477 OFFCURVE",
"405 476 OFFCURVE",
"400 474 CURVE SMOOTH",
"253 401 OFFCURVE",
"164 294 OFFCURVE",
"164 191 CURVE SMOOTH",
"164 169 OFFCURVE",
"174 154 OFFCURVE",
"189 154 CURVE SMOOTH",
"221 154 OFFCURVE",
"253 230 OFFCURVE",
"253 289 CURVE SMOOTH",
"253 363 OFFCURVE",
"210 423 OFFCURVE",
"143 473 CURVE SMOOTH",
"137 477 OFFCURVE",
"136 477 OFFCURVE",
"133 477 CURVE SMOOTH",
"126 477 OFFCURVE",
"124 474 OFFCURVE",
"122 467 CURVE SMOOTH",
"-1 12 LINE SMOOTH",
"-3 4 OFFCURVE",
"3 0 OFFCURVE",
"9 0 CURVE SMOOTH",
"16 0 OFFCURVE",
"18 3 OFFCURVE",
"20 10 CURVE SMOOTH",
"143 465 LINE",
"126 460 LINE",
"198 407 OFFCURVE",
"231 349 OFFCURVE",
"231 293 CURVE SMOOTH",
"231 244 OFFCURVE",
"206 176 OFFCURVE",
"192 176 CURVE SMOOTH",
"188 176 OFFCURVE",
"186 184 OFFCURVE",
"186 196 CURVE SMOOTH",
"186 288 OFFCURVE",
"271 388 OFFCURVE",
"410 455 CURVE",
"398 467 LINE"
);
}
);
width = 408;
},
{
associatedMasterId = "8AECA43D-4735-4071-BB51-E4BAE59DF091";
layerId = "0375BDA6-5F61-4AC8-AD86-5F30BDA1F7CF";
name = "Aug 15 20, 15:46";
paths = (
{
closed = 1;
nodes = (
"444 447 OFFCURVE",
"406 305 OFFCURVE",
"372 179 CURVE SMOOTH",
"326 8 LINE SMOOTH",
"325 3 OFFCURVE",
"319 -1 OFFCURVE",
"313 1 CURVE SMOOTH",
"308 2 OFFCURVE",
"304 8 OFFCURVE",
"306 14 CURVE SMOOTH",
"352 185 LINE",
"422 447 LINE",
"389 429 OFFCURVE",
"324 386 OFFCURVE",
"273 322 CURVE",
"277 308 OFFCURVE",
"280 293 OFFCURVE",
"280 277 CURVE",
"282 231 OFFCURVE",
"266 181 OFFCURVE",
"243 163 CURVE SMOOTH",
"232 154 OFFCURVE",
"223 154 OFFCURVE",
"217 156 CURVE SMOOTH",
"211 157 OFFCURVE",
"204 161 OFFCURVE",
"200 171 CURVE SMOOTH",
"189 199 OFFCURVE",
"206 258 OFFCURVE",
"229 295 CURVE SMOOTH",
"236 306 OFFCURVE",
"243 316 OFFCURVE",
"250 326 CURVE",
"231 382 OFFCURVE",
"189 428 OFFCURVE",
"168 448 CURVE",
"50 8 LINE SMOOTH",
"49 3 OFFCURVE",
"43 -1 OFFCURVE",
"37 1 CURVE SMOOTH",
"32 2 OFFCURVE",
"28 8 OFFCURVE",
"30 14 CURVE SMOOTH",
"152 470 LINE SMOOTH",
"153 474 OFFCURVE",
"156 476 OFFCURVE",
"159 478 CURVE SMOOTH",
"163 479 OFFCURVE",
"167 478 OFFCURVE",
"169 476 CURVE SMOOTH",
"173 473 OFFCURVE",
"235 420 OFFCURVE",
"265 346 CURVE",
"337 431 OFFCURVE",
"429 475 OFFCURVE",
"434 477 CURVE SMOOTH",
"438 479 OFFCURVE",
"442 478 OFFCURVE",
"445 476 CURVE SMOOTH",
"448 473 OFFCURVE",
"450 469 OFFCURVE",
"449 465 CURVE SMOOTH"
);
},
{
closed = 1;
nodes = (
"259 284 OFFCURVE",
"258 292 OFFCURVE",
"257 300 CURVE",
"253 295 OFFCURVE",
"250 290 OFFCURVE",
"247 285 CURVE SMOOTH",
"225 248 OFFCURVE",
"214 203 OFFCURVE",
"218 183 CURVE SMOOTH",
"220 176 OFFCURVE",
"224 175 OFFCURVE",
"230 179 CURVE SMOOTH",
"245 192 OFFCURVE",
"261 234 OFFCURVE",
"259 276 CURVE"
);
}
);
width = 419;
}
);
leftKerningGroup = n;
leftMetricsKey = n;
rightKerningGroup = n;
rightMetricsKey = n;
unicode = 006D;
},
{
color = 4;
glyphname = n;
lastChange = "2020-10-02 15:14:39 +0000";
layers = (
{
anchors = (
{
name = bottom;
position = "{90, 0}";
},
{
name = top;
position = "{218, 477}";
}
);
background = {
paths = (
{
closed = 1;
nodes = (
"173 4 OFFCURVE",
"179 0 OFFCURVE",
"185 0 CURVE SMOOTH",
"192 0 OFFCURVE",
"194 3 OFFCURVE",
"196 10 CURVE SMOOTH",
"293 371 LINE SMOOTH",
"313 444 OFFCURVE",
"294 482 OFFCURVE",
"240 482 CURVE SMOOTH",
"202 482 OFFCURVE",
"166 465 OFFCURVE",
"128 423 CURVE",
"119 390 LINE",
"150 430 OFFCURVE",
"191 461 OFFCURVE",
"234 461 CURVE SMOOTH",
"275 461 OFFCURVE",
"289 435 OFFCURVE",
"272 371 CURVE SMOOTH",
"175 12 LINE SMOOTH"
);
}
);
};
components = (
{
name = idotless;
}
);
layerId = "8AECA43D-4735-4071-BB51-E4BAE59DF091";
paths = (
{
closed = 1;
nodes = (
"176 3 OFFCURVE",
"179 0 OFFCURVE",
"185 0 CURVE SMOOTH",
"192 0 OFFCURVE",
"194 3 OFFCURVE",
"196 10 CURVE SMOOTH",
"293 371 LINE SMOOTH",
"312 440 OFFCURVE",
"290 482 OFFCURVE",
"234 482 CURVE SMOOTH",
"198 482 OFFCURVE",
"166 464 OFFCURVE",
"128 423 CURVE",
"119 388 LINE",
"161 437 OFFCURVE",
"198 461 OFFCURVE",
"234 461 CURVE SMOOTH",
"275 461 OFFCURVE",
"288 432 OFFCURVE",
"272 371 CURVE SMOOTH",
"178 11 LINE SMOOTH"
);
}
);
width = 308;
},
{
associatedMasterId = "8AECA43D-4735-4071-BB51-E4BAE59DF091";
layerId = "445BF9C8-9C08-455A-917D-4289D5DF5FAE";
name = "Aug 15 20, 14:40";
paths = (
{
closed = 1;
nodes = (
"226 8 LINE SMOOTH",
"225 3 OFFCURVE",
"219 -1 OFFCURVE",
"213 1 CURVE SMOOTH",
"208 2 OFFCURVE",
"204 8 OFFCURVE",
"206 14 CURVE SMOOTH",
"293 339 LINE SMOOTH",
"307 392 OFFCURVE",
"308 427 OFFCURVE",
"295 444 CURVE SMOOTH",
"288 453 OFFCURVE",
"277 457 OFFCURVE",
"261 457 CURVE SMOOTH",
"223 457 OFFCURVE",
"177 423 OFFCURVE",
"151 386 CURVE",
"50 8 LINE SMOOTH",
"49 3 OFFCURVE",
"43 -1 OFFCURVE",
"37 1 CURVE SMOOTH",
"32 2 OFFCURVE",
"28 8 OFFCURVE",
"30 14 CURVE SMOOTH",
"152 470 LINE SMOOTH",
"154 476 OFFCURVE",
"160 479 OFFCURVE",
"165 478 CURVE SMOOTH",
"171 476 OFFCURVE",
"174 470 OFFCURVE",
"173 465 CURVE SMOOTH",
"163 427 LINE",
"191 455 OFFCURVE",
"227 478 OFFCURVE",
"261 478 CURVE SMOOTH",
"283 478 OFFCURVE",
"300 471 OFFCURVE",
"311 456 CURVE SMOOTH",
"329 433 OFFCURVE",
"330 394 OFFCURVE",
"313 334 CURVE"
);
}
);
width = 310;
}
);
leftKerningGroup = n;
rightKerningGroup = n;
unicode = 006E;
},
